<svg width="160" height="160" viewBox="0 0 160 160" fill="none" xmlns="http://www.w3.org/2000/svg">
<g clip-path="url(#clip0_1445_13009)">
<ellipse cx="80" cy="79.8329" rx="80" ry="79.8329" fill="#C6E7FF"/>
<path d="M123.291 144.836V147.278C110.21 155.669 94.9687 160.088 79.4186 159.998C63.8685 159.909 48.6792 155.314 35.6963 146.773V144.836C35.6963 125.215 55.3587 109.214 79.4938 109.214C103.713 109.214 123.291 125.215 123.291 144.836Z" fill="#61B3FF"/>
<path d="M79.4728 98.7802C85.7619 98.7802 91.7935 96.2871 96.2405 91.8493C100.688 87.4115 103.186 81.3926 103.186 75.1167C103.186 68.8407 100.688 62.8218 96.2405 58.384C91.7935 53.9462 85.7619 51.4531 79.4728 51.4531C73.1837 51.4531 67.1522 53.9462 62.7052 58.384C58.2581 62.8218 55.7598 68.8407 55.7598 75.1167C55.7598 81.3926 58.2581 87.4115 62.7052 91.8493C67.1522 96.2871 73.1837 98.7802 79.4728 98.7802Z" fill="#61B3FF"/>
</g>
<defs>
<clipPath id="clip0_1445_13009">
<rect width="160" height="160" fill="white"/>
</clipPath>
</defs>
</svg>
