<svg width="556" height="276" viewBox="0 0 556 276" fill="none" xmlns="http://www.w3.org/2000/svg">
<rect x="144" y="152" width="124" height="124" rx="36" fill="#F7F9FC"/>
<rect x="288" y="152" width="124" height="124" rx="36" fill="#F7F9FC"/>
<rect x="144" width="124" height="124" rx="36" fill="#F7F9FC"/>
<rect x="432" y="152" width="124" height="124" rx="36" fill="#F1F3F6"/>
<rect x="288" width="124" height="124" rx="36" fill="#F1F3F6"/>
<rect width="124" height="124" rx="36" fill="#F7F9FC"/>
<rect x="432" width="124" height="124" rx="36" fill="#F7F9FC"/>
<path d="M37.807 72.554C37.807 77.1794 34.0287 80.9579 29.4035 80.9579C24.7783 80.9579 21 77.1794 21 72.554C21 67.9286 24.7783 64.1501 29.4035 64.1501H37.807V72.554Z" fill="#E01E5A"/>
<path d="M42.0393 72.5542C42.0393 67.9288 45.8176 64.1503 50.4428 64.1503C55.0679 64.1503 58.8463 67.9288 58.8463 72.5542V93.5965C58.8463 98.2219 55.0679 102 50.4428 102C45.8176 102 42.0393 98.2219 42.0393 93.5965V72.5542Z" fill="#E01E5A"/>
<path d="M50.4428 38.8078C45.8176 38.8078 42.0393 35.0293 42.0393 30.4039C42.0393 25.7785 45.8176 22 50.4428 22C55.0679 22 58.8463 25.7785 58.8463 30.4039V38.8078H50.4428Z" fill="#36C5F0"/>
<path d="M50.4448 43.0423C55.07 43.0423 58.8483 46.8208 58.8483 51.4462C58.8483 56.0716 55.07 59.8501 50.4448 59.8501H29.4035C24.7783 59.8501 21 56.0716 21 51.4462C21 46.8208 24.7783 43.0423 29.4035 43.0423H50.4448Z" fill="#36C5F0"/>
<path d="M84.1904 51.4461C84.1904 46.8207 87.9687 43.0422 92.5939 43.0422C97.2191 43.0422 100.997 46.8207 100.997 51.4461C100.997 56.0715 97.2191 59.85 92.5939 59.85H84.1904V51.4461Z" fill="#2EB67D"/>
<path d="M79.9582 51.4462C79.9582 56.0716 76.1798 59.8501 71.5547 59.8501C66.9295 59.8501 63.1512 56.0716 63.1512 51.4462V30.4039C63.1512 25.7785 66.9295 22 71.5547 22C76.1798 22 79.9582 25.7785 79.9582 30.4039V51.4462Z" fill="#2EB67D"/>
<path d="M71.5547 85.1927C76.1798 85.1927 79.9582 88.9712 79.9582 93.5966C79.9582 98.222 76.1798 102 71.5547 102C66.9295 102 63.1512 98.222 63.1512 93.5966V85.1927H71.5547Z" fill="#ECB22E"/>
<path d="M71.5547 80.9582C66.9295 80.9582 63.1512 77.1797 63.1512 72.5543C63.1512 67.9289 66.9295 64.1504 71.5547 64.1504H92.596C97.2211 64.1504 100.999 67.9289 100.999 72.5543C100.999 77.1797 97.2211 80.9582 92.596 80.9582H71.5547Z" fill="#ECB22E"/>
<path d="M170.824 177.45L215.189 174.182C220.637 173.715 222.039 174.028 225.463 176.516L239.625 186.47C241.961 188.181 242.74 188.647 242.74 190.513V245.107C242.74 248.528 241.494 250.552 237.136 250.861L185.616 253.972C182.345 254.129 180.788 253.662 179.075 251.484L168.646 237.952C166.777 235.461 166 233.598 166 231.418V182.891C166 180.093 167.247 177.759 170.824 177.45Z" fill="white"/>
<path fill-rule="evenodd" clip-rule="evenodd" d="M215.189 174.182L170.824 177.45C167.247 177.759 166 180.093 166 182.891V231.418C166 233.598 166.777 235.461 168.646 237.952L179.075 251.484C180.788 253.662 182.345 254.129 185.616 253.972L237.136 250.861C241.494 250.552 242.74 248.528 242.74 245.107V190.513C242.74 188.745 242.04 188.234 239.978 186.728C239.864 186.645 239.747 186.559 239.625 186.47L225.463 176.516C222.039 174.028 220.637 173.715 215.189 174.182ZM186.784 189.618C182.578 189.902 181.622 189.966 179.233 188.026L173.159 183.204C172.539 182.581 172.85 181.803 174.405 181.649L217.057 178.538C220.636 178.226 222.504 179.472 223.905 180.561L231.221 185.849C231.532 186.004 232.309 186.936 231.375 186.936L187.327 189.581C187.141 189.594 186.962 189.606 186.788 189.617L186.785 189.618L186.784 189.618ZM181.878 244.639V198.291C181.878 196.27 182.5 195.336 184.367 195.179L234.955 192.225C236.671 192.069 237.448 193.159 237.448 195.179V241.216C237.448 243.239 237.136 244.953 234.333 245.107L185.924 247.908C183.122 248.062 181.878 247.13 181.878 244.639ZM229.667 200.778C229.977 202.179 229.667 203.579 228.263 203.736L225.931 204.201V238.418C223.905 239.507 222.038 240.129 220.482 240.129C217.99 240.129 217.366 239.35 215.5 237.019L200.244 213.067V236.241L205.071 237.33C205.071 237.33 205.071 240.129 201.176 240.129L190.438 240.752C190.126 240.129 190.438 238.575 191.528 238.263L194.33 237.487V206.846L190.439 206.534C190.127 205.133 190.904 203.113 193.085 202.956L204.604 202.179L220.482 226.443V204.979L216.434 204.514C216.123 202.801 217.366 201.557 218.923 201.403L229.667 200.778Z" fill="#000008"/>
<g filter="url(#filter0_dd_1462_14365)">
<path d="M237.525 25.0029H182.707C180.818 25.0029 179.287 26.534 179.287 28.4227V94.665C179.287 96.5537 180.818 98.0848 182.707 98.0848H237.525C239.414 98.0848 240.945 96.5537 240.945 94.665V28.4227C240.945 26.534 239.414 25.0029 237.525 25.0029Z" fill="white"/>
<path d="M237.515 25.003H182.697C180.808 25.003 179.277 26.5341 179.277 28.4228V94.665C179.277 96.5537 180.808 98.0848 182.697 98.0848H237.515C239.404 98.0848 240.935 96.5537 240.935 94.665V28.4228C240.935 26.5341 239.404 25.003 237.515 25.003Z" fill="white"/>
<path d="M211.26 25H182.711C182.263 25 181.82 25.0886 181.406 25.2608C180.993 25.433 180.617 25.6853 180.302 26.0031C179.986 26.321 179.737 26.6982 179.568 27.113C179.398 27.5278 179.313 27.9719 179.317 28.4198V43.2641H211.26V25Z" fill="#21A366"/>
<path d="M237.577 25H211.258V43.2641H240.921V28.4198C240.928 27.5238 240.58 26.6616 239.954 26.021C239.328 25.3803 238.473 25.0133 237.577 25Z" fill="#33C481"/>
<path d="M240.947 61.5303H211.258V79.7944H240.947V61.5303Z" fill="#107C41"/>
<path d="M211.26 79.7944V61.5303H179.317V94.6387C179.313 95.0888 179.399 95.535 179.57 95.9514C179.741 96.3678 179.992 96.7462 180.311 97.0644C180.629 97.3826 181.007 97.6344 181.424 97.8051C181.84 97.9757 182.286 98.0619 182.736 98.0585H237.58C238.03 98.0619 238.476 97.9757 238.893 97.8051C239.309 97.6344 239.687 97.3826 240.006 97.0644C240.324 96.7462 240.576 96.3678 240.746 95.9514C240.917 95.535 241.003 95.0888 241 94.6387V79.7944H211.26Z" fill="#185C37"/>
<path d="M211.256 43.2646H179.287V61.5288H211.256V43.2646Z" fill="#107C41"/>
<path d="M240.947 43.2646L211.258 43.2641L211.258 61.5288H240.947V43.2646Z" fill="#21A366"/>
</g>
<g filter="url(#filter1_dd_1462_14365)">
<path d="M198.694 40.9863H164.42C162.531 40.9863 161 42.5174 161 44.4061V78.6798C161 80.5685 162.531 82.0996 164.42 82.0996H198.694C200.583 82.0996 202.114 80.5685 202.114 78.6798V44.4061C202.114 42.5174 200.583 40.9863 198.694 40.9863Z" fill="#107C41"/>
<path d="M171.717 72.6494L178.835 61.5288L172.223 50.4082H177.543L181.14 57.5011C181.47 58.1597 181.698 58.6663 181.824 58.9956C182.052 58.4637 182.306 57.9317 182.559 57.4251L186.409 50.4082H191.298L184.56 61.5288L191.501 72.7507H186.435L182.255 64.9739C182.065 64.6422 181.904 64.2947 181.774 63.9353C181.653 64.2904 181.491 64.6304 181.292 64.9486L176.783 72.6494H171.717Z" fill="white"/>
</g>
<path style="mix-blend-mode:soft-light" opacity="0.5" d="M198.698 40.9863H164.424C162.535 40.9863 161.004 42.5174 161.004 44.4061V78.6798C161.004 80.5685 162.535 82.0996 164.424 82.0996H198.698C200.586 82.0996 202.118 80.5685 202.118 78.6798V44.4061C202.118 42.5174 200.586 40.9863 198.698 40.9863Z" fill="url(#paint0_linear_1462_14365)"/>
<path d="M506.997 34.5909V88.5908C506.997 94.6377 511.164 97.9999 515.587 97.9999C519.678 97.9999 524.177 95.1363 524.177 88.5908V35C524.177 29.4645 520.087 26 515.587 26C511.087 26 506.997 29.8224 506.997 34.5909Z" fill="#F8AB00"/>
<path d="M484.498 61.9995V88.5904C484.498 94.6373 488.666 97.9995 493.089 97.9995C497.179 97.9995 501.679 95.1359 501.679 88.5904V62.4086C501.679 56.8731 497.588 53.4087 493.089 53.4087C488.589 53.4087 484.498 57.2311 484.498 61.9995Z" fill="#E37300"/>
<path d="M479.181 89.4091C479.181 94.152 475.333 98 470.59 98C465.848 98 462 94.152 462 89.4091C462 84.6662 465.848 80.8182 470.59 80.8182C475.333 80.8182 479.181 84.6662 479.181 89.4091Z" fill="#E37300"/>
<path d="M357.172 44.9055C350.99 44.9055 344.878 47.562 340.229 52.806V27H331V70.4527C331 84.5633 342.416 96 356.5 96C370.584 96 382 84.5633 382 70.4527C382 56.3422 371.239 44.9055 357.172 44.9055ZM356.5 86.1503C347.839 86.1503 340.832 79.1123 340.832 70.4527C340.832 61.7932 347.857 54.7552 356.5 54.7552C365.161 54.7552 372.168 61.7932 372.168 70.4527C372.168 79.1123 365.161 86.1503 356.5 86.1503Z" fill="black"/>
<path d="M323.5 96C327.09 96 330 93.3138 330 90C330 86.6862 327.09 84 323.5 84C319.91 84 317 86.6862 317 90C317 93.3138 319.91 96 323.5 96Z" fill="#0000FF"/>
<path d="M493.874 174C473.482 174 474.755 182.843 474.755 182.843L474.778 192.005H494.238V194.755H467.049C467.049 194.755 454 193.276 454 213.851C454 234.427 465.389 233.697 465.389 233.697H472.187V224.149C472.187 224.149 471.82 212.76 483.394 212.76H502.694C502.694 212.76 513.538 212.935 513.538 202.28V184.662C513.538 184.662 515.185 174 493.874 174ZM483.144 180.161C485.08 180.161 486.645 181.726 486.645 183.662C486.645 185.598 485.08 187.163 483.144 187.163C481.208 187.163 479.643 185.598 479.643 183.662C479.643 181.726 481.208 180.161 483.144 180.161Z" fill="url(#paint1_linear_1462_14365)"/>
<path d="M494.453 253.909C514.845 253.909 513.572 245.066 513.572 245.066L513.549 235.904H494.09V233.154H521.279C521.279 233.154 534.327 234.633 534.327 214.058C534.327 193.482 522.938 194.212 522.938 194.212H516.141V203.76C516.141 203.76 516.507 215.149 504.933 215.149H485.633C485.633 215.149 474.789 214.974 474.789 225.629V243.247C474.789 243.247 473.143 253.909 494.453 253.909ZM505.183 247.748C503.247 247.748 501.683 246.183 501.683 244.247C501.683 242.311 503.247 240.746 505.183 240.746C507.12 240.746 508.684 242.311 508.684 244.247C508.684 246.183 507.12 247.748 505.183 247.748Z" fill="url(#paint2_linear_1462_14365)"/>
<path d="M349.67 214C349.67 206.636 355.639 200.667 363.003 200.667C370.367 200.667 376.336 206.636 376.336 214C376.336 221.364 370.367 227.333 363.003 227.333C355.639 227.333 349.67 221.364 349.67 214Z" fill="#1ABCFE"/>
<path d="M323 240.667C323 233.303 328.969 227.333 336.333 227.333H349.666V240.667C349.666 248.031 343.697 254 336.333 254C328.969 254 323 248.031 323 240.667Z" fill="#0ACF83"/>
<path d="M349.67 174V200.667H363.003C370.367 200.667 376.336 194.697 376.336 187.333C376.336 179.97 370.367 174 363.003 174H349.67Z" fill="#FF7262"/>
<path d="M323 187.333C323 194.697 328.969 200.667 336.333 200.667H349.666V174H336.333C328.969 174 323 179.97 323 187.333Z" fill="#F24E1E"/>
<path d="M323 214C323 221.364 328.969 227.333 336.333 227.333H349.666V200.667H336.333C328.969 200.667 323 206.636 323 214Z" fill="#A259FF"/>
<defs>
<filter id="filter0_dd_1462_14365" x="173.847" y="22.6729" width="73.3583" height="83.9449" filterUnits="userSpaceOnUse" color-interpolation-filters="sRGB">
<feFlood flood-opacity="0" result="BackgroundImageFix"/>
<feColorMatrix in="SourceAlpha" type="matrix" values="0 0 0 0 0 0 0 0 0 0 0 0 0 0 0 0 0 0 127 0" result="hardAlpha"/>
<feOffset dx="2.32713" dy="2.32713"/>
<feGaussianBlur stdDeviation="1.93927"/>
<feComposite in2="hardAlpha" operator="out"/>
<feColorMatrix type="matrix" values="0 0 0 0 0 0 0 0 0 0 0 0 0 0 0 0 0 0 0.25 0"/>
<feBlend mode="normal" in2="BackgroundImageFix" result="effect1_dropShadow_1462_14365"/>
<feColorMatrix in="SourceAlpha" type="matrix" values="0 0 0 0 0 0 0 0 0 0 0 0 0 0 0 0 0 0 127 0" result="hardAlpha"/>
<feOffset dy="3.10284"/>
<feGaussianBlur stdDeviation="2.71498"/>
<feComposite in2="hardAlpha" operator="out"/>
<feColorMatrix type="matrix" values="0 0 0 0 0 0 0 0 0 0 0 0 0 0 0 0 0 0 0.15 0"/>
<feBlend mode="normal" in2="effect1_dropShadow_1462_14365" result="effect2_dropShadow_1462_14365"/>
<feBlend mode="normal" in="SourceGraphic" in2="effect2_dropShadow_1462_14365" result="shape"/>
</filter>
<filter id="filter1_dd_1462_14365" x="155.57" y="38.6592" width="52.7489" height="51.9732" filterUnits="userSpaceOnUse" color-interpolation-filters="sRGB">
<feFlood flood-opacity="0" result="BackgroundImageFix"/>
<feColorMatrix in="SourceAlpha" type="matrix" values="0 0 0 0 0 0 0 0 0 0 0 0 0 0 0 0 0 0 127 0" result="hardAlpha"/>
<feOffset dx="2.32713" dy="2.32713"/>
<feGaussianBlur stdDeviation="1.93927"/>
<feComposite in2="hardAlpha" operator="out"/>
<feColorMatrix type="matrix" values="0 0 0 0 0 0 0 0 0 0 0 0 0 0 0 0 0 0 0.25 0"/>
<feBlend mode="normal" in2="BackgroundImageFix" result="effect1_dropShadow_1462_14365"/>
<feColorMatrix in="SourceAlpha" type="matrix" values="0 0 0 0 0 0 0 0 0 0 0 0 0 0 0 0 0 0 127 0" result="hardAlpha"/>
<feOffset dy="3.10284"/>
<feGaussianBlur stdDeviation="2.71498"/>
<feComposite in2="hardAlpha" operator="out"/>
<feColorMatrix type="matrix" values="0 0 0 0 0 0 0 0 0 0 0 0 0 0 0 0 0 0 0.15 0"/>
<feBlend mode="normal" in2="effect1_dropShadow_1462_14365" result="effect2_dropShadow_1462_14365"/>
<feBlend mode="normal" in="SourceGraphic" in2="effect2_dropShadow_1462_14365" result="shape"/>
</filter>
<linearGradient id="paint0_linear_1462_14365" x1="168.147" y1="38.3012" x2="194.974" y2="84.7596" gradientUnits="userSpaceOnUse">
<stop stop-color="white" stop-opacity="0.5"/>
<stop offset="1" stop-opacity="0.7"/>
</linearGradient>
<linearGradient id="paint1_linear_1462_14365" x1="461.72" y1="181.188" x2="501.527" y2="220.598" gradientUnits="userSpaceOnUse">
<stop stop-color="#387EB8"/>
<stop offset="1" stop-color="#366994"/>
</linearGradient>
<linearGradient id="paint2_linear_1462_14365" x1="486.154" y1="206.494" x2="528.902" y2="246.906" gradientUnits="userSpaceOnUse">
<stop stop-color="#FFE052"/>
<stop offset="1" stop-color="#FFC331"/>
</linearGradient>
</defs>
</svg>
