<svg width="1564" height="124" viewBox="0 0 1564 124" fill="none" xmlns="http://www.w3.org/2000/svg">
<rect x="288" width="124" height="124" rx="36" fill="#F7F9FC"/>
<rect x="432" width="124" height="124" rx="36" fill="#F7F9FC"/>
<rect x="864" width="124" height="124" rx="36" fill="#F7F9FC"/>
<rect x="1296" width="124" height="124" rx="36" fill="#F7F9FC"/>
<rect x="576" width="124" height="124" rx="36" fill="#F7F9FC"/>
<rect x="1440" width="124" height="124" rx="36" fill="#F7F9FC"/>
<rect x="1008" width="124" height="124" rx="36" fill="#F7F9FC"/>
<rect x="144" width="124" height="124" rx="36" fill="#F7F9FC"/>
<rect width="124" height="124" rx="36" fill="#F7F9FC"/>
<rect x="720" width="124" height="124" rx="36" fill="#F7F9FC"/>
<rect x="1152" width="124" height="124" rx="36" fill="#F7F9FC"/>
<path d="M757.807 72.554C757.807 77.1794 754.029 80.9579 749.403 80.9579C744.778 80.9579 741 77.1794 741 72.554C741 67.9286 744.778 64.1501 749.403 64.1501H757.807V72.554Z" fill="#E01E5A"/>
<path d="M762.039 72.5542C762.039 67.9288 765.818 64.1503 770.443 64.1503C775.068 64.1503 778.846 67.9288 778.846 72.5542V93.5965C778.846 98.2219 775.068 102 770.443 102C765.818 102 762.039 98.2219 762.039 93.5965V72.5542Z" fill="#E01E5A"/>
<path d="M770.443 38.8078C765.818 38.8078 762.039 35.0293 762.039 30.4039C762.039 25.7785 765.818 22 770.443 22C775.068 22 778.846 25.7785 778.846 30.4039V38.8078H770.443Z" fill="#36C5F0"/>
<path d="M770.445 43.0423C775.07 43.0423 778.848 46.8208 778.848 51.4462C778.848 56.0716 775.07 59.8501 770.445 59.8501H749.403C744.778 59.8501 741 56.0716 741 51.4462C741 46.8208 744.778 43.0423 749.403 43.0423H770.445Z" fill="#36C5F0"/>
<path d="M804.19 51.4461C804.19 46.8207 807.969 43.0422 812.594 43.0422C817.219 43.0422 820.997 46.8207 820.997 51.4461C820.997 56.0715 817.219 59.85 812.594 59.85H804.19V51.4461Z" fill="#2EB67D"/>
<path d="M799.958 51.4462C799.958 56.0716 796.18 59.8501 791.555 59.8501C786.929 59.8501 783.151 56.0716 783.151 51.4462V30.4039C783.151 25.7785 786.929 22 791.555 22C796.18 22 799.958 25.7785 799.958 30.4039V51.4462Z" fill="#2EB67D"/>
<path d="M791.555 85.1927C796.18 85.1927 799.958 88.9712 799.958 93.5966C799.958 98.222 796.18 102 791.555 102C786.929 102 783.151 98.222 783.151 93.5966V85.1927H791.555Z" fill="#ECB22E"/>
<path d="M791.555 80.9582C786.929 80.9582 783.151 77.1797 783.151 72.5543C783.151 67.9289 786.929 64.1504 791.555 64.1504H812.596C817.221 64.1504 820.999 67.9289 820.999 72.5543C820.999 77.1797 817.221 80.9582 812.596 80.9582H791.555Z" fill="#ECB22E"/>
<path d="M604.824 25.4496L649.189 22.1824C654.637 21.7152 656.039 22.0282 659.463 24.5157L673.625 34.4696C675.961 36.1813 676.74 36.6473 676.74 38.5132V93.1069C676.74 96.5283 675.494 98.5517 671.136 98.8613L619.616 101.972C616.345 102.129 614.788 101.662 613.075 99.4836L602.646 85.952C600.777 83.4614 600 81.5978 600 79.4177V30.8913C600 28.0933 601.247 25.7594 604.824 25.4496Z" fill="white"/>
<path fill-rule="evenodd" clip-rule="evenodd" d="M649.189 22.1824L604.824 25.4496C601.247 25.7594 600 28.0933 600 30.8913V79.4177C600 81.5978 600.777 83.4614 602.646 85.952L613.075 99.4836C614.788 101.662 616.345 102.129 619.616 101.972L671.136 98.8613C675.494 98.5517 676.74 96.5283 676.74 93.1069V38.5132C676.74 36.7446 676.04 36.2337 673.978 34.7276C673.864 34.6447 673.747 34.5588 673.625 34.4696L659.463 24.5157C656.039 22.0282 654.637 21.7152 649.189 22.1824ZM620.784 37.6177C616.578 37.9018 615.622 37.9663 613.233 36.0257L607.159 31.2043C606.539 30.5808 606.85 29.8031 608.405 29.6488L651.057 26.5378C654.636 26.2261 656.504 27.4724 657.905 28.5606L665.221 33.8493C665.532 34.0042 666.309 34.9362 665.375 34.9362L621.327 37.5812C621.141 37.5936 620.962 37.6057 620.788 37.6175L620.785 37.6177L620.784 37.6177ZM615.878 92.6393V46.2915C615.878 44.2699 616.5 43.336 618.367 43.1791L668.955 40.2249C670.671 40.0694 671.448 41.1589 671.448 43.1791V89.2159C671.448 91.2394 671.136 92.9528 668.333 93.1069L619.924 95.9078C617.122 96.0619 615.878 95.1302 615.878 92.6393ZM663.667 48.7776C663.977 50.1788 663.667 51.5787 662.263 51.7363L659.931 52.201V86.4179C657.905 87.5066 656.038 88.1286 654.482 88.1286C651.99 88.1286 651.366 87.3504 649.5 85.0186L634.244 61.0666V84.241L639.071 85.3305C639.071 85.3305 639.071 88.1286 635.176 88.1286L624.438 88.7517C624.126 88.1286 624.438 86.5746 625.528 86.2632L628.33 85.4866V54.846L624.439 54.5342C624.127 53.1329 624.904 51.1128 627.085 50.9558L638.604 50.1795L654.482 74.4433V52.9786L650.434 52.5141C650.123 50.8011 651.366 49.5572 652.923 49.4031L663.667 48.7776Z" fill="#000008"/>
<g filter="url(#filter0_dd_1462_14448)">
<path d="M957.525 25.0029H902.707C900.818 25.0029 899.287 26.534 899.287 28.4227V94.665C899.287 96.5537 900.818 98.0848 902.707 98.0848H957.525C959.414 98.0848 960.945 96.5537 960.945 94.665V28.4227C960.945 26.534 959.414 25.0029 957.525 25.0029Z" fill="white"/>
<path d="M957.515 25.003H902.697C900.808 25.003 899.277 26.5341 899.277 28.4228V94.665C899.277 96.5537 900.808 98.0848 902.697 98.0848H957.515C959.404 98.0848 960.935 96.5537 960.935 94.665V28.4228C960.935 26.5341 959.404 25.003 957.515 25.003Z" fill="white"/>
<path d="M931.26 25H902.711C902.263 25 901.82 25.0886 901.406 25.2608C900.993 25.433 900.617 25.6853 900.302 26.0031C899.986 26.321 899.737 26.6982 899.568 27.113C899.398 27.5278 899.313 27.9719 899.317 28.4198V43.2641H931.26V25Z" fill="#21A366"/>
<path d="M957.577 25H931.258V43.2641H960.921V28.4198C960.928 27.5238 960.58 26.6616 959.954 26.021C959.328 25.3803 958.473 25.0133 957.577 25Z" fill="#33C481"/>
<path d="M960.947 61.5303H931.258V79.7944H960.947V61.5303Z" fill="#107C41"/>
<path d="M931.26 79.7944V61.5303H899.317V94.6387C899.313 95.0888 899.399 95.535 899.57 95.9514C899.741 96.3678 899.992 96.7462 900.311 97.0644C900.629 97.3826 901.007 97.6344 901.424 97.8051C901.84 97.9757 902.286 98.0619 902.736 98.0585H957.58C958.03 98.0619 958.476 97.9757 958.893 97.8051C959.309 97.6344 959.687 97.3826 960.006 97.0644C960.324 96.7462 960.576 96.3678 960.746 95.9514C960.917 95.535 961.003 95.0888 961 94.6387V79.7944H931.26Z" fill="#185C37"/>
<path d="M931.256 43.2646H899.287V61.5288H931.256V43.2646Z" fill="#107C41"/>
<path d="M960.947 43.2646L931.258 43.2641L931.258 61.5288H960.947V43.2646Z" fill="#21A366"/>
</g>
<g filter="url(#filter1_dd_1462_14448)">
<path d="M918.694 40.9863H884.42C882.531 40.9863 881 42.5174 881 44.4061V78.6798C881 80.5685 882.531 82.0996 884.42 82.0996H918.694C920.583 82.0996 922.114 80.5685 922.114 78.6798V44.4061C922.114 42.5174 920.583 40.9863 918.694 40.9863Z" fill="#107C41"/>
<path d="M891.717 72.6494L898.835 61.5288L892.223 50.4082H897.543L901.14 57.5011C901.47 58.1597 901.698 58.6663 901.824 58.9956C902.052 58.4637 902.306 57.9317 902.559 57.4251L906.409 50.4082H911.298L904.56 61.5288L911.501 72.7507H906.435L902.255 64.9739C902.065 64.6422 901.904 64.2947 901.774 63.9353C901.653 64.2904 901.491 64.6304 901.292 64.9486L896.783 72.6494H891.717Z" fill="white"/>
</g>
<path style="mix-blend-mode:soft-light" opacity="0.5" d="M918.698 40.9863H884.424C882.535 40.9863 881.004 42.5174 881.004 44.4061V78.6798C881.004 80.5685 882.535 82.0996 884.424 82.0996H918.698C920.586 82.0996 922.118 80.5685 922.118 78.6798V44.4061C922.118 42.5174 920.586 40.9863 918.698 40.9863Z" fill="url(#paint0_linear_1462_14448)"/>
<path d="M1227 34.5909V88.5908C1227 94.6377 1231.16 97.9999 1235.59 97.9999C1239.68 97.9999 1244.18 95.1363 1244.18 88.5908V35C1244.18 29.4645 1240.09 26 1235.59 26C1231.09 26 1227 29.8224 1227 34.5909Z" fill="#F8AB00"/>
<path d="M1204.5 61.9995V88.5904C1204.5 94.6373 1208.67 97.9995 1213.09 97.9995C1217.18 97.9995 1221.68 95.1359 1221.68 88.5904V62.4086C1221.68 56.8731 1217.59 53.4087 1213.09 53.4087C1208.59 53.4087 1204.5 57.2311 1204.5 61.9995Z" fill="#E37300"/>
<path d="M1199.18 89.4091C1199.18 94.152 1195.33 98 1190.59 98C1185.85 98 1182 94.152 1182 89.4091C1182 84.6662 1185.85 80.8182 1190.59 80.8182C1195.33 80.8182 1199.18 84.6662 1199.18 89.4091Z" fill="#E37300"/>
<path d="M1077.17 44.9055C1070.99 44.9055 1064.88 47.562 1060.23 52.806V27H1051V70.4527C1051 84.5633 1062.42 96 1076.5 96C1090.58 96 1102 84.5633 1102 70.4527C1102 56.3422 1091.24 44.9055 1077.17 44.9055ZM1076.5 86.1503C1067.84 86.1503 1060.83 79.1123 1060.83 70.4527C1060.83 61.7932 1067.86 54.7552 1076.5 54.7552C1085.16 54.7552 1092.17 61.7932 1092.17 70.4527C1092.17 79.1123 1085.16 86.1503 1076.5 86.1503Z" fill="black"/>
<path d="M1043.5 96C1047.09 96 1050 93.3138 1050 90C1050 86.6862 1047.09 84 1043.5 84C1039.91 84 1037 86.6862 1037 90C1037 93.3138 1039.91 96 1043.5 96Z" fill="#0000FF"/>
<path d="M349.874 22C329.482 22 330.755 30.8432 330.755 30.8432L330.778 40.0047H350.238V42.7554H323.049C323.049 42.7554 310 41.2755 310 61.8512C310 82.4269 321.389 81.6973 321.389 81.6973H328.187V72.1494C328.187 72.1494 327.82 60.76 339.394 60.76H358.694C358.694 60.76 369.538 60.9353 369.538 50.2801V32.6619C369.538 32.6619 371.185 22 349.874 22ZM339.144 28.1607C341.08 28.1607 342.645 29.7255 342.645 31.6616C342.645 33.5977 341.08 35.1625 339.144 35.1625C337.208 35.1625 335.643 33.5977 335.643 31.6616C335.643 29.7255 337.208 28.1607 339.144 28.1607Z" fill="url(#paint1_linear_1462_14448)"/>
<path d="M350.453 101.909C370.845 101.909 369.572 93.0658 369.572 93.0658L369.549 83.9043H350.09V81.1536H377.279C377.279 81.1536 390.327 82.6335 390.327 62.0577C390.327 41.482 378.938 42.2117 378.938 42.2117H372.141V51.7596C372.141 51.7596 372.507 63.1489 360.933 63.1489H341.633C341.633 63.1489 330.789 62.9737 330.789 73.6289V91.2471C330.789 91.2471 329.143 101.909 350.453 101.909ZM361.183 95.7483C359.247 95.7483 357.683 94.1835 357.683 92.2474C357.683 90.3113 359.247 88.7465 361.183 88.7465C363.12 88.7465 364.684 90.3113 364.684 92.2474C364.684 94.1835 363.12 95.7483 361.183 95.7483Z" fill="url(#paint2_linear_1462_14448)"/>
<path d="M493.67 61.9998C493.67 54.6362 499.639 48.6665 507.003 48.6665C514.367 48.6665 520.336 54.6362 520.336 61.9998C520.336 69.3637 514.367 75.3331 507.003 75.3331C499.639 75.3331 493.67 69.3637 493.67 61.9998Z" fill="#1ABCFE"/>
<path d="M467 88.6668C467 81.3031 472.969 75.3335 480.333 75.3335H493.666V88.6668C493.666 96.0306 487.697 102 480.333 102C472.969 102 467 96.0306 467 88.6668Z" fill="#0ACF83"/>
<path d="M493.67 22V48.6665H507.003C514.367 48.6665 520.336 42.6971 520.336 35.3333C520.336 27.9695 514.367 22 507.003 22H493.67Z" fill="#FF7262"/>
<path d="M467 35.3333C467 42.6971 472.969 48.6665 480.333 48.6665H493.666V22H480.333C472.969 22 467 27.9695 467 35.3333Z" fill="#F24E1E"/>
<path d="M467 61.9998C467 69.3637 472.969 75.3331 480.333 75.3331H493.666V48.6665H480.333C472.969 48.6665 467 54.6362 467 61.9998Z" fill="#A259FF"/>
<path d="M1400.62 70.5344L1396.59 73.5937L1392.56 70.792C1392.56 70.4976 1392.56 70.1849 1392.55 69.8722C1392.55 69.5778 1392.55 69.2651 1392.53 68.9524C1392.27 61.7043 1390.43 53.9412 1386.75 48.2569C1383.92 43.897 1380.29 41.8183 1376.25 41.8183C1372 41.8183 1368.54 44.3569 1364.71 49.8757C1364.6 50.0413 1364.47 50.2069 1364.36 50.3908C1364.29 50.4828 1364.23 50.5748 1364.16 50.6852C1363.98 50.9611 1363.79 51.237 1363.61 51.5314C1361.95 54.1068 1360.22 57.1054 1358.35 60.4166C1358.18 60.7294 1358 61.0421 1357.83 61.3548C1357.78 61.4284 1357.72 61.5204 1357.69 61.594L1357.3 62.2746L1355.02 66.3033C1349.66 75.7773 1348.3 77.948 1345.64 81.4984C1340.94 87.7347 1336.93 90.1077 1331.65 90.1077C1325.4 90.1077 1321.43 87.4035 1318.98 83.3196C1316.97 80.0083 1316 75.6485 1316 70.6816L1325.14 70.9943C1325.14 74.232 1325.84 76.6971 1326.78 78.2055C1327.99 80.1555 1329.78 80.9097 1331.64 80.9097C1334.01 80.9097 1336.22 80.4131 1340.41 74.5999C1343.78 69.9457 1347.75 63.4336 1350.42 59.3313L1352.94 55.4865L1353.47 54.6403L1354.02 53.8125L1354.94 52.396C1356.34 50.262 1357.85 47.9993 1359.47 45.8286C1359.65 45.5711 1359.84 45.3135 1360.04 45.056C1360.22 44.7984 1360.43 44.5409 1360.61 44.3017C1362.27 42.1862 1364.01 40.2178 1365.89 38.599C1369.29 35.6372 1372.95 34 1376.65 34C1382.85 34 1388.76 37.5872 1393.28 44.3201C1397.9 51.2002 1400.31 59.7728 1400.58 68.6948C1400.6 68.9892 1400.6 69.3019 1400.6 69.6146C1400.62 69.9273 1400.62 70.2217 1400.62 70.5344Z" fill="#0081FB"/>
<path d="M1323.21 44.9566C1327.4 38.5089 1333.45 34 1340.38 34C1344.4 34 1348.39 35.1865 1352.56 38.5861C1357.12 42.3021 1361.98 48.4206 1368.05 58.5053L1370.22 62.1238C1375.47 70.8545 1378.46 75.345 1380.21 77.4642C1382.46 80.1849 1383.86 80.9097 1385.91 80.9097C1391.09 80.9097 1392.56 76.2372 1392.56 70.7901L1400.62 70.5381C1400.62 76.2316 1399.5 80.4149 1397.58 83.7188C1395.74 86.9142 1392.14 90.1077 1386.08 90.1077C1382.31 90.1077 1378.97 89.291 1375.28 85.816C1372.44 83.1485 1369.13 78.4097 1366.58 74.1511L1358.99 61.4965C1355.18 55.1462 1351.68 50.4092 1349.66 48.2661C1347.49 45.9592 1344.8 43.1998 1340.34 43.1998C1336.73 43.1998 1333.56 45.7054 1330.99 49.574L1323.21 44.9566Z" fill="url(#paint3_linear_1462_14448)"/>
<path d="M1340.37 43.198C1336.77 43.198 1333.6 45.7035 1331.04 49.5722C1327.42 55.0395 1325.2 63.1815 1325.2 71.0017C1325.2 74.2265 1325.19 76.6529 1326.12 78.1503L1319.05 83.3251C1317.06 80.0028 1316 75.7589 1316 70.792C1316 61.7595 1318.49 52.2286 1323.21 44.9566C1327.39 38.5089 1333.49 34 1340.41 34L1340.37 43.198Z" fill="url(#paint4_linear_1462_14448)"/>
<path opacity="0.05" d="M1354.02 53.8125L1353.47 54.6403L1352.94 55.4865C1354.25 57.3813 1355.74 59.6624 1357.3 62.2746L1357.69 61.594C1357.72 61.5204 1357.78 61.4284 1357.83 61.3548C1358 61.0421 1358.18 60.7294 1358.35 60.4166C1356.82 57.9148 1355.35 55.6889 1354.02 53.8125ZM1360.04 45.056C1359.84 45.3135 1359.65 45.5711 1359.47 45.8286C1360.81 47.5027 1362.17 49.3974 1363.61 51.5314C1363.79 51.237 1363.98 50.9611 1364.16 50.6852C1364.23 50.5748 1364.29 50.4828 1364.36 50.3908C1364.47 50.2069 1364.6 50.0413 1364.71 49.8757C1363.31 47.8154 1361.95 45.9574 1360.61 44.3018C1360.43 44.5409 1360.22 44.7984 1360.04 45.056Z" fill="#000008"/>
<path opacity="0.07" d="M1354.02 53.8126L1353.47 54.6405C1354.78 56.5168 1356.25 58.7612 1357.83 61.355C1358 61.0423 1358.18 60.7295 1358.35 60.4168C1356.82 57.9149 1355.35 55.689 1354.02 53.8126ZM1359.47 45.8288C1360.81 47.5028 1362.17 49.3976 1363.61 51.5315C1363.79 51.2372 1363.98 50.9613 1364.16 50.6853C1362.74 48.5882 1361.36 46.7118 1360.04 45.0562C1359.84 45.3137 1359.65 45.5712 1359.47 45.8288Z" fill="#000008"/>
<path fill-rule="evenodd" clip-rule="evenodd" d="M206 22C183.347 22 165 40.3528 165 63.0118C165 81.1595 176.736 96.4876 193.034 101.922C195.084 102.281 195.852 101.05 195.852 99.9736C195.852 98.9996 195.801 95.7699 195.801 92.3352C185.5 94.232 182.835 89.8232 182.015 87.5163C181.554 86.3372 179.555 82.6974 177.812 81.7234C176.377 80.9544 174.327 79.0576 177.761 79.0063C180.99 78.9551 183.296 81.9797 184.065 83.21C187.755 89.4131 193.649 87.6701 196.006 86.5935C196.365 83.9277 197.441 82.1335 198.62 81.1082C189.497 80.0829 179.965 76.5456 179.965 60.8586C179.965 56.3986 181.554 52.7075 184.168 49.8367C183.758 48.8114 182.322 44.6077 184.577 38.9686C184.577 38.9686 188.011 37.8921 195.852 43.1723C199.132 42.2496 202.618 41.7882 206.103 41.7882C209.588 41.7882 213.073 42.2496 216.353 43.1723C224.194 37.8408 227.628 38.9686 227.628 38.9686C229.883 44.6077 228.448 48.8114 228.038 49.8367C230.651 52.7075 232.24 56.3473 232.24 60.8586C232.24 76.5969 222.656 80.0829 213.534 81.1082C215.02 82.3898 216.301 84.8505 216.301 88.6954C216.301 94.1807 216.25 98.5894 216.25 99.9736C216.25 101.05 217.019 102.332 219.069 101.922C235.264 96.4876 247 81.1082 247 63.0118C247 40.3528 228.653 22 206 22Z" fill="#1B1F23"/>
<path d="M72.6808 66.8296C72.5585 61.5302 68.1944 57.3159 62.8939 57.3786H37.6592V76.2807H54.0026V92.1763C53.8632 94.6906 54.7521 97.1536 56.4651 98.9993C58.1782 100.845 60.5681 101.915 63.0858 101.963C65.656 101.938 68.1109 100.892 69.9103 99.057C71.7098 97.2216 72.7063 94.7465 72.6808 92.1763V66.8296Z" fill="#B366F6"/>
<path d="M37.547 76.4885C42.8196 76.4885 47.094 72.2142 47.094 66.9415C47.094 61.6689 42.8196 57.3945 37.547 57.3945C32.2743 57.3945 28 61.6689 28 66.9415C28 72.2142 32.2743 76.4885 37.547 76.4885Z" fill="#8430CE"/>
<path d="M95.9805 41.499C95.9279 36.2374 91.6475 32 86.3856 32H60.5751C55.6717 32.4922 51.9385 36.6189 51.9385 41.547C51.9385 46.475 55.6717 50.6018 60.5751 51.094H77.1104V66.9736C76.9678 70.44 78.7357 73.7059 81.7162 75.4815C84.6966 77.2572 88.4103 77.2572 91.3908 75.4815C94.3712 73.7059 96.1392 70.44 95.9965 66.9736L95.9805 41.499Z" fill="#C58AF8"/>
<path d="M1516.55 28H1506.8L1515.46 41.6193L1497.15 28H1487.4L1496.06 45.8452L1477.75 28H1468L1476.52 51.0393L1468 96H1477.75L1496.06 47.7915L1487.4 96H1497.15L1515.46 43.5656L1506.8 96H1516.55L1535 38.4028L1516.55 28Z" fill="#050038"/>
<defs>
<filter id="filter0_dd_1462_14448" x="893.847" y="22.6729" width="73.3583" height="83.9449" filterUnits="userSpaceOnUse" color-interpolation-filters="sRGB">
<feFlood flood-opacity="0" result="BackgroundImageFix"/>
<feColorMatrix in="SourceAlpha" type="matrix" values="0 0 0 0 0 0 0 0 0 0 0 0 0 0 0 0 0 0 127 0" result="hardAlpha"/>
<feOffset dx="2.32713" dy="2.32713"/>
<feGaussianBlur stdDeviation="1.93927"/>
<feComposite in2="hardAlpha" operator="out"/>
<feColorMatrix type="matrix" values="0 0 0 0 0 0 0 0 0 0 0 0 0 0 0 0 0 0 0.25 0"/>
<feBlend mode="normal" in2="BackgroundImageFix" result="effect1_dropShadow_1462_14448"/>
<feColorMatrix in="SourceAlpha" type="matrix" values="0 0 0 0 0 0 0 0 0 0 0 0 0 0 0 0 0 0 127 0" result="hardAlpha"/>
<feOffset dy="3.10284"/>
<feGaussianBlur stdDeviation="2.71498"/>
<feComposite in2="hardAlpha" operator="out"/>
<feColorMatrix type="matrix" values="0 0 0 0 0 0 0 0 0 0 0 0 0 0 0 0 0 0 0.15 0"/>
<feBlend mode="normal" in2="effect1_dropShadow_1462_14448" result="effect2_dropShadow_1462_14448"/>
<feBlend mode="normal" in="SourceGraphic" in2="effect2_dropShadow_1462_14448" result="shape"/>
</filter>
<filter id="filter1_dd_1462_14448" x="875.57" y="38.6592" width="52.7489" height="51.9732" filterUnits="userSpaceOnUse" color-interpolation-filters="sRGB">
<feFlood flood-opacity="0" result="BackgroundImageFix"/>
<feColorMatrix in="SourceAlpha" type="matrix" values="0 0 0 0 0 0 0 0 0 0 0 0 0 0 0 0 0 0 127 0" result="hardAlpha"/>
<feOffset dx="2.32713" dy="2.32713"/>
<feGaussianBlur stdDeviation="1.93927"/>
<feComposite in2="hardAlpha" operator="out"/>
<feColorMatrix type="matrix" values="0 0 0 0 0 0 0 0 0 0 0 0 0 0 0 0 0 0 0.25 0"/>
<feBlend mode="normal" in2="BackgroundImageFix" result="effect1_dropShadow_1462_14448"/>
<feColorMatrix in="SourceAlpha" type="matrix" values="0 0 0 0 0 0 0 0 0 0 0 0 0 0 0 0 0 0 127 0" result="hardAlpha"/>
<feOffset dy="3.10284"/>
<feGaussianBlur stdDeviation="2.71498"/>
<feComposite in2="hardAlpha" operator="out"/>
<feColorMatrix type="matrix" values="0 0 0 0 0 0 0 0 0 0 0 0 0 0 0 0 0 0 0.15 0"/>
<feBlend mode="normal" in2="effect1_dropShadow_1462_14448" result="effect2_dropShadow_1462_14448"/>
<feBlend mode="normal" in="SourceGraphic" in2="effect2_dropShadow_1462_14448" result="shape"/>
</filter>
<linearGradient id="paint0_linear_1462_14448" x1="888.147" y1="38.3012" x2="914.974" y2="84.7596" gradientUnits="userSpaceOnUse">
<stop stop-color="white" stop-opacity="0.5"/>
<stop offset="1" stop-opacity="0.7"/>
</linearGradient>
<linearGradient id="paint1_linear_1462_14448" x1="317.72" y1="29.1876" x2="357.527" y2="68.5976" gradientUnits="userSpaceOnUse">
<stop stop-color="#387EB8"/>
<stop offset="1" stop-color="#366994"/>
</linearGradient>
<linearGradient id="paint2_linear_1462_14448" x1="342.154" y1="54.4944" x2="384.902" y2="94.906" gradientUnits="userSpaceOnUse">
<stop stop-color="#FFE052"/>
<stop offset="1" stop-color="#FFC331"/>
</linearGradient>
<linearGradient id="paint3_linear_1462_14448" x1="1391.98" y1="62.0539" x2="1339.06" y2="62.0539" gradientUnits="userSpaceOnUse">
<stop stop-color="#0081FB"/>
<stop offset="0.995" stop-color="#0064E1"/>
</linearGradient>
<linearGradient id="paint4_linear_1462_14448" x1="1328.21" y1="76.9914" x2="1328.21" y2="40.4607" gradientUnits="userSpaceOnUse">
<stop stop-color="#0081FB"/>
<stop offset="0.995" stop-color="#0064E1"/>
</linearGradient>
</defs>
</svg>
