<svg width="166" height="52" viewBox="0 0 166 52" fill="none" xmlns="http://www.w3.org/2000/svg">
<path d="M160.664 0H5.33591C2.38897 0 0 2.42463 0 5.41555V46.5846C0 49.5755 2.38897 52.0001 5.33591 52.0001H160.664C163.611 52.0001 166 49.5755 166 46.5846V5.41555C166 2.42463 163.611 0 160.664 0Z" fill="#222222"/>
<path d="M51.4798 38.0347H53.7347L54.9611 34.593H60.0049L61.2313 38.0347H63.7433L58.917 24.4657H56.4248L51.4798 38.0347ZM57.4335 27.3536H57.4929L59.3917 32.7733H55.5347L57.4335 27.3536ZM65.4323 40.9819H67.707V37.6391C68.2015 37.916 68.9531 38.2127 70.0806 38.2127C72.8498 38.2127 74.6893 36.7095 74.6893 32.892V32.6348C74.6893 28.8964 72.7707 27.6701 70.6542 27.6701C69.3685 27.6701 68.3202 28.1052 67.707 28.7184H67.6279V27.8481H65.4323V40.9819ZM69.7641 36.4919C68.874 36.4919 68.1026 36.215 67.707 35.8985V30.1228C68.1026 29.8459 68.874 29.5294 69.8432 29.5294C71.4454 29.5294 72.3157 30.2612 72.3157 32.7733V33.1887C72.3157 35.6611 71.3861 36.4919 69.7641 36.4919ZM76.8482 40.9819H79.1229V37.6391C79.6174 37.916 80.3691 38.2127 81.4965 38.2127C84.2657 38.2127 86.1052 36.7095 86.1052 32.892V32.6348C86.1052 28.8964 84.1866 27.6701 82.0701 27.6701C80.7844 27.6701 79.7361 28.1052 79.1229 28.7184H79.0438V27.8481H76.8482V40.9819ZM81.18 36.4919C80.2899 36.4919 79.5185 36.215 79.1229 35.8985V30.1228C79.5185 29.8459 80.2899 29.5294 81.2592 29.5294C82.8613 29.5294 83.7316 30.2612 83.7316 32.7733V33.1887C83.7316 35.6611 82.802 36.4919 81.18 36.4919ZM96.9415 38.2721C100.225 38.2721 101.788 36.6699 101.788 34.0985C101.788 31.6854 100.502 30.7953 98.3657 30.1821L97.0997 29.7865C95.7547 29.4107 95.3591 28.9558 95.3591 27.8877C95.3591 26.7998 96.1503 26.2064 97.5745 26.2064C99.0777 26.2064 100.185 26.5228 101.036 26.8789V24.98C100.284 24.5844 99.3151 24.2482 97.5349 24.2482C94.469 24.2482 92.9855 25.8108 92.9855 28.1052C92.9855 30.3997 94.1525 31.4283 96.0712 31.9623L97.3569 32.3183C98.8404 32.7733 99.3349 33.2084 99.3349 34.3359C99.3349 35.5622 98.5635 36.3139 96.7437 36.3139C95.2602 36.3139 93.9745 35.9578 92.8866 35.4831V37.4018C93.8163 37.8963 95.1613 38.2721 96.9415 38.2721ZM107.469 38.1534C108.418 38.1534 108.972 37.9358 109.368 37.738V36.215C109.012 36.3139 108.596 36.3732 108.201 36.3732C107.133 36.3732 106.816 36.0567 106.816 35.2062V29.6283H109.249V27.8481H106.816V25.4547H104.581V27.8481H103.157V29.6283H104.581V35.5227C104.581 37.4413 105.708 38.1534 107.469 38.1534ZM115.696 38.2127C118.545 38.2127 120.523 36.3337 120.523 33.0502V32.7733C120.523 29.5294 118.762 27.6701 115.716 27.6701C112.848 27.6701 110.87 29.5689 110.87 32.8326V33.1491C110.87 36.3337 112.591 38.2127 115.696 38.2127ZM115.736 36.4919C114.312 36.4919 113.204 35.7798 113.204 33.1491V32.6744C113.204 30.4788 114.114 29.3909 115.677 29.3909C117.061 29.3909 118.149 30.103 118.149 32.7535V33.248C118.149 35.4436 117.259 36.4919 115.736 36.4919ZM122.628 38.0347H124.903V30.459C125.555 30.0437 126.465 29.7865 127.375 29.7865C127.612 29.7865 127.949 29.8063 128.206 29.8459V27.8283C128.107 27.7888 127.85 27.769 127.573 27.769C126.505 27.769 125.456 28.303 124.903 29.0349H124.823V27.8481H122.628V38.0347ZM134.554 38.2127C136.275 38.2127 137.462 37.7183 138.154 37.2633V35.6809C137.264 36.1359 136.315 36.4326 135.009 36.4326C133.071 36.4326 131.983 35.6809 131.844 33.5645H138.49V32.615C138.49 29.3711 137.185 27.6899 134.178 27.6899C131.587 27.6899 129.51 29.3711 129.51 32.7931V33.07C129.51 36.2941 131.172 38.2127 134.554 38.2127ZM134.139 29.3711C135.464 29.3711 136.176 30.0832 136.176 32.0019H131.844C132.003 29.925 133.09 29.3711 134.139 29.3711Z" fill="white"/>
<path d="M53.2498 19.6802H55.4749C57.9002 19.6802 58.9905 18.3118 58.9905 15.9643V15.7529C58.9905 13.372 57.7333 12.215 55.4637 12.215H53.2498V19.6802ZM54.1287 18.9237V12.9715H55.3747C57.0881 12.9715 58.0337 13.6835 58.0337 15.7529V16.0867C58.0337 18.0781 57.2549 18.9237 55.4971 18.9237H54.1287ZM62.4883 19.7803C63.9791 19.7803 65.0026 18.7345 65.0026 16.9767V16.8209C65.0026 15.0742 64.057 14.0618 62.4994 14.0618C61.0086 14.0618 59.9962 15.1076 59.9962 16.8543V17.0212C59.9962 18.779 60.9307 19.7803 62.4883 19.7803ZM62.5105 19.0794C61.5871 19.0794 60.864 18.5788 60.864 17.0434V16.7653C60.864 15.4747 61.487 14.7627 62.4883 14.7627C63.3894 14.7627 64.1349 15.2634 64.1349 16.7987V17.0768C64.1349 18.3785 63.5118 19.0794 62.5105 19.0794ZM67.3521 19.6802H68.2199L69.5216 15.4747H69.555L70.8344 19.6802H71.6911L73.2598 14.1619H72.4476L71.3128 18.5788H71.2683L69.9332 14.1619H69.199L67.875 18.5788H67.8305L66.6957 14.1619H65.7834L67.3521 19.6802ZM74.3783 19.6802H75.2239V15.1966C75.68 14.9852 76.2585 14.7961 76.7814 14.7961C77.6603 14.7961 77.894 15.0742 77.894 15.7418V19.6802H78.7395V15.5638C78.7395 14.4957 78.2166 14.0618 77.1374 14.0618C76.4588 14.0618 75.7468 14.3066 75.235 14.6403H75.1905V14.1619H74.3783V19.6802ZM80.3653 19.6802H81.222V11.7143H80.3653V19.6802ZM85.0109 19.7803C86.5017 19.7803 87.5253 18.7345 87.5253 16.9767V16.8209C87.5253 15.0742 86.5796 14.0618 85.022 14.0618C83.5312 14.0618 82.5188 15.1076 82.5188 16.8543V17.0212C82.5188 18.779 83.4533 19.7803 85.0109 19.7803ZM85.0332 19.0794C84.1097 19.0794 83.3866 18.5788 83.3866 17.0434V16.7653C83.3866 15.4747 84.0096 14.7627 85.0109 14.7627C85.9121 14.7627 86.6575 15.2634 86.6575 16.7987V17.0768C86.6575 18.3785 86.0345 19.0794 85.0332 19.0794ZM90.1529 19.7803C90.8983 19.7803 91.3656 19.5133 91.6215 19.2018H91.6771L91.7661 19.6802H92.4559V15.6861C92.4559 14.5625 91.7772 14.0618 90.5645 14.0618C89.9304 14.0618 89.3964 14.1619 88.918 14.3622V14.9741C89.2629 14.874 89.6968 14.7961 90.2308 14.7961C91.2209 14.7961 91.5992 15.0186 91.5992 15.8753V16.4538L90.1084 16.6318C89.0515 16.7542 88.4284 17.266 88.4284 18.2339C88.4284 19.2685 89.1516 19.7803 90.1529 19.7803ZM90.3643 19.1128C89.7301 19.1128 89.3185 18.8124 89.3185 18.2116C89.3185 17.5775 89.6522 17.2993 90.3309 17.2326L91.5992 17.0879V18.7123C91.3656 18.9459 90.8761 19.1128 90.3643 19.1128ZM96.0236 19.7803C96.769 19.7803 97.303 19.5467 97.6368 19.224H97.6813L97.7814 19.6802H98.4935V11.7143H97.6368V14.429C97.3364 14.2509 96.8691 14.0618 96.1905 14.0618C94.7664 14.0618 93.7317 14.9296 93.7317 16.9322V17.0768C93.7317 19.1128 94.9222 19.7803 96.0236 19.7803ZM96.2795 19.0794C95.2893 19.0794 94.6218 18.5899 94.6218 17.0434V16.8209C94.6218 15.3301 95.2559 14.785 96.3017 14.785C96.8691 14.785 97.3809 14.9407 97.6368 15.141V18.6121C97.3587 18.8347 96.9248 19.0794 96.2795 19.0794ZM105.187 19.7803C106.678 19.7803 107.701 18.7345 107.701 16.9767V16.8209C107.701 15.0742 106.755 14.0618 105.198 14.0618C103.707 14.0618 102.695 15.1076 102.695 16.8543V17.0212C102.695 18.779 103.629 19.7803 105.187 19.7803ZM105.209 19.0794C104.286 19.0794 103.562 18.5788 103.562 17.0434V16.7653C103.562 15.4747 104.185 14.7627 105.187 14.7627C106.088 14.7627 106.833 15.2634 106.833 16.7987V17.0768C106.833 18.3785 106.21 19.0794 105.209 19.0794ZM108.983 19.6802H109.828V15.1966C110.284 14.9852 110.863 14.7961 111.386 14.7961C112.265 14.7961 112.498 15.0742 112.498 15.7418V19.6802H113.344V15.5638C113.344 14.4957 112.821 14.0618 111.742 14.0618C111.063 14.0618 110.351 14.3066 109.839 14.6403H109.795V14.1619H108.983V19.6802ZM119.617 19.7469C120.095 19.7469 120.329 19.6246 120.551 19.5244V18.9459C120.329 19.0127 120.073 19.046 119.839 19.046C119.205 19.046 119.027 18.8347 119.027 18.3006V14.874H120.44V14.1731H119.027V12.8603H118.181V14.1731H117.392V14.874H118.181V18.4341C118.181 19.3687 118.749 19.7469 119.617 19.7469ZM121.76 19.6802H122.605V15.2077C123.061 14.9852 123.64 14.7961 124.163 14.7961C125.042 14.7961 125.275 15.0742 125.275 15.7418V19.6802H126.121V15.5749C126.121 14.5068 125.598 14.0618 124.519 14.0618C123.84 14.0618 123.139 14.2954 122.661 14.6403H122.605V11.7143H121.76V19.6802ZM129.994 19.7803C130.884 19.7803 131.518 19.5022 131.852 19.2685V18.6344C131.351 18.868 130.862 19.046 130.127 19.046C128.948 19.046 128.292 18.512 128.247 17.1324H132.008V16.6541C132.008 14.9407 131.296 14.0618 129.782 14.0618C128.514 14.0618 127.379 14.9185 127.379 16.8432V16.9989C127.379 18.7234 128.258 19.7803 129.994 19.7803ZM129.76 14.7516C130.661 14.7516 131.118 15.2522 131.118 16.4538H128.247C128.336 15.1521 129.07 14.7516 129.76 14.7516Z" fill="white"/>
<path d="M36.6049 21.3469C36.5516 21.3896 36.5089 21.411 36.4662 21.4431C35.303 22.2348 34.3959 23.251 33.8409 24.5454C33.4247 25.4975 33.2753 26.5031 33.3394 27.5407C33.3927 28.4714 33.6168 29.3593 34.0437 30.183C34.7587 31.5737 35.8579 32.5686 37.2559 33.2425C37.2986 33.2639 37.3306 33.2746 37.3733 33.296C37.3733 33.296 37.3947 33.3067 37.416 33.3174C37.4053 33.3602 37.3947 33.4244 37.3733 33.4672C36.8931 34.922 36.2208 36.2806 35.367 37.5536C34.9188 38.2169 34.4599 38.8801 33.9477 39.4899C33.6168 39.875 33.2647 40.2387 32.8698 40.549C31.824 41.3727 30.6607 41.5759 29.4015 41.2122C29.06 41.1159 28.7291 40.9769 28.3983 40.8378C27.9181 40.6452 27.4485 40.4313 26.947 40.3136C26.328 40.1639 25.6877 40.1425 25.058 40.1959C24.375 40.2494 23.7241 40.4634 23.0944 40.7201C22.6676 40.8913 22.2514 41.0731 21.8138 41.2122C21.3336 41.3727 20.8427 41.4369 20.3411 41.4048C19.8609 41.3727 19.4127 41.2122 18.9965 40.9769C18.5055 40.6987 18.0787 40.3243 17.6838 39.9178C17.1396 39.3508 16.67 38.7197 16.2111 38.0778C14.6744 35.9704 13.6605 33.6169 13.0629 31.0816C12.7428 29.6802 12.5827 28.2575 12.6467 26.8133C12.7108 25.3584 13.0096 23.9464 13.6712 22.6413C14.525 20.9403 15.8056 19.6887 17.5664 18.9399C18.4842 18.5441 19.4553 18.3622 20.4585 18.3836C21.0028 18.3943 21.5363 18.512 22.0486 18.6832C22.5929 18.865 23.1158 19.079 23.66 19.2715C24.0229 19.3999 24.3857 19.5283 24.7592 19.6352C25.1114 19.7422 25.4636 19.7208 25.8051 19.6139C26.296 19.4534 26.7762 19.2715 27.2564 19.0897C27.726 18.9185 28.1849 18.7474 28.6544 18.5976C29.4975 18.3301 30.3619 18.2339 31.2584 18.3088C32.1655 18.3943 33.0299 18.5976 33.8623 18.972C34.9508 19.4748 35.8472 20.2022 36.5516 21.1757C36.5836 21.2185 36.6049 21.2613 36.6476 21.3148L36.6049 21.3469Z" fill="white"/>
<path d="M31.0547 10.96C31.108 11.2916 31.108 11.6232 31.076 11.9441C30.9052 13.7948 30.1155 15.3353 28.7389 16.5655C28.0559 17.1859 27.2555 17.6138 26.3591 17.8492C25.9535 17.9562 25.5373 17.999 25.1211 17.9883C25.0784 17.9883 25.0251 17.9883 24.9717 17.9776C24.9717 17.9241 24.9504 17.8599 24.9504 17.8064C24.8863 17.1004 24.9717 16.405 25.1958 15.7418C26.0176 13.3241 27.661 11.7837 30.1049 11.099C30.3717 11.0241 30.6491 11.0028 30.9159 10.96C30.9586 10.96 31.0013 10.96 31.0547 10.96Z" fill="white"/>
</svg>
