<svg width="160" height="160" viewBox="0 0 160 160" fill="none" xmlns="http://www.w3.org/2000/svg">
<g clip-path="url(#clip0_1445_13013)">
<rect width="160" height="160" rx="43" fill="#C6E7FF"/>
<path d="M160 95.3842V116.979C160 142.412 143.607 160 113.627 160H46.2892C25.7985 160 11.0131 151.442 4.10254 136.246L4.98645 135.606L44.5213 109.213C50.9498 104.894 60.0299 105.374 65.7352 110.332L68.4673 112.572C74.735 117.931 84.8598 117.931 91.1275 112.572L124.555 84.019C130.823 78.6603 140.948 78.6603 147.216 84.019L160 95.3842Z" fill="#61B3FF"/>
<path d="M55.8972 67.6921C60.9295 67.6921 65.7557 65.639 69.3141 61.9845C72.8725 58.3299 74.8716 53.3733 74.8716 48.205C74.8716 43.0366 72.8725 38.08 69.3141 34.4254C65.7557 30.7709 60.9295 28.7178 55.8972 28.7178C50.8649 28.7178 46.0387 30.7709 42.4803 34.4254C38.9219 38.08 36.9229 43.0366 36.9229 48.205C36.9229 53.3733 38.9219 58.3299 42.4803 61.9845C46.0387 65.639 50.8649 67.6921 55.8972 67.6921Z" fill="#61B3FF"/>
</g>
<defs>
<clipPath id="clip0_1445_13013">
<rect width="160" height="160" fill="white"/>
</clipPath>
</defs>
</svg>
