<svg width="160" height="160" viewBox="0 0 160 160" fill="none" xmlns="http://www.w3.org/2000/svg">
<g clip-path="url(#clip0_1445_13007)">
<circle cx="80" cy="80" r="80" fill="#61B3FF"/>
<mask id="mask0_1445_13007" style="mask-type:alpha" maskUnits="userSpaceOnUse" x="0" y="0" width="160" height="160">
<circle cx="80" cy="80" r="80" fill="#61A2FF"/>
</mask>
<g mask="url(#mask0_1445_13007)">
<path fill-rule="evenodd" clip-rule="evenodd" d="M60.5567 156.721C56.9144 146.054 54.3732 135.048 52.3402 124.043C52.3787 124.047 52.4173 124.051 52.4558 124.055C52.455 124.051 52.4543 124.047 52.4535 124.043C53.1822 124.125 53.9112 124.205 54.6405 124.282C72.6004 126.071 90.6319 125.991 108.585 124.043C108.585 124.047 108.584 124.051 108.583 124.055C108.622 124.051 108.66 124.047 108.699 124.043C106.666 135.133 104.04 146.054 100.482 156.721C100.369 157.173 100.332 157.549 100.294 157.925C100.275 158.113 100.256 158.302 100.228 158.499C93.9598 160.108 87.3526 161.039 80.5761 161.039C80.5446 161.039 80.5131 161.039 80.4815 161.039C80.4753 161.039 80.4691 161.039 80.4628 161.039L80.4589 161.039C77.6503 161.034 74.8984 160.859 72.1915 160.55C68.3583 160.131 64.5555 159.446 60.8109 158.499C60.7856 158.297 60.7679 158.11 60.7509 157.931C60.7111 157.511 60.6756 157.137 60.5567 156.721ZM156.716 100.406C146.043 104.046 135.116 106.586 124.019 108.618C124.021 108.595 124.024 108.572 124.026 108.549L124.022 108.55C124.052 108.284 124.082 108.018 124.112 107.752C126.051 89.3286 126.021 70.8253 124.019 52.4041C135.116 54.4359 146.043 57.0604 156.716 60.6161C157.122 60.7174 157.467 60.7278 157.805 60.7379C158.032 60.7447 158.257 60.7514 158.495 60.7854C159.641 65.3073 160.443 69.9152 160.81 74.67C160.961 76.5802 161.039 78.5047 161.039 80.4433C161.039 83.5911 160.825 86.6674 160.446 89.6888C160.158 91.9844 159.775 94.2499 159.319 96.4782C159.067 97.7155 158.792 98.9454 158.498 100.169C158.301 100.194 158.118 100.204 157.944 100.21C157.938 100.211 157.932 100.211 157.926 100.212C157.506 100.252 157.132 100.287 156.716 100.406ZM0.591014 71.369C0.213288 74.3843 2.74765e-07 77.4545 0 80.5956C-1.6949e-07 82.5333 0.0782097 84.4567 0.22845 86.366C0.595342 91.1219 1.39793 95.7307 2.54437 100.254C2.78228 100.288 3.00654 100.294 3.23359 100.301C3.57243 100.311 3.91745 100.322 4.32321 100.423C14.9962 103.979 25.9234 106.603 37.02 108.635C35.0184 90.2138 34.9875 71.7107 36.9273 53.2872C36.9567 53.021 36.9865 52.7549 37.0168 52.4888L37.0125 52.4895C37.015 52.4667 37.0175 52.4439 37.02 52.4211C25.9234 54.4529 14.9962 56.9927 4.32321 60.633C3.90721 60.7518 3.5329 60.7873 3.11253 60.8271C3.10687 60.8276 3.1012 60.8282 3.09552 60.8287C2.92091 60.8351 2.73821 60.8454 2.5412 60.87C2.24785 62.0916 1.97332 63.3195 1.72121 64.5548C1.26293 66.7911 0.878925 69.065 0.591014 71.369ZM108.583 36.9837C108.584 36.9878 108.585 36.992 108.585 36.9961C107.857 36.9135 107.127 36.8337 106.398 36.7567C88.4382 34.9678 70.4069 35.0476 52.4535 36.9962C52.4543 36.992 52.4551 36.9877 52.4559 36.9835C52.4173 36.9877 52.3788 36.9919 52.3402 36.9961C54.3732 25.9057 56.9991 14.9847 60.5568 4.31764C60.6697 3.86612 60.7074 3.48986 60.745 3.11359C60.7638 2.92546 60.7827 2.73733 60.8109 2.53979C67.0792 0.931267 73.6863 -5.92092e-07 80.4628 0C80.4958 2.88306e-09 80.5288 2.34895e-05 80.5618 7.04035e-05C80.5666 6.94988e-05 80.5713 6.90463e-05 80.5761 6.90463e-05L80.5791 9.72871e-05C83.388 0.00479508 86.1402 0.179467 88.8474 0.489201C92.6806 0.907965 96.4834 1.59271 100.228 2.53985C100.253 2.74197 100.271 2.92901 100.288 3.10772C100.328 3.52784 100.363 3.90193 100.482 4.31769C104.125 14.9848 106.666 25.9905 108.699 36.9962C108.66 36.992 108.622 36.9878 108.583 36.9837Z" fill="#C6E7FF"/>
<path d="M37.7727 38.7909C27.4385 40.484 17.1042 43.0238 6.93945 46.0716C14.7325 29.9016 27.6926 16.6101 43.6174 8.73682C43.7445 8.73682 43.8927 8.77915 44.041 8.82148C44.1892 8.86381 44.3374 8.90613 44.4645 8.90613C41.5845 18.7266 39.4668 28.7164 37.7727 38.7909Z" fill="#C6E7FF"/>
<path d="M153.155 46.0799C146.651 44.0588 140.042 42.3197 133.394 40.8852C129.655 40.1085 125.895 39.4104 122.124 38.7822C120.947 31.4137 119.453 24.0452 117.608 16.7761C116.826 13.8565 115.995 10.9518 115.122 8.06787C131.787 16.0036 145.215 29.4244 153.155 46.0799Z" fill="#C6E7FF"/>
<path d="M122.228 122.247C132.562 120.554 142.896 118.015 153.061 114.967C145.268 131.137 132.308 144.428 116.383 152.302C116.256 152.302 116.108 152.259 115.96 152.217L115.96 152.217C115.811 152.175 115.663 152.132 115.536 152.132C118.416 142.312 120.534 132.322 122.228 122.247Z" fill="#C6E7FF"/>
<path d="M38.9576 122.247C28.6234 120.554 18.2892 118.015 8.12436 114.967C15.9174 131.137 28.8775 144.428 44.8023 152.302C44.9294 152.302 45.0776 152.259 45.2259 152.217L45.226 152.217C45.3742 152.175 45.5224 152.132 45.6494 152.132C42.7694 142.312 40.6517 132.322 38.9576 122.247Z" fill="#C6E7FF"/>
<path d="M110.517 50.3555L110.531 50.4635L110.749 50.491C113.29 70.5553 113.29 90.7042 110.749 110.684C90.6735 113.224 70.5133 113.224 50.5226 110.684L50.5089 110.576L50.2907 110.548C47.7495 90.484 47.7495 70.3351 50.2907 50.3555C70.3661 47.8157 90.5263 47.8157 110.517 50.3555Z" fill="#C6E7FF"/>
</g>
</g>
<defs>
<clipPath id="clip0_1445_13007">
<rect width="160" height="160" fill="white"/>
</clipPath>
</defs>
</svg>
