<svg width="488" height="488" viewBox="0 0 488 488" fill="none" xmlns="http://www.w3.org/2000/svg">
<g filter="url(#filter0_d_1064_6525)">
<g filter="url(#filter1_d_1064_6525)">
<g filter="url(#filter2_d_1064_6525)">
<path d="M4 275.485C4 263.452 13.7547 253.697 25.7877 253.697H462.212C474.245 253.697 484 263.452 484 275.485V462.213C484 474.246 474.245 484 462.212 484H25.7877C13.7547 484 4 474.246 4 462.213V275.485Z" fill="white"/>
<path d="M25.7877 254.197H462.212C473.969 254.197 483.5 263.728 483.5 275.485V462.213C483.5 473.969 473.969 483.5 462.212 483.5H25.7877C14.0308 483.5 4.5 473.969 4.5 462.213V275.485C4.5 263.728 14.0308 254.197 25.7877 254.197Z" stroke="#EAEEF5"/>
</g>
<g filter="url(#filter3_d_1064_6525)">
<path fill-rule="evenodd" clip-rule="evenodd" d="M42.5763 286.434L42.5763 295.097C42.5805 295.234 42.5569 295.37 42.5069 295.498C42.4568 295.625 42.3813 295.742 42.2849 295.84C42.1884 295.938 42.073 296.016 41.9454 296.069C41.8178 296.123 41.6807 296.15 41.5422 296.15C41.4036 296.15 41.2665 296.123 41.1389 296.069C41.0113 296.016 40.8959 295.938 40.7995 295.84C40.703 295.742 40.6275 295.625 40.5775 295.498C40.5274 295.37 40.5038 295.234 40.5081 295.097L40.5081 286.434C40.5163 286.169 40.6289 285.917 40.8219 285.732C41.015 285.547 41.2733 285.444 41.5422 285.444C41.8111 285.444 42.0694 285.547 42.2624 285.732C42.4555 285.917 42.568 286.169 42.5763 286.434ZM30.8154 290.758C30.8154 296.606 35.6179 301.347 41.5417 301.347C47.4665 301.347 52.2679 296.606 52.2679 290.758C52.2679 284.91 47.4665 280.169 41.5417 280.169C35.6179 280.169 30.8154 284.91 30.8154 290.758Z" fill="#F53333"/>
<path d="M41.541 295.391L41.541 286.126" stroke="white" stroke-width="2.17877" stroke-linecap="round"/>
<g filter="url(#filter4_d_1064_6525)">
<path d="M63.0948 294.045C65.6481 294.045 67.546 292.538 67.5375 290.487C67.546 288.93 66.5672 287.798 64.8821 287.559V287.474C66.2098 287.142 67.0779 286.138 67.0609 284.734C67.0779 282.913 65.5544 281.381 63.1289 281.381C60.8309 281.381 58.9756 282.742 58.9245 284.751H60.7288C60.7714 283.636 61.8778 282.947 63.1118 282.947C64.414 282.947 65.2566 283.713 65.2566 284.836C65.2566 286.019 64.2778 286.802 62.8735 286.794H61.8182V288.325H62.8735C64.6353 288.334 65.6481 289.202 65.6481 290.419C65.6481 291.619 64.5672 292.428 63.0778 292.428C61.699 292.428 60.6267 291.738 60.5586 290.657H58.6522C58.7288 292.674 60.5416 294.045 63.0948 294.045ZM81.5762 280.087H79.9592V287.27H76.9804V288.291H79.9592V289.023H81.5762V280.087ZM68.8611 285.704L69.0483 286.862C70.2398 286.87 71.559 286.87 72.9292 286.828V289.057H74.5293V286.768C75.9846 286.691 77.4825 286.572 78.9209 286.368L78.8357 285.33C75.5421 285.679 71.8143 285.713 68.8611 285.704ZM70.0015 282.64C69.993 284.062 71.4994 284.921 73.8144 284.921C76.0868 284.921 77.6102 284.062 77.6272 282.64C77.6102 281.244 76.0868 280.342 73.8144 280.342C71.4994 280.342 69.993 281.244 70.0015 282.64ZM71.142 290.657H79.9762V291.747H71.21V295.168H82.0358V293.994H72.7931V292.819H81.5762V289.534H71.142V290.657ZM71.5164 282.64C71.5079 281.908 72.4101 281.432 73.8144 281.432C75.2016 281.432 76.0953 281.908 76.0953 282.64C76.0953 283.364 75.2016 283.832 73.8144 283.832C72.4101 283.832 71.5079 283.364 71.5164 282.64ZM88.8193 293.875H90.7768L96.2577 283.219V281.551H87.9682V283.151H94.3173V283.253L88.8193 293.875ZM101.769 280.581C99.4452 280.598 97.7601 282.002 97.7516 284.002C97.7601 286.011 99.4452 287.406 101.769 287.406C104.067 287.406 105.76 286.011 105.769 284.002C105.76 282.002 104.067 280.598 101.769 280.581ZM99.3346 284.002C99.3261 282.759 100.364 281.925 101.769 281.942C103.164 281.925 104.203 282.759 104.203 284.002C104.203 285.262 103.164 286.096 101.769 286.096C100.364 286.096 99.3261 285.262 99.3346 284.002ZM100.067 289.823H108.492V291.168H100.118V295.134H110.603V293.84H101.684V292.377H110.092V288.53H100.067V289.823ZM108.475 287.832H110.092V280.07H108.475V287.832ZM121.233 294.045C124.084 294.045 125.753 291.747 125.761 287.713C125.753 283.704 124.059 281.381 121.233 281.381C118.399 281.381 116.706 283.704 116.706 287.713C116.706 291.747 118.382 294.045 121.233 294.045ZM118.578 287.713C118.578 284.649 119.574 282.972 121.233 282.964C122.884 282.972 123.889 284.649 123.889 287.713C123.889 290.785 122.893 292.428 121.233 292.428C119.565 292.428 118.569 290.785 118.578 287.713ZM132.6 283.951V281.347H130.966V283.951C130.966 286.862 129.28 289.781 126.88 290.845L127.868 292.206C129.697 291.313 131.102 289.474 131.808 287.236C132.523 289.321 133.91 291.032 135.664 291.866L136.634 290.589C134.268 289.543 132.583 286.734 132.6 283.951ZM138.013 295.355H139.63V280.07H138.013V295.355ZM154.009 280.07H152.392V295.321H154.009V287.594H156.222V286.266H154.009V280.07ZM141.753 291.032L143.03 291.934C145.796 288.989 146.477 285.517 146.485 281.704H142.298V283.032H144.953C144.792 286.087 143.983 288.708 141.753 291.032ZM146.111 292.053L147.404 292.938C150.204 289.628 150.69 285.559 150.69 281.704H146.979V283.032H149.166C149.047 286.283 148.383 289.398 146.111 292.053ZM162.396 284.564V282.947H165.869V281.602H157.273V282.947H160.762V284.564C160.745 287.194 159.043 290.053 156.745 291.134L157.681 292.411C159.46 291.543 160.89 289.687 161.596 287.508C162.303 289.543 163.733 291.228 165.528 292.019L166.413 290.76C164.065 289.755 162.388 287.117 162.396 284.564ZM167.792 295.321H169.409V280.07H167.792V295.321Z" fill="#F53333"/>
</g>
</g>
<g filter="url(#filter5_d_1064_6525)">
<g filter="url(#filter6_d_1064_6525)">
<rect x="277.521" y="399.291" width="179.665" height="63.5319" rx="21.7877" fill="#F53333"/>
</g>
<g filter="url(#filter7_d_1064_6525)">
<path d="M344.024 420.251H341.845V435.74H344.024V427.859H346.305V426.038H344.024V420.251ZM332.296 432.149H339.837V421.476H337.675V425.255H334.458V421.476H332.296V432.149ZM334.458 430.396V426.94H337.675V430.396H334.458ZM360.871 432.234H354.829V429.902H359.595V428.132H350.505V426.395H359.237V421.255H348.309V422.991H357.093V424.693H348.326V429.902H352.667V432.234H346.692V434.021H360.871V432.234ZM374.617 421.629H371.11V420.165H368.949V421.629H365.425V423.349H374.617V421.629ZM366.174 426.702C366.174 428.404 367.774 429.553 370.021 429.561C372.276 429.553 373.834 428.404 373.834 426.702C373.834 425 372.276 423.851 370.021 423.842C367.774 423.851 366.174 425 366.174 426.702ZM367.28 432.353H375.536V435.74H377.715V430.617H367.28V432.353ZM368.302 426.702C368.293 425.902 368.983 425.476 370.021 425.476C371.068 425.476 371.774 425.902 371.774 426.702C371.774 427.493 371.068 427.902 370.021 427.893C368.983 427.902 368.293 427.493 368.302 426.702ZM375.536 429.97H377.715V426.038H379.808V424.268H377.715V420.251H375.536V429.97ZM384.111 429.544H381.966V435.57H392.656V429.544H390.494V430.855H384.111V429.544ZM380.315 428.761H394.443V427.008H380.315V428.761ZM381.013 424.625L381.796 426.327C384.434 425.987 386.375 424.88 387.379 423.383C388.375 424.88 390.315 425.987 392.979 426.327L393.745 424.625C390.281 424.234 388.502 422.48 388.502 420.931V420.404H386.273V420.931C386.255 422.523 384.468 424.208 381.013 424.625ZM384.111 433.868V432.506H390.494V433.868H384.111ZM407.426 420.251H405.282V435.74H407.426V428.098H409.707V426.31H407.426V420.251ZM395.12 424.302H404.226V422.566H400.805V420.489H398.626V422.566H395.12V424.302ZM395.749 428.864C395.741 431.025 397.426 432.549 399.716 432.557C401.971 432.549 403.665 431.025 403.665 428.864C403.665 426.702 401.971 425.161 399.716 425.17C397.426 425.161 395.741 426.702 395.749 428.864ZM397.826 428.864C397.826 427.672 398.618 426.94 399.716 426.923C400.796 426.94 401.588 427.672 401.588 428.864C401.588 430.064 400.796 430.778 399.716 430.77C398.618 430.778 397.826 430.064 397.826 428.864ZM423.116 420.251H420.92V435.74H423.116V420.251ZM410.146 431.349L411.286 433.085C416.818 430.472 418.461 426.566 418.469 421.868H410.98V423.57H416.256C415.908 427.008 414.146 429.459 410.146 431.349Z" fill="white"/>
</g>
</g>
<g filter="url(#filter8_d_1064_6525)">
<path d="M49.0924 330.998H31.3686V333.211H38.8582V338.892H41.5391V333.211H49.0924V330.998ZM33.6027 329.594H47.1988V327.445H36.2624V325.977H46.5817V323.892H36.2624V322.445H46.986V320.317H33.6027V329.594ZM65.6196 326.424H55.0236V322.721H65.4281V320.551H52.2363V328.551H65.6196V326.424ZM49.981 332.658H57.4492V338.871H60.1301V332.658H67.7047V330.509H49.981V332.658ZM86.2745 327.445H78.7424V326.19H84.0404V320.083H70.8061V326.19H76.0615V327.445H68.6146V329.637H86.2745V327.445ZM70.6572 332.637H81.4446V333.637H70.6784V338.764H84.6362V336.722H73.3381V335.552H84.1255V330.594H70.6572V332.637ZM73.4657 324.105V322.19H81.3382V324.105H73.4657ZM104.014 319.53H101.419V338.892H104.014V319.53ZM87.3971 327.913C87.3971 332.264 89.0461 334.956 91.6099 334.956C93.993 334.956 95.6207 332.647 95.8547 328.849H97.4186V337.998H99.9718V319.807H97.4186V326.7H95.8334C95.5356 323.083 93.9398 320.902 91.6099 320.913C89.0461 320.902 87.3971 323.583 87.3971 327.913ZM89.9078 327.913C89.8865 324.945 90.5248 323.466 91.6099 323.466C92.727 323.466 93.3866 324.945 93.3759 327.913C93.3866 330.892 92.727 332.36 91.6099 332.339C90.5248 332.36 89.8865 330.892 89.9078 327.913ZM113.159 323.913V321.019H110.414V323.913C110.392 327.551 108.882 331.286 105.563 332.786L107.265 334.998C109.478 333.913 110.967 331.828 111.797 329.285C112.605 331.679 114.052 333.615 116.201 334.658L117.861 332.488C114.637 331.094 113.169 327.551 113.159 323.913ZM115.69 327.807H119.499V338.935H122.18V319.53H119.499V325.615H115.69V327.807ZM144.872 320.232H131.425V322.36H142.17C142.16 322.732 142.16 323.104 142.149 323.487L130.893 323.722L131.191 325.807L142.021 325.381C141.968 325.892 141.894 326.434 141.777 327.019H129.298V329.168H146.872V327.019H144.5C144.883 325.051 144.883 323.434 144.872 321.913V320.232ZM131.213 332.381H142.255V333.445H131.234V338.679H145.638V336.594H133.936V335.403H144.957V330.317H131.213V332.381ZM155.761 321.402H148.399V323.594H153.144V326.7H148.421V334.594H149.761C152.155 334.594 154.25 334.53 156.782 334.105L156.591 331.934C154.602 332.243 152.857 332.317 151.016 332.339V328.871H155.761V321.402ZM157.676 337.956H160.165V329.041H162.038V338.892H164.612V319.53H162.038V326.849H160.165V319.849H157.676V337.956ZM176.671 322.083V320.679H173.778V322.083C173.756 324.892 171.235 327.934 166.926 328.7L168.097 330.956C171.448 330.275 173.959 328.36 175.235 325.902C176.491 328.381 178.991 330.285 182.374 330.956L183.565 328.7C179.182 327.956 176.661 324.924 176.671 322.083ZM166.48 336.509H184.203V334.275H166.48V336.509ZM205.172 319.53H202.449V338.935H205.172V328.934H208.024V326.722H205.172V319.53ZM190.661 334.232H192.3C195.715 334.243 198.353 334.169 201.364 333.658L201.066 331.381C198.491 331.828 196.172 331.977 193.364 331.998V323.509H199.747V321.317H190.661V334.232ZM226.21 328.956H208.487V331.126H216.125V334.488H218.87V331.126H226.21V328.956ZM210.316 323.913C210.316 326.381 213.125 327.913 217.338 327.913C221.529 327.913 224.327 326.381 224.338 323.913C224.327 321.456 221.529 319.913 217.338 319.892C213.125 319.913 210.316 321.456 210.316 323.913ZM210.593 338.552H224.253V336.36H213.338V332.764H210.593V338.552ZM213.253 323.913C213.242 322.679 214.838 322.041 217.338 322.041C219.838 322.041 221.423 322.679 221.423 323.913C221.423 325.094 219.838 325.732 217.338 325.743C214.838 325.732 213.242 325.094 213.253 323.913ZM242.482 319.53H239.759V330.828H242.482V326.168H245.099V323.934H242.482V319.53ZM227.695 329.871H237.078V320.658H234.354V323.126H230.397V320.658H227.695V329.871ZM229.822 338.637H242.95V336.509H232.525V333.849H242.589V331.7H229.822V338.637ZM230.397 327.743V325.232H234.354V327.743H230.397ZM262.009 319.53H259.265V338.892H262.009V319.53ZM245.796 333.403L247.222 335.573C254.137 332.307 256.19 327.424 256.201 321.551H246.839V323.679H253.435C252.999 327.977 250.796 331.041 245.796 333.403Z" fill="#242931"/>
</g>
<path d="M44.0242 421.71H42.4072V432.791H44.0242V421.71ZM31.6835 426.51C31.692 428.748 33.4453 430.306 35.7517 430.306C38.0496 430.306 39.8029 428.748 39.8029 426.51C39.8029 424.306 38.0496 422.74 35.7517 422.731C33.4453 422.74 31.692 424.306 31.6835 426.51ZM33.2665 426.51C33.258 425.106 34.3304 424.144 35.7517 424.144C37.1475 424.144 38.2198 425.106 38.2198 426.51C38.2198 427.948 37.1475 428.893 35.7517 428.893C34.3304 428.893 33.258 427.948 33.2665 426.51ZM34.0495 436.621H44.4838V435.31H35.6836V431.668H34.0495V436.621ZM60.1737 428.876H46.267V430.187H60.1737V428.876ZM46.9989 426.799L47.5606 428.076C50.2075 427.77 52.3778 426.655 53.2203 425.046C54.0459 426.655 56.2332 427.77 58.88 428.076L59.4588 426.799C56.6332 426.502 54.4799 425.251 54.2927 423.77H58.9311V422.442H47.5436V423.77H52.131C51.9522 425.259 49.765 426.502 46.9989 426.799ZM47.9181 434.153C47.9181 435.923 49.9011 436.919 53.2118 436.91C56.497 436.919 58.463 435.923 58.4715 434.153C58.463 432.383 56.497 431.361 53.2118 431.361C49.9011 431.361 47.9181 432.383 47.9181 434.153ZM49.5522 434.153C49.5437 433.166 50.8799 432.638 53.2118 432.621C55.5098 432.638 56.8545 433.166 56.8545 434.153C56.8545 435.115 55.5098 435.642 53.2118 435.634C50.8799 435.642 49.5437 435.115 49.5522 434.153ZM72.9488 423.208H65.8167V433.115H72.9488V423.208ZM67.3997 431.804V424.485H71.3487V431.804H67.3997ZM75.502 436.944H77.1191V429.029H79.5702V427.668H77.1191V421.693H75.502V436.944ZM92.1111 421.693H90.494V430.306H92.1111V426.629H94.3239V425.285H92.1111V421.693ZM80.0597 429.234L80.7066 430.527C85.2513 429.302 87.8982 426.553 87.9067 422.646H80.7746V423.974H86.1535C85.8556 426.357 83.7109 428.272 80.0597 429.234ZM82.3406 436.74H92.1111V430.953H82.3406V436.74ZM83.9577 435.446V432.297H90.511V435.446H83.9577ZM107.137 421.693H105.52V436.944H107.137V429.217H109.35V427.889H107.137V421.693ZM94.8815 432.655L96.1581 433.557C98.9242 430.612 99.605 427.14 99.6135 423.327H95.4262V424.655H98.0816C97.9199 427.71 97.1113 430.331 94.8815 432.655ZM99.2391 433.676L100.533 434.561C103.333 431.251 103.818 427.182 103.818 423.327H100.107V424.655H102.294C102.175 427.906 101.511 431.021 99.2391 433.676ZM115.525 426.187V424.57H118.997V423.225H110.401V424.57H113.891V426.187C113.874 428.817 112.171 431.676 109.873 432.757L110.81 434.034C112.588 433.166 114.018 431.31 114.725 429.131C115.431 431.166 116.861 432.851 118.657 433.642L119.542 432.383C117.193 431.378 115.516 428.74 115.525 426.187ZM120.921 436.944H122.538V421.693H120.921V436.944Z" fill="#4F5562"/>
<path d="M134.087 423.174H132.249L129.185 425.182V426.97L132.13 425.046H132.198V435.498H134.087V423.174ZM137.47 435.498H139.428L144.909 424.842V423.174H136.619V424.774H142.968V424.876L137.47 435.498ZM147.254 433.966C147.909 433.957 148.454 433.421 148.462 432.757C148.454 432.093 147.909 431.549 147.254 431.549C146.59 431.549 146.037 432.093 146.045 432.757C146.037 433.421 146.59 433.957 147.254 433.966ZM146.045 426.595C146.037 427.259 146.59 427.795 147.254 427.804C147.909 427.795 148.454 427.259 148.462 426.595C148.454 425.931 147.909 425.387 147.254 425.387C146.59 425.387 146.037 425.931 146.045 426.595ZM154.841 435.668C157.395 435.668 159.292 434.161 159.284 432.11C159.292 430.553 158.314 429.421 156.629 429.183V429.097C157.956 428.765 158.824 427.761 158.807 426.357C158.824 424.536 157.301 423.004 154.875 423.004C152.577 423.004 150.722 424.365 150.671 426.374H152.475C152.518 425.259 153.624 424.57 154.858 424.57C156.16 424.57 157.003 425.336 157.003 426.459C157.003 427.642 156.024 428.425 154.62 428.417H153.565V429.949H154.62C156.382 429.957 157.395 430.825 157.395 432.042C157.395 433.242 156.314 434.051 154.824 434.051C153.446 434.051 152.373 433.361 152.305 432.28H150.399C150.475 434.298 152.288 435.668 154.841 435.668ZM165.629 435.668C168.276 435.685 170.038 433.855 170.038 431.463C170.038 429.106 168.267 427.421 166.072 427.412C164.735 427.421 163.578 428.034 162.905 429.08H162.769C162.769 426.297 163.876 424.646 165.782 424.638C167.025 424.646 167.816 425.37 168.063 426.374H169.918C169.629 424.416 168.055 423.004 165.782 423.004C162.829 423.004 160.974 425.455 160.965 429.744C160.965 434.298 163.348 435.651 165.629 435.668ZM162.991 431.514C163.008 430.144 164.157 428.936 165.663 428.944C167.144 428.936 168.216 430.085 168.216 431.497C168.216 432.936 167.101 434.093 165.612 434.102C164.097 434.093 162.999 432.885 162.991 431.514ZM173.063 433.966C173.719 433.957 174.263 433.421 174.272 432.757C174.263 432.093 173.719 431.549 173.063 431.549C172.399 431.549 171.846 432.093 171.855 432.757C171.846 433.421 172.399 433.957 173.063 433.966ZM171.855 426.595C171.846 427.259 172.399 427.795 173.063 427.804C173.719 427.795 174.263 427.259 174.272 426.595C174.263 425.931 173.719 425.387 173.063 425.387C172.399 425.387 171.846 425.931 171.855 426.595ZM176.276 435.498H184.566V433.898H178.881V433.795L181.383 431.259C183.698 428.987 184.345 427.889 184.362 426.51C184.345 424.51 182.702 423.004 180.327 423.004C177.978 423.004 176.259 424.493 176.276 426.748H178.047C178.055 425.438 178.923 424.57 180.293 424.57C181.587 424.57 182.574 425.344 182.574 426.561C182.574 427.642 181.902 428.425 180.549 429.829L176.276 434.136V435.498ZM186.468 435.498H194.758V433.898H189.073V433.795L191.575 431.259C193.89 428.987 194.536 427.889 194.553 426.51C194.536 424.51 192.894 423.004 190.519 423.004C188.17 423.004 186.451 424.493 186.468 426.748H188.238C188.247 425.438 189.115 424.57 190.485 424.57C191.779 424.57 192.766 425.344 192.766 426.561C192.766 427.642 192.094 428.425 190.741 429.829L186.468 434.136V435.498Z" fill="#F53333"/>
<g filter="url(#filter9_d_1064_6525)">
<path d="M45.2668 371.358H31.4112V372.464H37.6581V377.315H38.9688V372.464H45.2668V371.358ZM33.2665 369.792H43.7008V368.702H34.5942V366.83H43.1731V365.758H34.5942V363.987H43.5306V362.898H33.2665V369.792ZM58.3864 367.851H49.5862V364.192H58.1822V363.085H48.2245V368.924H58.3864V367.851ZM46.301 372.022H52.531V377.264H53.8416V372.022H60.1567V370.932H46.301V372.022ZM73.7018 362.183H72.3741V377.349H73.7018V362.183ZM62.059 364.702H67.7613V367.885H62.093V373.673H63.3527C65.9655 373.673 68.2634 373.562 71.0464 373.128L70.9103 372.005C68.2038 372.439 65.9655 372.558 63.4548 372.549V368.975H69.106V363.596H62.059V364.702ZM83.6384 364.413V363.255H82.2426V364.413C82.2341 367.017 79.2979 369.307 76.6765 369.809L77.2893 370.932C79.5787 370.396 81.9703 368.779 82.9575 366.558C83.9363 368.779 86.3363 370.404 88.6257 370.932L89.2385 369.809C86.6087 369.315 83.6469 367.009 83.6384 364.413ZM76.0978 375.256H89.9534V374.149H76.0978V375.256ZM103.243 370.37H94.1366V367.936H102.75V366.864H94.1366V364.617H103.073V363.494H92.7749V371.46H103.243V370.37ZM90.9876 375.341H104.843V374.234H90.9876V375.341ZM122.044 362.166H120.716V377.315H122.044V369.281H124.257V368.141H122.044V362.166ZM110.537 373.349H111.201C112.103 373.349 113.244 373.324 114.674 373.026L114.537 371.902C113.533 372.124 112.614 372.192 111.865 372.217V364.889H114.384V363.783H110.537V373.349ZM115.252 373.349H115.984C117.516 373.349 118.589 373.315 119.916 372.992L119.78 371.868C118.708 372.141 117.763 372.209 116.58 372.226V364.889H119.286V363.783H115.252V373.349ZM136.679 362.183H135.351V377.349H136.679V369.332H139.215V368.209H136.679V362.183ZM125.563 364.702H131.112V367.902H125.597V373.69H126.806C129.725 373.673 131.742 373.562 134.125 373.128L133.989 372.022C131.7 372.447 129.734 372.558 126.925 372.549V369.009H132.44V363.596H125.563V364.702ZM151.568 362.183H150.241V377.315H151.568V369.536H154.105V368.43H151.568V362.183ZM139.772 365.724H148.777V364.617H144.998V362.37H143.67V364.617H139.772V365.724ZM140.64 370.456C140.632 372.507 142.198 373.928 144.351 373.928C146.487 373.928 148.045 372.507 148.062 370.456C148.045 368.413 146.487 366.983 144.351 366.983C142.198 366.983 140.632 368.413 140.64 370.456ZM141.917 370.456C141.909 369.085 142.938 368.098 144.351 368.107C145.747 368.098 146.768 369.085 146.785 370.456C146.768 371.834 145.747 372.805 144.351 372.788C142.938 372.805 141.909 371.834 141.917 370.456ZM166.884 363.715H156.211V364.821H165.539V365.23C165.531 367.043 165.531 369.162 164.96 372.056L166.322 372.209C166.867 369.162 166.867 367.085 166.884 365.23V363.715ZM154.747 375.171H168.535V374.064H161.471V368.651H160.16V374.064H154.747V375.171ZM179.046 364.566V363.051H177.718V364.617C177.701 366.966 176.152 368.975 173.82 369.792L174.552 370.881C176.382 370.192 177.761 368.787 178.408 366.975C179.063 368.566 180.374 369.8 182.042 370.422L182.791 369.383C180.57 368.626 179.029 366.728 179.046 364.566ZM176.289 374.456C176.28 376.26 178.212 377.281 181.361 377.281C184.502 377.281 186.433 376.26 186.433 374.456C186.433 372.634 184.502 371.587 181.361 371.596C178.212 371.587 176.28 372.634 176.289 374.456ZM177.616 374.456C177.608 373.324 179.038 372.651 181.361 372.651C183.676 372.651 185.106 373.324 185.106 374.456C185.106 375.554 183.676 376.217 181.361 376.209C179.038 376.217 177.608 375.554 177.616 374.456ZM181.667 366.541H185.038V371.153H186.382V362.183H185.038V365.434H181.667V366.541ZM193.851 365.06V364.413H197.255V363.306H189.085V364.413H192.54V365.06C192.523 367.247 190.94 369.196 188.676 369.962L189.357 371.034C191.17 370.379 192.566 369.026 193.213 367.29C193.868 368.813 195.187 370.013 196.932 370.592L197.562 369.536C195.34 368.813 193.859 367.043 193.851 365.06ZM190.685 374.49C190.693 376.26 192.591 377.281 195.706 377.281C198.813 377.281 200.694 376.26 200.694 374.49C200.694 372.745 198.813 371.732 195.706 371.732C192.591 371.732 190.693 372.745 190.685 374.49ZM192.03 374.49C192.012 373.434 193.425 372.805 195.706 372.805C197.996 372.805 199.391 373.434 199.4 374.49C199.391 375.579 197.996 376.217 195.706 376.209C193.425 376.217 192.012 375.579 192.03 374.49ZM199.23 371.324H200.557V367.17H202.838V366.047H200.557V362.183H199.23V371.324ZM215.328 362.183H214V377.315H215.328V369.536H217.864V368.43H215.328V362.183ZM203.532 365.724H212.537V364.617H208.758V362.37H207.43V364.617H203.532V365.724ZM204.4 370.456C204.392 372.507 205.958 373.928 208.111 373.928C210.247 373.928 211.805 372.507 211.822 370.456C211.805 368.413 210.247 366.983 208.111 366.983C205.958 366.983 204.392 368.413 204.4 370.456ZM205.677 370.456C205.668 369.085 206.698 368.098 208.111 368.107C209.507 368.098 210.528 369.085 210.545 370.456C210.528 371.834 209.507 372.805 208.111 372.788C206.698 372.805 205.668 371.834 205.677 370.456ZM231.018 362.183H229.673V377.315H231.018V362.183ZM218.694 373.383L219.426 374.473C224.499 372.039 226.524 368.183 226.541 363.834H219.392V364.924H225.18C224.882 368.541 222.788 371.443 218.694 373.383Z" fill="#242931"/>
</g>
</g>
<g filter="url(#filter10_d_1064_6525)">
<g filter="url(#filter11_d_1064_6525)">
<rect x="4" y="4" width="480" height="230.303" rx="21.7877" fill="white"/>
<rect x="4.54469" y="4.54469" width="478.911" height="229.214" rx="21.243" stroke="#EAEEF5" stroke-width="1.08939"/>
</g>
<g filter="url(#filter12_d_1064_6525)">
<path d="M47.6669 69.8327H44.9221V89.1948H47.6669V69.8327ZM31.3474 82.5351L31.6027 84.7479C35.156 84.7266 39.6348 84.6521 43.7519 83.9819L43.6242 81.9606C42.8051 82.0563 41.9646 82.1414 41.1135 82.2053V73.7902H42.837V71.6199H31.8793V73.7902H33.5814V82.5138C32.7942 82.5244 32.0495 82.5351 31.3474 82.5351ZM36.2198 82.4606V73.7902H38.4752V82.3755C37.7198 82.4181 36.9645 82.4393 36.2198 82.4606ZM65.4919 71.6199H51.8321V73.7902H62.7897V73.9391C62.7791 76.5137 62.7791 79.2797 62.045 83.0032L64.7898 83.2372C65.4813 79.2265 65.4813 76.5988 65.4919 73.9391V71.6199ZM50.0022 86.6628H67.6622V84.4287H50.0022V86.6628ZM78.5297 71.6625H69.2316V84.4713H78.5297V71.6625ZM71.9125 82.3223V73.7902H75.8275V82.3223H71.9125ZM81.168 89.1948H83.8915V79.3861H86.7426V77.1307H83.8915V69.8327H81.168V89.1948ZM108.307 69.8327H105.605V89.1948H108.307V69.8327ZM92.1155 83.7266L92.4772 85.9394C95.9241 85.95 100.488 85.9075 104.733 85.1734L104.541 83.1734C102.988 83.3755 101.36 83.5032 99.7327 83.5777V82.0351C101.86 81.6414 103.243 80.3223 103.243 78.5137C103.243 76.3541 101.243 74.8753 98.3709 74.8753C95.5198 74.8753 93.5517 76.3541 93.5623 78.5137C93.5517 80.3329 94.9347 81.6521 97.0518 82.0351V83.6734C95.2858 83.716 93.5942 83.716 92.1155 83.7266ZM92.4985 74.1094H104.265V71.9817H99.754V69.9178H97.0518V71.9817H92.4985V74.1094ZM96.1369 78.5137C96.1262 77.5137 97.0518 76.9498 98.3709 76.9392C99.7327 76.9498 100.648 77.5137 100.648 78.5137C100.648 79.535 99.7327 80.0882 98.3709 80.0882C97.0518 80.0882 96.1262 79.535 96.1369 78.5137ZM127.047 69.8539H124.324V81.0882H120.622V82.9393H124.324V84.4713H127.047V69.8539ZM110.579 78.4286L110.898 80.5776C112.366 80.5776 114.015 80.5669 115.749 80.5031V83.067H113.047V88.8544H127.473V86.6841H115.749V84.0245H118.473V80.3435C120.037 80.2265 121.622 80.0457 123.154 79.7903L123.005 77.8541C118.909 78.3541 114.122 78.4073 110.579 78.4286ZM112.004 73.9817C112.004 76.0562 113.994 77.3967 116.877 77.386C119.685 77.3967 121.696 76.0562 121.707 73.9817C121.696 71.9178 119.685 70.5029 116.877 70.5135C113.994 70.5029 112.004 71.9178 112.004 73.9817ZM114.579 73.9817C114.568 73.0242 115.494 72.4923 116.877 72.4923C118.175 72.4923 119.111 73.0242 119.132 73.9817C119.111 74.9179 118.175 75.4392 116.877 75.4285C115.494 75.4392 114.568 74.9179 114.579 73.9817ZM144.532 69.8327H141.808V89.1522H144.532V79.4925H147.277V77.2584H144.532V69.8327ZM129.042 83.7266L130.574 85.8117C137.085 82.6095 139.34 77.5988 139.362 71.8114H130.149V74.0242H136.606C136.096 78.3435 133.627 81.4287 129.042 83.7266ZM164.08 69.8327H161.357V80.2372H164.08V69.8327ZM148.165 75.237C148.165 77.8754 150.442 79.7691 153.463 79.7691C156.474 79.7691 158.751 77.8754 158.761 75.237C158.751 72.5136 156.474 70.6199 153.463 70.6412C150.442 70.6199 148.165 72.5136 148.165 75.237ZM150.825 75.237C150.804 73.7796 151.91 72.8859 153.463 72.8966C154.974 72.8859 156.07 73.7796 156.08 75.237C156.07 76.6732 154.974 77.535 153.463 77.535C151.91 77.535 150.804 76.6732 150.825 75.237ZM151.123 88.982H164.08V81.0882H161.378V82.8968H153.804V81.0882H151.123V88.982ZM153.804 86.7905V85.0032H161.378V86.7905H153.804ZM181.757 69.8327H179.076V89.1948H181.757V79.6414H184.608V77.4073H181.757V69.8327ZM166.373 74.8966H177.757V72.7263H173.48V70.1305H170.756V72.7263H166.373V74.8966ZM167.161 80.5989C167.15 83.301 169.256 85.2053 172.118 85.216C174.937 85.2053 177.054 83.301 177.054 80.5989C177.054 77.8967 174.937 75.9711 172.118 75.9817C169.256 75.9711 167.15 77.8967 167.161 80.5989ZM169.756 80.5989C169.756 79.1095 170.746 78.1946 172.118 78.1733C173.469 78.1946 174.459 79.1095 174.459 80.5989C174.459 82.0989 173.469 82.9925 172.118 82.9819C170.746 82.9925 169.756 82.0989 169.756 80.5989ZM201.369 69.8327H198.624V89.1948H201.369V69.8327ZM185.156 83.7053L186.581 85.8756C193.496 82.6095 195.55 77.7265 195.56 71.854H186.198V73.9817H192.794C192.358 78.2797 190.156 81.3436 185.156 83.7053Z" fill="#242931"/>
</g>
<g filter="url(#filter13_d_1064_6525)">
<path fill-rule="evenodd" clip-rule="evenodd" d="M45.9219 42.0816H37.1459C37.0074 42.0858 36.8695 42.0625 36.7403 42.0131C36.6111 41.9637 36.4933 41.8892 36.3939 41.794C36.2944 41.6988 36.2153 41.5848 36.1613 41.4589C36.1073 41.3329 36.0795 41.1976 36.0795 41.0608C36.0795 40.924 36.1073 40.7887 36.1613 40.6627C36.2153 40.5368 36.2944 40.4228 36.3939 40.3276C36.4933 40.2324 36.6111 40.1579 36.7403 40.1085C36.8695 40.0591 37.0074 40.0358 37.1459 40.04H45.9219C46.1907 40.0481 46.4457 40.1592 46.6329 40.3498C46.82 40.5403 46.9247 40.7954 46.9247 41.0608C46.9247 41.3262 46.82 41.5813 46.6329 41.7718C46.4457 41.9624 46.1907 42.0735 45.9219 42.0816ZM41.5417 30.4717C35.6179 30.4717 30.8154 35.2125 30.8154 41.0603C30.8154 46.9091 35.6179 51.649 41.5417 51.649C47.4655 51.649 52.2679 46.9091 52.2679 41.0603C52.2679 35.2125 47.4655 30.4717 41.5417 30.4717Z" fill="#8A93AB"/>
</g>
<path fill-rule="evenodd" clip-rule="evenodd" d="M45.9219 42.0816H37.1459C37.0074 42.0858 36.8695 42.0625 36.7403 42.0131C36.6111 41.9637 36.4933 41.8892 36.3939 41.794C36.2944 41.6988 36.2153 41.5848 36.1613 41.4589C36.1073 41.3329 36.0795 41.1976 36.0795 41.0608C36.0795 40.924 36.1073 40.7887 36.1613 40.6627C36.2153 40.5368 36.2944 40.4228 36.3939 40.3276C36.4933 40.2324 36.6111 40.1579 36.7403 40.1085C36.8695 40.0591 37.0074 40.0358 37.1459 40.04H45.9219C46.1907 40.0481 46.4457 40.1592 46.6329 40.3498C46.8201 40.5403 46.9247 40.7954 46.9247 41.0608C46.9247 41.3262 46.8201 41.5813 46.6329 41.7718C46.4457 41.9624 46.1907 42.0735 45.9219 42.0816ZM41.5417 30.4717C35.6179 30.4717 30.8154 35.2125 30.8154 41.0603C30.8154 46.9091 35.6179 51.649 41.5417 51.649C47.4655 51.649 52.2679 46.9091 52.2679 41.0603C52.2679 35.2125 47.4655 30.4717 41.5417 30.4717Z" fill="#8A93AB"/>
<path d="M36.8486 41.0605H46.2341" stroke="white" stroke-width="2.17877" stroke-linecap="round"/>
<g filter="url(#filter14_d_1064_6525)">
<path d="M63.0948 44.3475C65.6481 44.3475 67.546 42.841 67.5375 40.7899C67.546 39.2325 66.5672 38.1005 64.8821 37.8622V37.7771C66.2098 37.4452 67.0779 36.4409 67.0609 35.0366C67.0779 33.2153 65.5544 31.6834 63.1289 31.6834C60.8309 31.6834 58.9756 33.0451 58.9245 35.0536H60.7288C60.7714 33.9387 61.8778 33.2493 63.1118 33.2493C64.414 33.2493 65.2566 34.0153 65.2566 35.1388C65.2566 36.3218 64.2778 37.1048 62.8735 37.0962H61.8182V38.6282H62.8735C64.6353 38.6367 65.6481 39.5048 65.6481 40.7219C65.6481 41.9219 64.5672 42.7304 63.0778 42.7304C61.699 42.7304 60.6267 42.041 60.5586 40.9602H58.6522C58.7288 42.9772 60.5416 44.3475 63.0948 44.3475ZM81.5762 30.3897H79.9592V37.5728H76.9804V38.5941H79.9592V39.3261H81.5762V30.3897ZM68.8611 36.0069L69.0483 37.1643C70.2398 37.1728 71.559 37.1728 72.9292 37.1303V39.3601H74.5293V37.0707C75.9846 36.9941 77.4825 36.875 78.9209 36.6707L78.8357 35.6324C75.5421 35.9813 71.8143 36.0154 68.8611 36.0069ZM70.0015 32.943C69.993 34.3643 71.4994 35.2239 73.8144 35.2239C76.0868 35.2239 77.6102 34.3643 77.6272 32.943C77.6102 31.5472 76.0868 30.645 73.8144 30.645C71.4994 30.645 69.993 31.5472 70.0015 32.943ZM71.142 40.9602H79.9762V42.0495H71.21V45.4709H82.0358V44.2964H72.7931V43.1219H81.5762V39.8367H71.142V40.9602ZM71.5164 32.943C71.5079 32.211 72.4101 31.7344 73.8144 31.7344C75.2016 31.7344 76.0953 32.211 76.0953 32.943C76.0953 33.6664 75.2016 34.1345 73.8144 34.1345C72.4101 34.1345 71.5079 33.6664 71.5164 32.943ZM88.3937 44.1772H96.6833V42.5772H90.9981V42.4751L93.5002 39.9389C95.8152 37.6665 96.462 36.5686 96.479 35.1898C96.462 33.1898 94.8194 31.6834 92.4449 31.6834C90.0959 31.6834 88.3767 33.1728 88.3937 35.4281H90.164C90.1725 34.1175 91.0406 33.2493 92.4109 33.2493C93.7045 33.2493 94.6918 34.0238 94.6918 35.2409C94.6918 36.3218 94.0194 37.1048 92.6662 38.509L88.3937 42.8155V44.1772ZM102.96 44.3475C105.513 44.3475 107.411 42.841 107.403 40.7899C107.411 39.2325 106.433 38.1005 104.747 37.8622V37.7771C106.075 37.4452 106.943 36.4409 106.926 35.0366C106.943 33.2153 105.42 31.6834 102.994 31.6834C100.696 31.6834 98.841 33.0451 98.7899 35.0536H100.594C100.637 33.9387 101.743 33.2493 102.977 33.2493C104.279 33.2493 105.122 34.0153 105.122 35.1388C105.122 36.3218 104.143 37.1048 102.739 37.0962H101.684V38.6282H102.739C104.501 38.6367 105.513 39.5048 105.513 40.7219C105.513 41.9219 104.433 42.7304 102.943 42.7304C101.564 42.7304 100.492 42.041 100.424 40.9602H98.5175C98.5941 42.9772 100.407 44.3475 102.96 44.3475ZM113.084 30.8833C110.761 30.9004 109.075 32.3046 109.067 34.3047C109.075 36.3132 110.761 37.709 113.084 37.709C115.382 37.709 117.076 36.3132 117.084 34.3047C117.076 32.3046 115.382 30.9004 113.084 30.8833ZM110.65 34.3047C110.641 33.0621 111.68 32.228 113.084 32.2451C114.48 32.228 115.518 33.0621 115.518 34.3047C115.518 35.5643 114.48 36.3984 113.084 36.3984C111.68 36.3984 110.641 35.5643 110.65 34.3047ZM111.382 40.1261H119.808V41.4708H111.433V45.4368H121.918V44.1432H112.999V42.6793H121.408V38.8324H111.382V40.1261ZM119.791 38.1346H121.408V30.3727H119.791V38.1346ZM132.549 44.3475C135.4 44.3475 137.068 42.0495 137.076 38.0154C137.068 34.0068 135.374 31.6834 132.549 31.6834C129.714 31.6834 128.021 34.0068 128.021 38.0154C128.021 42.0495 129.697 44.3475 132.549 44.3475ZM129.893 38.0154C129.893 34.9515 130.889 33.2749 132.549 33.2664C134.2 33.2749 135.204 34.9515 135.204 38.0154C135.204 41.0878 134.208 42.7304 132.549 42.7304C130.88 42.7304 129.885 41.0878 129.893 38.0154ZM143.915 34.2536V31.6493H142.281V34.2536C142.281 37.1643 140.596 40.0835 138.196 41.1474L139.183 42.5091C141.013 41.6155 142.417 39.7771 143.123 37.5388C143.838 39.624 145.226 41.3346 146.979 42.1687L147.949 40.8921C145.583 39.8452 143.898 37.0367 143.915 34.2536ZM149.328 45.6581H150.945V30.3727H149.328V45.6581ZM165.324 30.3727H163.707V45.6241H165.324V37.8963H167.537V36.5686H165.324V30.3727ZM153.069 41.3346L154.345 42.2368C157.111 39.292 157.792 35.8196 157.801 32.0068H153.613V33.3345H156.269C156.107 36.3898 155.298 39.0112 153.069 41.3346ZM157.426 42.3559L158.72 43.2411C161.52 39.9303 162.005 35.8622 162.005 32.0068H158.294V33.3345H160.481C160.362 36.5856 159.698 39.7006 157.426 42.3559ZM173.712 34.8664V33.2493H177.184V31.9046H168.588V33.2493H172.078V34.8664C172.061 37.4962 170.358 40.3559 168.061 41.4368L168.997 42.7134C170.775 41.8453 172.205 39.9899 172.912 37.8111C173.618 39.8452 175.048 41.5304 176.844 42.3219L177.729 41.0623C175.38 40.058 173.703 37.4197 173.712 34.8664ZM179.108 45.6241H180.725V30.3727H179.108V45.6241Z" fill="#8A93AB"/>
</g>
<g filter="url(#filter15_d_1064_6525)">
<rect x="324.447" y="149.594" width="132.737" height="63.5319" rx="21.7877" fill="#43A0F5"/>
<rect x="324.992" y="150.138" width="131.648" height="62.4425" rx="21.243" stroke="#43A0F5" stroke-width="1.08939"/>
</g>
<g filter="url(#filter16_d_1064_6525)">
<path d="M373.261 174.775V173.821H376.495V172.051H367.746V173.821H371.031V174.775C371.031 177.396 369.703 180.264 367.133 181.413L368.375 183.132C370.205 182.29 371.49 180.588 372.188 178.554C372.886 180.426 374.146 181.966 375.967 182.741L377.141 181.039C374.546 179.958 373.252 177.277 373.261 174.775ZM378.027 186.043H380.222V170.553H378.027V186.043ZM394.636 171.251H383.878V172.987H392.474C392.457 174.077 392.414 175.277 392.082 176.817H382.142V178.571H396.321V176.817H394.27C394.644 175.039 394.644 173.702 394.636 172.494V171.251ZM383.827 185.873H394.585V180.205H383.827V185.873ZM385.955 184.137V181.907H392.423V184.137H385.955ZM410.066 171.932H406.56V170.468H404.398V171.932H400.874V173.651H410.066V171.932ZM401.623 177.005C401.623 178.707 403.223 179.856 405.47 179.864C407.726 179.856 409.283 178.707 409.283 177.005C409.283 175.302 407.726 174.153 405.47 174.145C403.223 174.153 401.623 175.302 401.623 177.005ZM402.73 182.656H410.985V186.043H413.164V180.92H402.73V182.656ZM403.751 177.005C403.743 176.205 404.432 175.779 405.47 175.779C406.517 175.779 407.223 176.205 407.223 177.005C407.223 177.796 406.517 178.205 405.47 178.196C404.432 178.205 403.743 177.796 403.751 177.005ZM410.985 180.273H413.164V176.341H415.258V174.57H413.164V170.553H410.985V180.273ZM419.56 179.847H417.415V185.873H428.105V179.847H425.943V181.158H419.56V179.847ZM415.764 179.064H429.892V177.311H415.764V179.064ZM416.462 174.928L417.245 176.63C419.884 176.29 421.824 175.183 422.828 173.685C423.824 175.183 425.764 176.29 428.428 176.63L429.194 174.928C425.73 174.536 423.952 172.783 423.952 171.234V170.707H421.722V171.234C421.705 172.826 419.918 174.511 416.462 174.928ZM419.56 184.171V182.809H425.943V184.171H419.56Z" fill="white"/>
</g>
<g filter="url(#filter17_d_1064_6525)">
<path d="M43.9391 112.486H42.5944V127.618H43.9391V112.486ZM31.4112 122.733L31.5644 123.873C34.3644 123.856 38.0156 123.805 41.3178 123.295L41.2327 122.29C40.4242 122.384 39.5816 122.46 38.7305 122.52V115.243H40.4497V114.137H31.8027V115.243H33.5049V122.716C32.7729 122.724 32.0665 122.733 31.4112 122.733ZM34.8155 122.69V115.243H37.4198V122.597C36.5432 122.639 35.6666 122.673 34.8155 122.69ZM58.2502 114.103H47.816V115.209H56.9396V115.618C56.9396 117.473 56.9396 119.737 56.3268 122.835L57.6885 122.971C58.2502 119.677 58.2502 117.524 58.2502 115.618V114.103ZM46.3181 125.388H60.1056V124.282H46.3181V125.388ZM68.8166 114.018H61.8377V123.771H68.8166V114.018ZM63.1314 122.682V115.09H67.4889V122.682H63.1314ZM71.5911 127.618H72.9188V119.686H75.455V118.528H72.9188V112.486H71.5911V127.618ZM85.6769 116.554V113.796H84.3492V116.554C84.3322 119.422 82.4683 122.316 80.2129 123.346L81.064 124.469C82.8343 123.575 84.3237 121.66 85.0216 119.38C85.745 121.533 87.2344 123.329 88.9621 124.163L89.7791 123.107C87.5493 122.094 85.6684 119.32 85.6769 116.554ZM91.4302 127.652H92.7749V112.486H91.4302V127.652ZM100.311 115.294V114.648H103.716V113.558H95.5454V114.648H99.0008V115.294C98.9837 117.465 97.4007 119.414 95.1368 120.214L95.8517 121.252C97.6305 120.605 99.0178 119.269 99.6646 117.55C100.311 119.116 101.631 120.35 103.358 120.963L104.039 119.924C101.801 119.15 100.32 117.311 100.311 115.294ZM97.1113 123.499H105.69V127.618H107.018V122.409H97.1113V123.499ZM105.69 121.609H107.018V117.626H109.299V116.486H107.018V112.486H105.69V121.609Z" fill="#242931"/>
</g>
<path d="M44.0242 170.69H42.4072V181.771H44.0242V170.69ZM31.6835 175.49C31.692 177.728 33.4453 179.285 35.7517 179.285C38.0496 179.285 39.8029 177.728 39.8029 175.49C39.8029 173.285 38.0496 171.719 35.7517 171.711C33.4453 171.719 31.692 173.285 31.6835 175.49ZM33.2665 175.49C33.258 174.085 34.3304 173.124 35.7517 173.124C37.1475 173.124 38.2198 174.085 38.2198 175.49C38.2198 176.928 37.1475 177.873 35.7517 177.873C34.3304 177.873 33.258 176.928 33.2665 175.49ZM34.0495 185.6H44.4838V184.29H35.6836V180.647H34.0495V185.6ZM60.1737 177.856H46.267V179.166H60.1737V177.856ZM46.9989 175.779L47.5606 177.056C50.2075 176.749 52.3778 175.634 53.2203 174.026C54.0459 175.634 56.2332 176.749 58.88 177.056L59.4588 175.779C56.6332 175.481 54.4799 174.23 54.2927 172.749H58.9311V171.421H47.5436V172.749H52.131C51.9522 174.239 49.765 175.481 46.9989 175.779ZM47.9181 183.132C47.9181 184.903 49.9011 185.898 53.2118 185.89C56.497 185.898 58.463 184.903 58.4715 183.132C58.463 181.362 56.497 180.341 53.2118 180.341C49.9011 180.341 47.9181 181.362 47.9181 183.132ZM49.5522 183.132C49.5437 182.145 50.8799 181.617 53.2118 181.6C55.5098 181.617 56.8545 182.145 56.8545 183.132C56.8545 184.094 55.5098 184.622 53.2118 184.613C50.8799 184.622 49.5437 184.094 49.5522 183.132ZM73.2763 170.672H71.6592V185.924H73.2763V178.196H75.4891V176.868H73.2763V170.672ZM61.0207 181.634L62.2973 182.537C65.0633 179.592 65.7442 176.119 65.7527 172.307H61.5654V173.634H64.2208C64.059 176.69 63.2505 179.311 61.0207 181.634ZM65.3782 182.656L66.6719 183.541C69.4719 180.23 69.9571 176.162 69.9571 172.307H66.2463V173.634H68.4336C68.3145 176.885 67.6506 180 65.3782 182.656ZM81.6639 175.166V173.549H85.1363V172.204H76.5403V173.549H80.0298V175.166C80.0128 177.796 78.3106 180.656 76.0127 181.737L76.9489 183.013C78.7276 182.145 80.1574 180.29 80.8638 178.111C81.5702 180.145 83.0001 181.83 84.7958 182.622L85.681 181.362C83.332 180.358 81.6554 177.719 81.6639 175.166ZM87.0597 185.924H88.6768V170.672H87.0597V185.924Z" fill="#4F5562"/>
<path d="M99.9199 184.647C102.473 184.647 104.371 183.141 104.363 181.09C104.371 179.532 103.392 178.4 101.707 178.162V178.077C103.035 177.745 103.903 176.741 103.886 175.336C103.903 173.515 102.38 171.983 99.954 171.983C97.656 171.983 95.8007 173.345 95.7496 175.353H97.5539C97.5965 174.239 98.7029 173.549 99.9369 173.549C101.239 173.549 102.082 174.315 102.082 175.439C102.082 176.622 101.103 177.405 99.6986 177.396H98.6433V178.928H99.6986C101.46 178.937 102.473 179.805 102.473 181.022C102.473 182.222 101.392 183.03 99.9029 183.03C98.5241 183.03 97.4518 182.341 97.3837 181.26H95.4773C95.5539 183.277 97.3667 184.647 99.9199 184.647ZM118.776 170.672H117.227V176.698H115.337V171.081H113.823V185.192H115.337V178.009H117.227V185.924H118.776V170.672ZM105.669 181.566L106.605 182.69C110.971 180.23 112.299 176.622 112.308 172.613H106.316V173.941H110.733C110.478 177.047 109.056 179.643 105.669 181.566ZM125.58 171.762C123.18 171.753 121.419 173.243 121.427 175.387C121.419 177.532 123.18 179.022 125.58 179.03C127.989 179.022 129.725 177.532 129.734 175.387C129.725 173.243 127.989 171.753 125.58 171.762ZM120.695 181.328L120.899 182.673C123.623 182.673 127.325 182.656 130.772 181.992L130.653 180.817C127.317 181.303 123.47 181.328 120.695 181.328ZM123.027 175.387C123.01 174.051 124.1 173.158 125.58 173.158C127.061 173.158 128.151 174.051 128.151 175.387C128.151 176.741 127.061 177.617 125.58 177.617C124.1 177.617 123.01 176.741 123.027 175.387ZM131.606 185.958H133.223V170.672H131.606V185.958ZM153.522 179.83H139.564V181.158H145.726V185.924H147.326V181.158H153.522V179.83ZM141.402 178.417H151.973V177.124H142.985V175.473H151.462V174.213H142.985V172.647H151.803V171.353H141.402V178.417ZM166.692 176.29H157.977V172.851H166.505V171.541H156.343V177.566H166.692V176.29ZM154.454 180.732H160.599V185.89H162.182V180.732H168.412V179.422H154.454V180.732Z" fill="#43A0F5"/>
</g>
</g>
<defs>
<filter id="filter0_d_1064_6525" x="0" y="0" width="488" height="488" filterUnits="userSpaceOnUse" color-interpolation-filters="sRGB">
<feFlood flood-opacity="0" result="BackgroundImageFix"/>
<feColorMatrix in="SourceAlpha" type="matrix" values="0 0 0 0 0 0 0 0 0 0 0 0 0 0 0 0 0 0 127 0" result="hardAlpha"/>
<feMorphology radius="4" operator="dilate" in="SourceAlpha" result="effect1_dropShadow_1064_6525"/>
<feOffset/>
<feComposite in2="hardAlpha" operator="out"/>
<feColorMatrix type="matrix" values="0 0 0 0 1 0 0 0 0 1 0 0 0 0 1 0 0 0 0.01 0"/>
<feBlend mode="normal" in2="BackgroundImageFix" result="effect1_dropShadow_1064_6525"/>
<feBlend mode="normal" in="SourceGraphic" in2="effect1_dropShadow_1064_6525" result="shape"/>
</filter>
<filter id="filter1_d_1064_6525" x="0" y="249.697" width="488" height="238.303" filterUnits="userSpaceOnUse" color-interpolation-filters="sRGB">
<feFlood flood-opacity="0" result="BackgroundImageFix"/>
<feColorMatrix in="SourceAlpha" type="matrix" values="0 0 0 0 0 0 0 0 0 0 0 0 0 0 0 0 0 0 127 0" result="hardAlpha"/>
<feMorphology radius="4" operator="dilate" in="SourceAlpha" result="effect1_dropShadow_1064_6525"/>
<feOffset/>
<feComposite in2="hardAlpha" operator="out"/>
<feColorMatrix type="matrix" values="0 0 0 0 1 0 0 0 0 1 0 0 0 0 1 0 0 0 0.01 0"/>
<feBlend mode="normal" in2="BackgroundImageFix" result="effect1_dropShadow_1064_6525"/>
<feBlend mode="normal" in="SourceGraphic" in2="effect1_dropShadow_1064_6525" result="shape"/>
</filter>
<filter id="filter2_d_1064_6525" x="0" y="249.697" width="488" height="238.303" filterUnits="userSpaceOnUse" color-interpolation-filters="sRGB">
<feFlood flood-opacity="0" result="BackgroundImageFix"/>
<feColorMatrix in="SourceAlpha" type="matrix" values="0 0 0 0 0 0 0 0 0 0 0 0 0 0 0 0 0 0 127 0" result="hardAlpha"/>
<feMorphology radius="4" operator="dilate" in="SourceAlpha" result="effect1_dropShadow_1064_6525"/>
<feOffset/>
<feComposite in2="hardAlpha" operator="out"/>
<feColorMatrix type="matrix" values="0 0 0 0 1 0 0 0 0 1 0 0 0 0 1 0 0 0 0.01 0"/>
<feBlend mode="normal" in2="BackgroundImageFix" result="effect1_dropShadow_1064_6525"/>
<feBlend mode="normal" in="SourceGraphic" in2="effect1_dropShadow_1064_6525" result="shape"/>
</filter>
<filter id="filter3_d_1064_6525" x="26.8154" y="276.07" width="146.594" height="29.2769" filterUnits="userSpaceOnUse" color-interpolation-filters="sRGB">
<feFlood flood-opacity="0" result="BackgroundImageFix"/>
<feColorMatrix in="SourceAlpha" type="matrix" values="0 0 0 0 0 0 0 0 0 0 0 0 0 0 0 0 0 0 127 0" result="hardAlpha"/>
<feMorphology radius="4" operator="dilate" in="SourceAlpha" result="effect1_dropShadow_1064_6525"/>
<feOffset/>
<feComposite in2="hardAlpha" operator="out"/>
<feColorMatrix type="matrix" values="0 0 0 0 1 0 0 0 0 1 0 0 0 0 1 0 0 0 0.01 0"/>
<feBlend mode="normal" in2="BackgroundImageFix" result="effect1_dropShadow_1064_6525"/>
<feBlend mode="normal" in="SourceGraphic" in2="effect1_dropShadow_1064_6525" result="shape"/>
</filter>
<filter id="filter4_d_1064_6525" x="58.6523" y="280.07" width="110.757" height="15.2856" filterUnits="userSpaceOnUse" color-interpolation-filters="sRGB">
<feFlood flood-opacity="0" result="BackgroundImageFix"/>
<feColorMatrix in="SourceAlpha" type="matrix" values="0 0 0 0 0 0 0 0 0 0 0 0 0 0 0 0 0 0 127 0" result="hardAlpha"/>
<feOffset/>
<feComposite in2="hardAlpha" operator="out"/>
<feColorMatrix type="matrix" values="0 0 0 0 1 0 0 0 0 1 0 0 0 0 1 0 0 0 0.01 0"/>
<feBlend mode="normal" in2="BackgroundImageFix" result="effect1_dropShadow_1064_6525"/>
<feBlend mode="normal" in="SourceGraphic" in2="effect1_dropShadow_1064_6525" result="shape"/>
</filter>
<filter id="filter5_d_1064_6525" x="273.521" y="395.291" width="187.665" height="71.5317" filterUnits="userSpaceOnUse" color-interpolation-filters="sRGB">
<feFlood flood-opacity="0" result="BackgroundImageFix"/>
<feColorMatrix in="SourceAlpha" type="matrix" values="0 0 0 0 0 0 0 0 0 0 0 0 0 0 0 0 0 0 127 0" result="hardAlpha"/>
<feMorphology radius="4" operator="dilate" in="SourceAlpha" result="effect1_dropShadow_1064_6525"/>
<feOffset/>
<feComposite in2="hardAlpha" operator="out"/>
<feColorMatrix type="matrix" values="0 0 0 0 1 0 0 0 0 1 0 0 0 0 1 0 0 0 0.01 0"/>
<feBlend mode="normal" in2="BackgroundImageFix" result="effect1_dropShadow_1064_6525"/>
<feBlend mode="normal" in="SourceGraphic" in2="effect1_dropShadow_1064_6525" result="shape"/>
</filter>
<filter id="filter6_d_1064_6525" x="273.521" y="395.291" width="187.665" height="71.5317" filterUnits="userSpaceOnUse" color-interpolation-filters="sRGB">
<feFlood flood-opacity="0" result="BackgroundImageFix"/>
<feColorMatrix in="SourceAlpha" type="matrix" values="0 0 0 0 0 0 0 0 0 0 0 0 0 0 0 0 0 0 127 0" result="hardAlpha"/>
<feMorphology radius="4" operator="dilate" in="SourceAlpha" result="effect1_dropShadow_1064_6525"/>
<feOffset/>
<feComposite in2="hardAlpha" operator="out"/>
<feColorMatrix type="matrix" values="0 0 0 0 1 0 0 0 0 1 0 0 0 0 1 0 0 0 0.01 0"/>
<feBlend mode="normal" in2="BackgroundImageFix" result="effect1_dropShadow_1064_6525"/>
<feBlend mode="normal" in="SourceGraphic" in2="effect1_dropShadow_1064_6525" result="shape"/>
</filter>
<filter id="filter7_d_1064_6525" x="332.296" y="420.166" width="90.8203" height="15.5747" filterUnits="userSpaceOnUse" color-interpolation-filters="sRGB">
<feFlood flood-opacity="0" result="BackgroundImageFix"/>
<feColorMatrix in="SourceAlpha" type="matrix" values="0 0 0 0 0 0 0 0 0 0 0 0 0 0 0 0 0 0 127 0" result="hardAlpha"/>
<feOffset/>
<feComposite in2="hardAlpha" operator="out"/>
<feColorMatrix type="matrix" values="0 0 0 0 1 0 0 0 0 1 0 0 0 0 1 0 0 0 0.01 0"/>
<feBlend mode="normal" in2="BackgroundImageFix" result="effect1_dropShadow_1064_6525"/>
<feBlend mode="normal" in="SourceGraphic" in2="effect1_dropShadow_1064_6525" result="shape"/>
</filter>
<filter id="filter8_d_1064_6525" x="31.3682" y="319.53" width="230.642" height="19.4048" filterUnits="userSpaceOnUse" color-interpolation-filters="sRGB">
<feFlood flood-opacity="0" result="BackgroundImageFix"/>
<feColorMatrix in="SourceAlpha" type="matrix" values="0 0 0 0 0 0 0 0 0 0 0 0 0 0 0 0 0 0 127 0" result="hardAlpha"/>
<feOffset/>
<feComposite in2="hardAlpha" operator="out"/>
<feColorMatrix type="matrix" values="0 0 0 0 1 0 0 0 0 1 0 0 0 0 1 0 0 0 0.01 0"/>
<feBlend mode="normal" in2="BackgroundImageFix" result="effect1_dropShadow_1064_6525"/>
<feBlend mode="normal" in="SourceGraphic" in2="effect1_dropShadow_1064_6525" result="shape"/>
</filter>
<filter id="filter9_d_1064_6525" x="31.4111" y="362.166" width="199.606" height="15.1831" filterUnits="userSpaceOnUse" color-interpolation-filters="sRGB">
<feFlood flood-opacity="0" result="BackgroundImageFix"/>
<feColorMatrix in="SourceAlpha" type="matrix" values="0 0 0 0 0 0 0 0 0 0 0 0 0 0 0 0 0 0 127 0" result="hardAlpha"/>
<feOffset/>
<feComposite in2="hardAlpha" operator="out"/>
<feColorMatrix type="matrix" values="0 0 0 0 1 0 0 0 0 1 0 0 0 0 1 0 0 0 0.01 0"/>
<feBlend mode="normal" in2="BackgroundImageFix" result="effect1_dropShadow_1064_6525"/>
<feBlend mode="normal" in="SourceGraphic" in2="effect1_dropShadow_1064_6525" result="shape"/>
</filter>
<filter id="filter10_d_1064_6525" x="0" y="0" width="488" height="238.303" filterUnits="userSpaceOnUse" color-interpolation-filters="sRGB">
<feFlood flood-opacity="0" result="BackgroundImageFix"/>
<feColorMatrix in="SourceAlpha" type="matrix" values="0 0 0 0 0 0 0 0 0 0 0 0 0 0 0 0 0 0 127 0" result="hardAlpha"/>
<feMorphology radius="4" operator="dilate" in="SourceAlpha" result="effect1_dropShadow_1064_6525"/>
<feOffset/>
<feComposite in2="hardAlpha" operator="out"/>
<feColorMatrix type="matrix" values="0 0 0 0 1 0 0 0 0 1 0 0 0 0 1 0 0 0 0.01 0"/>
<feBlend mode="normal" in2="BackgroundImageFix" result="effect1_dropShadow_1064_6525"/>
<feBlend mode="normal" in="SourceGraphic" in2="effect1_dropShadow_1064_6525" result="shape"/>
</filter>
<filter id="filter11_d_1064_6525" x="0" y="0" width="488" height="238.303" filterUnits="userSpaceOnUse" color-interpolation-filters="sRGB">
<feFlood flood-opacity="0" result="BackgroundImageFix"/>
<feColorMatrix in="SourceAlpha" type="matrix" values="0 0 0 0 0 0 0 0 0 0 0 0 0 0 0 0 0 0 127 0" result="hardAlpha"/>
<feMorphology radius="4" operator="dilate" in="SourceAlpha" result="effect1_dropShadow_1064_6525"/>
<feOffset/>
<feComposite in2="hardAlpha" operator="out"/>
<feColorMatrix type="matrix" values="0 0 0 0 1 0 0 0 0 1 0 0 0 0 1 0 0 0 0.01 0"/>
<feBlend mode="normal" in2="BackgroundImageFix" result="effect1_dropShadow_1064_6525"/>
<feBlend mode="normal" in="SourceGraphic" in2="effect1_dropShadow_1064_6525" result="shape"/>
</filter>
<filter id="filter12_d_1064_6525" x="31.3477" y="69.8325" width="170.021" height="19.3623" filterUnits="userSpaceOnUse" color-interpolation-filters="sRGB">
<feFlood flood-opacity="0" result="BackgroundImageFix"/>
<feColorMatrix in="SourceAlpha" type="matrix" values="0 0 0 0 0 0 0 0 0 0 0 0 0 0 0 0 0 0 127 0" result="hardAlpha"/>
<feOffset/>
<feComposite in2="hardAlpha" operator="out"/>
<feColorMatrix type="matrix" values="0 0 0 0 1 0 0 0 0 1 0 0 0 0 1 0 0 0 0.01 0"/>
<feBlend mode="normal" in2="BackgroundImageFix" result="effect1_dropShadow_1064_6525"/>
<feBlend mode="normal" in="SourceGraphic" in2="effect1_dropShadow_1064_6525" result="shape"/>
</filter>
<filter id="filter13_d_1064_6525" x="30.8154" y="30.4717" width="21.4521" height="21.1772" filterUnits="userSpaceOnUse" color-interpolation-filters="sRGB">
<feFlood flood-opacity="0" result="BackgroundImageFix"/>
<feColorMatrix in="SourceAlpha" type="matrix" values="0 0 0 0 0 0 0 0 0 0 0 0 0 0 0 0 0 0 127 0" result="hardAlpha"/>
<feOffset/>
<feComposite in2="hardAlpha" operator="out"/>
<feColorMatrix type="matrix" values="0 0 0 0 1 0 0 0 0 1 0 0 0 0 1 0 0 0 0.01 0"/>
<feBlend mode="normal" in2="BackgroundImageFix" result="effect1_dropShadow_1064_6525"/>
<feBlend mode="normal" in="SourceGraphic" in2="effect1_dropShadow_1064_6525" result="shape"/>
</filter>
<filter id="filter14_d_1064_6525" x="58.6523" y="30.3726" width="122.072" height="15.2856" filterUnits="userSpaceOnUse" color-interpolation-filters="sRGB">
<feFlood flood-opacity="0" result="BackgroundImageFix"/>
<feColorMatrix in="SourceAlpha" type="matrix" values="0 0 0 0 0 0 0 0 0 0 0 0 0 0 0 0 0 0 127 0" result="hardAlpha"/>
<feOffset/>
<feComposite in2="hardAlpha" operator="out"/>
<feColorMatrix type="matrix" values="0 0 0 0 1 0 0 0 0 1 0 0 0 0 1 0 0 0 0.01 0"/>
<feBlend mode="normal" in2="BackgroundImageFix" result="effect1_dropShadow_1064_6525"/>
<feBlend mode="normal" in="SourceGraphic" in2="effect1_dropShadow_1064_6525" result="shape"/>
</filter>
<filter id="filter15_d_1064_6525" x="320.447" y="145.594" width="140.737" height="71.5317" filterUnits="userSpaceOnUse" color-interpolation-filters="sRGB">
<feFlood flood-opacity="0" result="BackgroundImageFix"/>
<feColorMatrix in="SourceAlpha" type="matrix" values="0 0 0 0 0 0 0 0 0 0 0 0 0 0 0 0 0 0 127 0" result="hardAlpha"/>
<feMorphology radius="4" operator="dilate" in="SourceAlpha" result="effect1_dropShadow_1064_6525"/>
<feOffset/>
<feComposite in2="hardAlpha" operator="out"/>
<feColorMatrix type="matrix" values="0 0 0 0 1 0 0 0 0 1 0 0 0 0 1 0 0 0 0.01 0"/>
<feBlend mode="normal" in2="BackgroundImageFix" result="effect1_dropShadow_1064_6525"/>
<feBlend mode="normal" in="SourceGraphic" in2="effect1_dropShadow_1064_6525" result="shape"/>
</filter>
<filter id="filter16_d_1064_6525" x="367.133" y="170.468" width="62.7598" height="15.5747" filterUnits="userSpaceOnUse" color-interpolation-filters="sRGB">
<feFlood flood-opacity="0" result="BackgroundImageFix"/>
<feColorMatrix in="SourceAlpha" type="matrix" values="0 0 0 0 0 0 0 0 0 0 0 0 0 0 0 0 0 0 127 0" result="hardAlpha"/>
<feOffset/>
<feComposite in2="hardAlpha" operator="out"/>
<feColorMatrix type="matrix" values="0 0 0 0 1 0 0 0 0 1 0 0 0 0 1 0 0 0 0.01 0"/>
<feBlend mode="normal" in2="BackgroundImageFix" result="effect1_dropShadow_1064_6525"/>
<feBlend mode="normal" in="SourceGraphic" in2="effect1_dropShadow_1064_6525" result="shape"/>
</filter>
<filter id="filter17_d_1064_6525" x="31.4111" y="112.486" width="77.8877" height="15.166" filterUnits="userSpaceOnUse" color-interpolation-filters="sRGB">
<feFlood flood-opacity="0" result="BackgroundImageFix"/>
<feColorMatrix in="SourceAlpha" type="matrix" values="0 0 0 0 0 0 0 0 0 0 0 0 0 0 0 0 0 0 127 0" result="hardAlpha"/>
<feOffset/>
<feComposite in2="hardAlpha" operator="out"/>
<feColorMatrix type="matrix" values="0 0 0 0 1 0 0 0 0 1 0 0 0 0 1 0 0 0 0.01 0"/>
<feBlend mode="normal" in2="BackgroundImageFix" result="effect1_dropShadow_1064_6525"/>
<feBlend mode="normal" in="SourceGraphic" in2="effect1_dropShadow_1064_6525" result="shape"/>
</filter>
</defs>
</svg>
