<svg width="160" height="160" viewBox="0 0 160 160" fill="none" xmlns="http://www.w3.org/2000/svg">
<path d="M120 150H40C16 150 0 137.647 0 108.824V51.1765C0 22.3529 16 10 40 10H120C144 10 160 22.3529 160 51.1765V108.824C160 137.647 144 150 120 150Z" fill="#C6E7FF"/>
<path fill-rule="evenodd" clip-rule="evenodd" d="M124.838 63.242C125.834 64.528 126.294 66.1693 126.116 67.8048C125.938 69.4403 125.138 70.9361 123.891 71.9632L98.7693 92.6493C88.3035 101.238 71.6255 101.238 61.1676 92.6493H61.1435L36.1025 71.9632C34.8562 70.934 34.0575 69.4365 33.8821 67.8002C33.7068 66.1639 34.1691 64.5227 35.1674 63.2378C36.1658 61.9529 37.6183 61.1295 39.2055 60.9488C40.7927 60.768 42.3845 61.2446 43.6308 62.2739L68.6639 82.9517C74.7395 87.9246 85.1814 87.9246 91.257 82.9517L116.37 62.2656C117.618 61.2387 119.21 60.7646 120.796 60.9477C122.383 61.1308 123.833 61.9561 124.83 63.242H124.838Z" fill="#61B3FF"/>
<path fill-rule="evenodd" clip-rule="evenodd" d="M124.838 63.242C125.834 64.528 126.294 66.1693 126.116 67.8048C125.938 69.4403 125.138 70.9361 123.891 71.9632L98.7693 92.6493C88.3035 101.238 71.6255 101.238 61.1676 92.6493H61.1435L36.1025 71.9632C34.8562 70.934 34.0575 69.4365 33.8821 67.8002C33.7068 66.1639 34.1691 64.5227 35.1674 63.2378C36.1658 61.9529 37.6183 61.1295 39.2055 60.9488C40.7927 60.768 42.3845 61.2446 43.6308 62.2739L68.6639 82.9517C74.7395 87.9246 85.1814 87.9246 91.257 82.9517L116.37 62.2656C117.618 61.2387 119.21 60.7646 120.796 60.9477C122.383 61.1308 123.833 61.9561 124.83 63.242H124.838Z" fill="#61B3FF"/>
</svg>
