<svg width="160" height="160" viewBox="0 0 160 160" fill="none" xmlns="http://www.w3.org/2000/svg">
<g clip-path="url(#clip0_1445_13010)">
<path d="M80 160C124.184 160 160 124.184 160 80C160 35.816 124.184 0 80 0C35.816 0 0 35.816 0 80C0 124.184 35.816 160 80 160Z" fill="#C6E7FF"/>
<path fill-rule="evenodd" clip-rule="evenodd" d="M131.6 84.2065L107.702 108.017C105.392 110.319 101.568 110.319 99.258 108.017C98.0631 106.827 97.5055 105.319 97.5055 103.811C97.5055 102.303 98.0631 100.795 99.258 99.6041L112.959 85.9526L89.4405 85.9526C89.4307 85.9527 89.421 85.9527 89.4112 85.9527L48.0679 85.9527L61.7693 99.6042C64.0795 101.906 64.0795 105.716 61.7693 108.017C59.4592 110.319 55.6355 110.319 53.3254 108.017L29.4276 84.2066C28.3165 83.0864 27.6934 81.5749 27.6934 80C27.6934 78.4251 28.3165 76.9136 29.4276 75.7934L53.3254 51.9827C55.6356 49.681 59.4592 49.681 61.7693 51.9827C62.9642 53.1732 63.5219 54.6812 63.5219 56.1893C63.5219 57.6973 62.9642 59.2053 61.7693 60.3958L48.0679 74.0473L71.5864 74.0473C71.5963 74.0473 71.6062 74.0472 71.6161 74.0472L112.959 74.0472L99.258 60.3958C96.9479 58.094 96.9479 54.2843 99.258 51.9826C101.568 49.6809 105.392 49.6809 107.702 51.9826L131.6 75.7934C132.711 76.9136 133.334 78.425 133.334 79.9999C133.334 81.5749 132.711 83.0863 131.6 84.2065Z" fill="#61B3FF"/>
</g>
<defs>
<clipPath id="clip0_1445_13010">
<rect width="160" height="160" fill="white"/>
</clipPath>
</defs>
</svg>
