<svg width="166" height="52" viewBox="0 0 166 52" fill="none" xmlns="http://www.w3.org/2000/svg">
<path d="M160.664 0H5.33591C2.38897 0 0 2.41877 0 5.40247V46.472C0 49.4557 2.38897 51.8745 5.33591 51.8745H160.664C163.611 51.8745 166 49.4557 166 46.472V5.40247C166 2.41877 163.611 0 160.664 0Z" fill="#222222"/>
<path d="M55.919 37.928C57.9168 37.928 59.5585 37.1962 60.5277 36.227V29.9172H55.563V31.7963H58.4508V35.2182C57.9168 35.6731 57.0465 35.9303 56.1564 35.9303C53.1498 35.9303 51.5477 33.8138 51.5477 30.3523C51.5477 26.9502 53.3674 24.8338 56.0575 24.8338C57.4816 24.8338 58.3519 25.4074 59.064 26.1392L60.3101 24.6755C59.4201 23.7459 58.0355 22.836 55.9784 22.836C52.1015 22.836 49.1939 25.6645 49.1939 30.4315C49.1939 35.1786 52.0224 37.928 55.919 37.928ZM67.5134 37.928C70.2035 37.928 72.6364 35.8314 72.6364 32.2512C72.6364 28.6117 70.2035 26.5151 67.5134 26.5151C64.8234 26.5151 62.3904 28.6117 62.3904 32.2512C62.3904 35.8314 64.8234 37.928 67.5134 37.928ZM67.5134 36.0687C65.8321 36.0687 64.7442 34.5457 64.7442 32.2512C64.7442 29.937 65.7728 28.3941 67.5134 28.3941C69.254 28.3941 70.3024 29.937 70.3024 32.2512C70.3024 34.5457 69.2343 36.0687 67.5134 36.0687ZM79.1689 37.928C81.8589 37.928 84.2918 35.8314 84.2918 32.2512C84.2918 28.6117 81.8589 26.5151 79.1689 26.5151C76.4788 26.5151 74.0459 28.6117 74.0459 32.2512C74.0459 35.8314 76.4788 37.928 79.1689 37.928ZM79.1689 36.0687C77.4876 36.0687 76.3997 34.5457 76.3997 32.2512C76.3997 29.937 77.4282 28.3941 79.1689 28.3941C80.9095 28.3941 81.9578 29.937 81.9578 32.2512C81.9578 34.5457 80.8897 36.0687 79.1689 36.0687ZM90.1716 42.5565C93.6726 42.5565 95.8682 40.8752 95.8682 38.7588C95.8682 36.8599 94.5825 36.1083 91.9518 36.1083H89.954C88.5496 36.1083 88.1342 35.6929 88.1342 35.0402C88.1342 34.5061 88.3518 34.2094 88.7276 33.8929C89.2815 34.1105 89.7958 34.2292 90.2507 34.2292C92.5254 34.2292 94.3253 32.8644 94.3253 30.4908C94.3253 29.6403 94.0286 28.948 93.6133 28.493H95.6902V26.792H91.8331C91.4177 26.6337 90.8639 26.5151 90.2507 26.5151C87.9958 26.5151 86.0376 27.9788 86.0376 30.4315C86.0376 31.7172 86.7299 32.7457 87.4617 33.3193V33.3984C86.8486 33.8534 86.2552 34.5655 86.2552 35.416C86.2552 36.3061 86.6903 36.8797 87.2441 37.216V37.3149C86.2354 37.928 85.6618 38.7588 85.6618 39.6884C85.6618 41.5873 87.5606 42.5565 90.1716 42.5565ZM90.2507 32.7655C89.1232 32.7655 88.1936 31.8754 88.1936 30.4315C88.1936 28.9282 89.0639 28.1172 90.2507 28.1172C91.4375 28.1172 92.3078 28.9282 92.3078 30.4315C92.3078 31.8754 91.3781 32.7655 90.2507 32.7655ZM90.5078 41.0533C88.6881 41.0533 87.6002 40.4599 87.6002 39.3522C87.6002 38.7984 87.8771 38.2445 88.5298 37.7698C89.0243 37.8687 89.4991 37.928 89.9936 37.928H91.6353C92.9803 37.928 93.6726 38.1852 93.6726 39.1148C93.6726 40.1434 92.4067 41.0533 90.5078 41.0533ZM97.275 21.9261V37.6709H99.5299V21.9261H97.275ZM106.837 37.928C108.261 37.928 109.508 37.4731 110.516 36.7808L109.725 35.3369C108.934 35.8709 108.103 36.1478 107.134 36.1478C105.235 36.1478 103.949 34.9017 103.771 32.8248H110.833C110.892 32.5281 110.932 32.1523 110.932 31.6776C110.932 28.5919 109.389 26.5151 106.501 26.5151C103.949 26.5151 101.536 28.6908 101.536 32.2512C101.536 35.8314 103.89 37.928 106.837 37.928ZM108.974 31.2622H103.752C103.969 29.3634 105.196 28.2952 106.541 28.2952C108.123 28.2952 108.974 29.3634 108.974 31.2622ZM117.124 23.1129V37.6709H119.419V32.1523H121.614C124.779 32.1523 127.093 30.6886 127.093 27.504C127.093 24.2404 124.779 23.1129 121.535 23.1129H117.124ZM121.397 30.3128H119.419V24.9524H121.317C123.632 24.9524 124.838 25.5854 124.838 27.504C124.838 29.4227 123.79 30.3128 121.397 30.3128ZM129.12 21.9261V37.6709H131.375V21.9261H129.12ZM136.724 37.928C138.069 37.928 139.177 37.3346 140.185 36.4841H140.245L140.443 37.6709H142.302V31.1238C142.302 28.1766 141.056 26.5151 138.346 26.5151C136.605 26.5151 135.122 27.148 133.994 27.8601L134.667 29.5216C135.596 28.9084 136.764 28.3744 137.95 28.3744C139.552 28.3744 140.027 29.4623 140.027 30.7479C137.792 30.9062 136.15 31.0842 135.043 31.6974C133.915 32.3897 133.52 33.5765 133.52 34.783C133.52 36.7017 134.845 37.928 136.724 37.928ZM137.416 36.1281C136.447 36.1281 135.715 35.7325 135.715 34.6248C135.715 34.1699 135.636 33.6556 136.21 33.1215C136.902 32.4886 137.931 32.4886 140.027 32.2314V34.9215C139.137 35.7325 138.366 36.1281 137.416 36.1281ZM148.497 42.2203L153.837 26.792H151.622L149.881 32.3897L149.031 35.4556H148.932C148.596 34.4468 148.259 33.3589 147.943 32.3897L145.925 26.792H143.591L147.903 37.5918L146.341 42.2203H148.497Z" fill="white"/>
<path d="M51.5061 19.4215C52.4047 19.4215 53.1236 19.098 53.5459 18.6577V15.89H51.3893V16.5819H52.7821V18.3072C52.5215 18.5499 52.0632 18.6936 51.587 18.6936C50.1762 18.6936 49.3944 17.6513 49.3944 15.9889C49.3944 14.3354 50.257 13.32 51.578 13.32C52.2609 13.32 52.6743 13.5986 53.0068 13.949L53.4561 13.4099C53.0697 13.0055 52.4766 12.5922 51.56 12.5922C49.8077 12.5922 48.5407 13.8861 48.5407 16.0158C48.5407 18.1455 49.7718 19.4215 51.5061 19.4215ZM58.9146 12.718H55.1135V19.3047H59.0135V18.5948H55.9492V16.1955H58.4473V15.4856H55.9492V13.4189H58.9146V12.718ZM59.7763 13.4189H61.7712V19.3047H62.6069V13.4189H64.6018V12.718H59.7763V13.4189ZM68.6209 12.718H67.7852V19.3047H68.6209V12.718ZM69.7978 13.4189H71.7927V19.3047H72.6284V13.4189H74.6232V12.718H69.7978V13.4189ZM80.2419 19.4215C81.8953 19.4215 83.0545 18.1096 83.0545 15.9889C83.0545 13.8772 81.8953 12.5922 80.2419 12.5922C78.5885 12.5922 77.4293 13.8772 77.4293 15.9889C77.4293 18.1096 78.5885 19.4215 80.2419 19.4215ZM80.2419 18.6936C79.0557 18.6936 78.2829 17.6333 78.2829 15.9889C78.2829 14.3354 79.0557 13.32 80.2419 13.32C81.428 13.32 82.2008 14.3354 82.2008 15.9889C82.2008 17.6333 81.428 18.6936 80.2419 18.6936ZM85.3386 12.718H84.476V19.3047H85.2667V15.8451C85.2667 15.1532 85.2038 14.4702 85.1679 13.7873H85.2038L85.9137 15.1442L88.313 19.3047H89.1666V12.718H88.3759V16.1416C88.3759 16.8246 88.4388 17.5434 88.4837 18.2264H88.4388L87.7379 16.8695L85.3386 12.718Z" fill="white"/>
<path d="M13.3271 39.4295V12.7182C13.3804 12.5048 13.4551 12.3127 13.5832 12.1313C13.6152 12.0993 13.6579 12.0779 13.6899 12.0459C13.9567 12.334 14.2235 12.6222 14.501 12.8996C15.2267 13.636 15.9417 14.3723 16.6674 15.1193C17.3824 15.8557 18.0867 16.592 18.8124 17.3177C19.5167 18.0327 20.2211 18.7584 20.9254 19.4841C21.6191 20.1991 22.3127 20.9141 23.0064 21.6291C23.7321 22.3761 24.4578 23.1125 25.1835 23.8595C25.7597 24.4571 26.3467 25.044 26.923 25.631C27.1257 25.8337 27.3071 26.0685 27.5313 26.2499C27.5313 26.2499 27.5313 26.2606 27.5313 26.2713C27.051 26.7408 26.5815 27.2104 26.1226 27.7013C25.4823 28.3736 24.8099 29.0032 24.1696 29.6756C23.5187 30.3585 22.8463 30.9988 22.1954 31.6818C21.555 32.3435 20.8934 32.9838 20.2531 33.6454C19.6234 34.3071 18.9511 34.9367 18.3215 35.5984C17.6918 36.26 17.0195 36.9003 16.3899 37.5619C15.8456 38.1382 15.28 38.6825 14.7144 39.2481C14.3943 39.5682 14.0848 39.899 13.7646 40.2299C13.5939 40.1445 13.5405 39.9738 13.4338 39.835C13.3911 39.707 13.3591 39.5789 13.3164 39.4508L13.3271 39.4295Z" fill="#00CBFC"/>
<path d="M27.521 26.2496C27.2969 26.0575 27.1155 25.8334 26.9127 25.6307C26.3365 25.0437 25.7495 24.4568 25.1732 23.8592C24.4475 23.1122 23.7219 22.3758 22.9962 21.6288C22.3025 20.9138 21.6088 20.1988 20.9152 19.4838C20.2108 18.7581 19.5065 18.0324 18.8022 17.3174C18.0871 16.5917 17.3721 15.8554 16.6571 15.119C15.9421 14.372 15.2271 13.6357 14.4907 12.8993C14.2133 12.6219 13.9465 12.3337 13.6797 12.0456C13.701 12.0243 13.7224 12.0029 13.7437 11.9816C13.9251 11.8322 14.1386 11.7681 14.3627 11.7041H14.6402C14.7575 11.7361 14.8856 11.7575 15.003 11.8215C15.1417 11.8962 15.2805 11.9709 15.4192 12.0456C15.4726 12.0883 15.5259 12.131 15.5899 12.1523C15.654 12.195 15.7287 12.2484 15.814 12.2697C15.9528 12.3657 16.1022 12.4618 16.2623 12.5258C16.2623 12.5258 16.2836 12.5472 16.2943 12.5472C16.4223 12.6219 16.5611 12.6966 16.6891 12.7713C16.9666 12.9313 17.2441 13.0914 17.5322 13.2515C17.8097 13.4222 18.0871 13.5823 18.3753 13.7317C18.418 13.7637 18.4607 13.8064 18.514 13.8171C18.6101 13.8705 18.7061 13.9238 18.7915 13.9772C18.9302 14.0625 19.0583 14.1479 19.2077 14.212C19.2077 14.212 19.229 14.2333 19.2397 14.2333C19.3571 14.2973 19.4745 14.3827 19.6025 14.4361C19.88 14.6281 20.1788 14.7776 20.4776 14.9376C20.7551 15.0977 21.0326 15.2578 21.3207 15.4179C21.3741 15.4499 21.4167 15.4712 21.4701 15.5032C21.5448 15.5566 21.6302 15.6099 21.7156 15.642C21.865 15.7273 22.0037 15.8234 22.1638 15.8981C22.1638 15.9194 22.1958 15.9194 22.2171 15.9301C22.3239 16.0261 22.4519 16.0902 22.5906 16.1435C22.8574 16.3036 23.1242 16.4637 23.4017 16.6024C23.6792 16.7838 23.978 16.9439 24.2768 17.104C24.3302 17.1467 24.3835 17.1787 24.4369 17.1894C24.5116 17.2534 24.5969 17.3067 24.693 17.3494C24.8317 17.4241 24.9598 17.5202 25.1092 17.5842C25.1412 17.6056 25.1626 17.6269 25.1946 17.6376C25.3013 17.6909 25.3973 17.755 25.5041 17.8083C25.7922 17.9791 26.0803 18.1391 26.3791 18.3099C26.5072 18.3846 26.6459 18.4379 26.774 18.5233C26.9127 18.6087 27.0408 18.7047 27.1902 18.7581C27.2436 18.8221 27.3183 18.8435 27.3823 18.8648C27.457 18.9395 27.5424 18.9715 27.6384 19.0249C27.7771 19.0996 27.9159 19.185 28.0653 19.2597C28.0866 19.2597 28.0973 19.281 28.1186 19.2917C28.236 19.3771 28.3641 19.4411 28.4922 19.5051C28.759 19.6545 29.0257 19.8146 29.3032 19.964C29.5807 20.1454 29.8795 20.2948 30.1783 20.4656C30.2317 20.4976 30.285 20.5403 30.3384 20.5509C30.4238 20.615 30.5198 20.679 30.6265 20.7217C30.7439 20.7964 30.872 20.8604 30.9894 20.9351C31.032 20.9565 31.0641 20.9778 31.1068 20.9992C31.2135 21.0632 31.3309 21.1272 31.4376 21.1912C31.6937 21.3407 31.9392 21.4794 32.1953 21.6288C32.1846 21.6501 32.1633 21.6608 32.1526 21.6821C31.3949 22.4505 30.6479 23.2082 29.8902 23.9766C29.2605 24.6169 28.6202 25.2465 27.9906 25.8761C27.8518 26.0149 27.7131 26.1429 27.5851 26.271L27.521 26.2496Z" fill="#00C550"/>
<path d="M27.5195 26.2496C27.6583 26.1216 27.797 25.9828 27.9251 25.8548C28.5547 25.2251 29.195 24.5955 29.8246 23.9552C30.5823 23.1975 31.34 22.4291 32.0871 21.6608C32.1084 21.6394 32.1191 21.6288 32.1298 21.6074C32.1618 21.6181 32.1831 21.6394 32.2151 21.6501C32.4819 21.7995 32.7594 21.9489 33.0262 22.109C33.0902 22.1517 33.1542 22.205 33.2289 22.2264C33.3036 22.2797 33.3784 22.3331 33.4744 22.3651C33.6025 22.4612 33.7519 22.5359 33.9013 22.6106L33.9546 22.6426C34.072 22.7173 34.1894 22.792 34.3175 22.8453C34.5736 23.0161 34.8617 23.1655 35.1285 23.3149C35.4167 23.4856 35.7048 23.6457 36.0036 23.8165C36.057 23.8485 36.1103 23.8805 36.1744 23.9125C36.2597 23.9659 36.3344 24.0299 36.4305 24.0512C36.5586 24.1366 36.6866 24.2113 36.8253 24.2753C36.8574 24.2967 36.8894 24.3074 36.9214 24.3287C37.0388 24.3927 37.1455 24.4781 37.2842 24.5208C37.4016 24.6275 37.551 24.6809 37.6898 24.7662C37.8392 24.8409 37.9672 24.937 38.1273 25.001C38.1487 25.0437 38.202 25.0544 38.2447 25.0757C38.4795 25.2145 38.7143 25.3318 38.885 25.556C39.0024 25.7054 39.0558 25.8868 39.1198 26.0682V26.431C39.0771 26.5804 39.0344 26.7405 38.9597 26.8792C38.8637 27.0286 38.7356 27.1567 38.5969 27.2634C38.5862 27.2634 38.5755 27.2848 38.5649 27.2954C38.4154 27.3595 38.2874 27.4448 38.1487 27.5302C38.0526 27.5729 37.9459 27.6156 37.8712 27.6903C37.8178 27.7116 37.7645 27.7223 37.7325 27.7757C37.4336 27.9144 37.1562 28.0958 36.868 28.2559C36.6012 28.4053 36.3238 28.5547 36.057 28.7148C35.9182 28.8002 35.7795 28.8749 35.6301 28.9602C35.4807 29.0243 35.342 29.1096 35.2032 29.195C35.0965 29.259 34.9898 29.3124 34.8724 29.3764C34.8404 29.3978 34.8084 29.4191 34.787 29.4298C34.6376 29.4938 34.4989 29.5685 34.3708 29.6646C34.2855 29.6966 34.2108 29.7393 34.1467 29.7926C34.0827 29.8246 34.008 29.846 33.9546 29.8993C33.6665 30.0594 33.3784 30.2195 33.0902 30.3796C32.8234 30.529 32.546 30.6784 32.2792 30.8384C32.2578 30.8384 32.2365 30.8598 32.2258 30.8598C31.5962 30.2408 30.9665 29.6325 30.3476 29.0136C29.5899 28.2559 28.8322 27.4982 28.0745 26.7512C27.9144 26.5911 27.765 26.4097 27.5836 26.2816C27.5836 26.2816 27.5836 26.271 27.5836 26.2603L27.5195 26.2496Z" fill="#FFCF00"/>
<path d="M15.4198 40.3037C15.2597 40.3571 15.1209 40.4531 14.9609 40.5065C14.7368 40.5812 14.5127 40.5599 14.2885 40.5065C14.2459 40.5065 14.2138 40.4851 14.1712 40.4745C14.0324 40.3891 13.8723 40.3464 13.7656 40.2184C14.0858 39.8875 14.3953 39.5674 14.7154 39.2366C15.2704 38.671 15.836 38.1267 16.3909 37.5504C17.0205 36.8888 17.6929 36.2485 18.3225 35.5868C18.9521 34.9252 19.6244 34.2956 20.2541 33.6339C20.8944 32.9616 21.556 32.332 22.1964 31.6703C22.8473 30.9873 23.5197 30.347 24.1706 29.664C24.8109 28.9917 25.4833 28.3514 26.1236 27.6898C26.5825 27.2095 27.052 26.7293 27.5323 26.2598C27.7243 26.3878 27.8631 26.5692 28.0232 26.7293C28.7809 27.4763 29.5386 28.2447 30.2963 28.9917C30.9152 29.6107 31.5449 30.219 32.1745 30.8379C32.0891 30.8913 32.0037 30.9446 31.9184 30.998C31.8757 30.998 31.833 31.0193 31.8117 31.0514C31.6729 31.1261 31.5342 31.2114 31.3848 31.2861C31.2994 31.3395 31.2034 31.3929 31.118 31.4462C31.0646 31.4782 31.0219 31.4996 30.9686 31.5316C30.6911 31.6917 30.4136 31.8517 30.1255 32.0011C29.8374 32.1505 29.5492 32.3 29.2824 32.4814C29.1544 32.5241 29.037 32.6094 28.9196 32.6735L28.8342 32.7268C28.6955 32.7802 28.5674 32.8549 28.4394 32.9509C28.3433 32.9829 28.2579 33.0256 28.1832 33.0897C28.1192 33.111 28.0658 33.1323 28.0125 33.175C27.7137 33.3458 27.4149 33.5165 27.1161 33.6766C26.8599 33.826 26.5931 33.9754 26.337 34.1248C26.1983 34.1888 26.0595 34.2529 25.9422 34.3489C25.9208 34.3489 25.8995 34.3489 25.8888 34.3809C25.7501 34.445 25.622 34.5197 25.4939 34.605C25.3659 34.6477 25.2592 34.7331 25.1311 34.7971C25.0991 34.8185 25.0671 34.8291 25.0351 34.8505C24.8963 34.9145 24.7683 34.9785 24.6402 35.0746C24.5442 35.1066 24.4588 35.1493 24.3841 35.2133C24.3094 35.2347 24.2453 35.2667 24.192 35.32C24.0639 35.3521 23.9572 35.4374 23.8398 35.5015C23.6691 35.5975 23.4983 35.6722 23.3489 35.7896C23.0714 35.9177 22.8046 36.0777 22.5379 36.2378C22.4205 36.3018 22.3031 36.3445 22.1964 36.4299C22.1643 36.4406 22.143 36.4512 22.111 36.4619C21.9722 36.5473 21.8335 36.622 21.6841 36.7074C21.5667 36.7394 21.4813 36.8141 21.3746 36.8781C21.3319 36.8995 21.2999 36.9208 21.2572 36.9421C21.1078 37.0062 20.9691 37.0915 20.841 37.1876C20.7663 37.2196 20.6916 37.2303 20.6383 37.305C20.5422 37.337 20.4675 37.3797 20.3928 37.4437C20.2861 37.4651 20.2007 37.5398 20.1154 37.5931C19.9233 37.6998 19.7312 37.7959 19.5497 37.9239C19.411 37.988 19.283 38.052 19.1549 38.148C19.0055 38.2014 18.8667 38.2868 18.7387 38.3722C18.6213 38.4362 18.5039 38.4789 18.3972 38.5642C18.3652 38.5749 18.3438 38.5856 18.3118 38.5963C18.0237 38.767 17.7355 38.9271 17.4367 39.0978C17.1699 39.2472 16.8925 39.3966 16.6257 39.5567C16.3269 39.7168 16.0387 39.8769 15.7506 40.0476C15.6225 40.0903 15.5051 40.1757 15.3877 40.2397C15.3877 40.2397 15.3664 40.261 15.3557 40.261L15.4198 40.3037Z" fill="#FF0041"/>
</svg>
