<svg width="160" height="160" viewBox="0 0 160 160" fill="none" xmlns="http://www.w3.org/2000/svg">
<g clip-path="url(#clip0_1460_14335)">
<path d="M74 148.931C83.7178 148.931 93.3405 147.005 102.319 143.262C111.297 139.52 119.454 134.035 126.326 127.12C133.197 120.206 138.648 111.997 142.367 102.962C146.086 93.9275 148 84.2443 148 74.4654C148 64.6865 146.086 55.0033 142.367 45.9687C138.648 36.9342 133.197 28.7252 126.326 21.8104C119.454 14.8957 111.297 9.41058 102.319 5.66834C93.3405 1.9261 83.7178 -1.45717e-07 74 0C54.374 2.9429e-07 35.5518 7.84544 21.6741 21.8104C7.7964 35.7754 0 54.716 0 74.4654C0 94.2149 7.7964 113.155 21.6741 127.12C35.5518 141.085 54.374 148.931 74 148.931Z" fill="#D1F9DF"/>
<path d="M97.8462 67.2666H81.1538V50.4693C81.1538 46.534 77.9108 43.2705 74 43.2705C70.0892 43.2705 66.8462 46.534 66.8462 50.4693V67.2666H50.1538C46.2431 67.2666 43 70.5301 43 74.4655C43 78.4008 46.2431 81.6643 50.1538 81.6643H66.8462V98.4616C66.8462 102.397 70.0892 105.66 74 105.66C77.9108 105.66 81.1538 102.397 81.1538 98.4616V81.6643H97.8462C101.757 81.6643 105 78.4008 105 74.4655C105 70.5301 101.757 67.2666 97.8462 67.2666Z" fill="#35C490"/>
<path d="M148.643 158.082C149.881 159.329 151.595 160 153.31 160C155.024 160 156.738 159.329 158.071 158.082C160.643 155.396 160.643 151.176 158.071 148.587L140.358 130.747C137.691 128.158 133.501 128.158 130.929 130.747C129.693 132.014 129 133.719 129 135.495C129 137.271 129.693 138.976 130.929 140.243L148.643 158.082Z" fill="#35C490"/>
<path d="M97.8462 67.2666H81.1538V50.4693C81.1538 46.534 77.9108 43.2705 74 43.2705C70.0892 43.2705 66.8462 46.534 66.8462 50.4693V67.2666H50.1538C46.2431 67.2666 43 70.5301 43 74.4655C43 78.4008 46.2431 81.6643 50.1538 81.6643H66.8462V98.4616C66.8462 102.397 70.0892 105.66 74 105.66C77.9108 105.66 81.1538 102.397 81.1538 98.4616V81.6643H97.8462C101.757 81.6643 105 78.4008 105 74.4655C105 70.5301 101.757 67.2666 97.8462 67.2666Z" fill="#35C490"/>
<path d="M148.643 158.082C149.881 159.329 151.595 160 153.31 160C155.024 160 156.738 159.329 158.071 158.082C160.643 155.396 160.643 151.176 158.071 148.587L140.358 130.747C137.691 128.158 133.501 128.158 130.929 130.747C129.693 132.014 129 133.719 129 135.495C129 137.271 129.693 138.976 130.929 140.243L148.643 158.082Z" fill="#35C490"/>
</g>
<defs>
<clipPath id="clip0_1460_14335">
<rect width="160" height="160" fill="white"/>
</clipPath>
</defs>
</svg>
