<svg width="160" height="160" viewBox="0 0 160 160" fill="none" xmlns="http://www.w3.org/2000/svg">
<g clip-path="url(#clip0_1445_13008)">
<path d="M0 87.68V39.84C0 17.84 17.92 0 40 0H120C142.08 0 160 17.84 160 39.92V95.76C160 117.76 142.08 135.6 120 135.6H108C105.52 135.6 103.12 136.8 101.6 138.8L89.6 154.72C84.32 161.76 75.68 161.76 70.4 154.72L58.4 138.8C57.04 137.04 54.24 135.6 52 135.6H40C17.92 135.6 0 117.76 0 95.76V87.68Z" fill="#C6E7FF"/>
<path d="M79.9872 79.9038C75.5072 79.9038 71.9072 76.3038 71.9072 71.9038C71.9072 67.5038 75.5072 63.9038 79.9072 63.9038C84.3072 63.9038 87.9072 67.5038 87.9072 71.9038C87.9072 76.3038 84.4672 79.9038 79.9872 79.9038ZM111.987 79.9038C107.507 79.9038 103.907 76.3038 103.907 71.9038C103.907 67.5038 107.507 63.9038 111.907 63.9038C116.307 63.9038 119.907 67.5038 119.907 71.9038C119.907 76.3038 116.467 79.9038 111.987 79.9038ZM47.9872 79.9038C43.5072 79.9038 39.9072 76.3038 39.9072 71.9038C39.9072 67.5038 43.5072 63.9038 47.9072 63.9038C52.3072 63.9038 55.9072 67.5038 55.9072 71.9038C55.9072 76.3038 52.4672 79.9038 47.9872 79.9038Z" fill="#61B3FF"/>
</g>
<defs>
<clipPath id="clip0_1445_13008">
<rect width="160" height="160" fill="white"/>
</clipPath>
</defs>
</svg>
