<svg width="147" height="28" viewBox="0 0 147 28" fill="none" xmlns="http://www.w3.org/2000/svg">
<path d="M25.0747 7.19678C19.5364 7.19678 15.5146 11.2572 15.5146 16.8537C15.5146 22.4502 19.3789 26.5422 24.9124 26.5422C30.4458 26.5422 34.6347 22.4671 34.6347 16.8537C34.6347 11.2403 30.613 7.19678 25.0747 7.19678ZM24.9124 22.4066C22.0511 22.4066 20.2026 20.2261 20.2026 16.8537C20.2026 12.7787 22.7925 11.3348 25.0093 11.3348C27.4514 11.3348 29.9153 13.0404 29.9153 16.8537C29.9153 20.6671 27.4029 22.4066 24.9124 22.4066Z" fill="#333333"/>
<path d="M135.734 22.7194V5.13291C135.734 3.42732 134.108 2.04395 132.405 2.04395C131.596 2.04395 130.939 2.7005 130.939 3.51211V23.8556C130.939 24.7448 131.47 25.7308 132.223 26.2105C132.534 26.4068 132.933 26.5788 133.309 26.5691C133.229 26.5715 134.668 26.5764 135.034 26.5691C135.373 26.5618 136.405 26.5957 136.776 25.5515C137.025 24.849 136.924 24.11 136.487 23.4753C136.291 23.1894 136.03 22.935 135.734 22.7218V22.7194Z" fill="#333333"/>
<path d="M143.724 22.7194V5.13291C143.724 3.42732 142.099 2.04395 140.395 2.04395C139.586 2.04395 138.93 2.7005 138.93 3.51211V23.8556C138.93 24.7448 139.46 25.7308 140.214 26.2105C140.524 26.4068 140.924 26.5788 141.299 26.5691C141.219 26.5715 142.658 26.5764 143.024 26.5691C143.363 26.5618 144.395 26.5957 144.766 25.5515C145.016 24.849 144.914 24.11 144.478 23.4753C144.281 23.1894 144.02 22.935 143.724 22.7218V22.7194Z" fill="#333333"/>
<path d="M127.761 22.3799V10.2954C127.761 8.74491 126.503 7.48994 124.955 7.48994C123.933 7.48994 123.104 8.31851 123.104 9.3409C122.048 8.3597 120.204 7.19922 117.389 7.19922C112.241 7.19922 108.505 11.2355 108.505 16.7956C108.505 22.3557 112.296 26.5543 117.324 26.5543C119.545 26.5543 121.624 25.7524 123.104 24.3617C123.104 25.4108 123.955 26.2611 125.004 26.2611H125.91C125.994 26.2611 126.67 26.2321 127.017 26.2248C127.361 26.2175 128.407 26.2854 128.785 25.2266C129.04 24.5119 128.936 23.7657 128.492 23.1213C128.298 22.8403 128.047 22.5931 127.761 22.3824V22.3799ZM118.164 22.4139C114.957 22.4139 113.224 19.5187 113.224 16.7956C113.224 13.0452 115.785 11.3396 118.164 11.3396C120.543 11.3396 123.102 13.2366 123.102 16.861C123.102 20.4854 120.616 22.4163 118.164 22.4163V22.4139Z" fill="#333333"/>
<path d="M11.8995 22.3701H11.6427C10.3175 22.3701 10.1794 21.9825 10.1794 21.0982V11.5406H13.0575C13.4331 11.5406 13.7844 11.3952 14.0509 11.1287C14.3149 10.8647 14.4627 10.5109 14.4627 10.1354V10.0845C14.4627 9.31896 14.1647 8.59699 13.6245 8.05673C13.0842 7.51646 12.3671 7.21847 11.6015 7.21847H10.1794V5.462C10.1794 3.5844 8.40836 2.05566 6.53075 2.05566C5.74095 2.05566 5.09893 2.69768 5.09893 3.48749V7.21605H3.56051C2.75374 7.21605 2.09961 7.8726 2.09961 8.67694C2.09961 10.2541 3.38123 11.5357 4.95841 11.5357H5.09893V21.0934C5.09893 24.7226 7.00318 26.5638 10.7608 26.5638H13.3095C14.0799 26.5638 14.705 25.9388 14.705 25.1684C14.705 23.6227 13.4476 22.3629 11.8995 22.3629V22.3701Z" fill="#333333"/>
<path d="M54.8956 4.81786C54.8956 2.93057 53.3669 1.39941 51.4796 1.39941H51.4287C50.777 1.39941 50.2488 1.92757 50.2488 2.57928V9.31442C48.9309 8.16606 47.1235 7.41017 45.2847 7.25269C45.0473 7.23331 44.8098 7.21877 44.5724 7.21877C39.4145 7.21877 35.6689 11.2477 35.6689 16.8006C35.6689 22.3535 39.4823 26.5448 44.5409 26.5448C44.7905 26.5448 45.04 26.5302 45.2847 26.5109C46.4864 26.4139 47.6153 26.0748 48.6062 25.5442L45.4737 22.4116H45.3162C45.3162 22.4116 45.2944 22.4116 45.2847 22.4116C42.9032 22.3947 40.386 20.4298 40.386 16.803C40.386 13.1762 42.9201 11.3713 45.2847 11.3543C45.2944 11.3543 45.3065 11.3543 45.3162 11.3543C47.4942 11.3543 49.6916 12.8564 50.1544 15.7298L54.8932 10.974V4.81786H54.8956Z" fill="#333333"/>
<path d="M65.2159 7.19676C62.0228 7.19676 59.4813 8.65281 57.5553 10.6588L50.1539 18.2928L48.0776 16.1996C46.951 15.073 45.0371 15.2353 43.9105 16.3595C43.3993 16.8707 43.3654 17.738 43.8766 18.2516L50.3017 24.6766L55.8012 18.7967L56.1356 18.4382L61.4898 13.0331C62.6066 11.9744 63.8616 11.3372 65.1505 11.3372C67.595 11.3372 70.0613 13.0452 70.0613 16.8634C70.0613 20.6816 67.5465 22.4235 65.0536 22.4235C62.1875 22.4235 60.3365 20.2407 60.3365 16.8634C60.3365 16.8367 60.3365 16.8125 60.3365 16.7859L56.3415 20.8148C57.6958 24.3326 60.9059 26.5664 65.0512 26.5664C70.6912 26.5664 74.7856 22.4865 74.7856 16.8634C74.7856 11.2403 70.7591 7.19434 65.2135 7.19434L65.2159 7.19676Z" fill="#333333"/>
<path d="M101.83 7.77111C101.753 7.73961 101.675 7.70812 101.595 7.67905C100.818 7.38832 99.9868 7.21631 99.1534 7.21631C97.6779 7.21631 96.2534 7.81714 95.1607 8.83953C94.5987 9.27077 94.1068 9.7747 93.7168 10.3392C93.741 10.3053 93.3994 9.91279 93.3606 9.86676C93.225 9.70201 93.082 9.54454 92.9342 9.39433C92.6363 9.09391 92.3068 8.82015 91.9579 8.57787C90.7441 7.73961 89.276 7.21631 87.7957 7.21631C86.2863 7.21631 84.8496 7.8341 83.7885 8.90979V7.49977H80.3579C79.6602 7.49977 79.0957 8.06426 79.0957 8.762V24.9942C79.0957 25.8543 79.7934 26.5496 80.6511 26.5496H80.685C82.4003 26.5496 83.7885 25.1589 83.7885 23.4461V15.892C83.8103 13.0066 84.9999 11.4173 87.1488 11.4173C89.2978 11.4173 90.4049 12.9799 90.4776 15.7103V15.6982C90.48 15.7855 90.4873 15.8702 90.4873 15.9575V24.9942C90.4873 25.8543 91.185 26.5496 92.0451 26.5496C93.7604 26.5496 95.1486 25.1589 95.1486 23.4461V15.9575C95.1486 15.783 95.1535 15.6134 95.1656 15.4487V15.4608C95.2988 12.8491 96.4738 11.4173 98.5113 11.4173C100.549 11.4173 101.704 12.8976 101.83 15.4996V15.4875C101.84 15.6401 101.845 15.7976 101.845 15.9575V24.9942C101.845 25.8543 102.543 26.5496 103.4 26.5496C105.116 26.5496 106.504 25.1589 106.504 23.4461V15.3978C106.504 13.857 106.201 12.2967 105.452 10.9376C104.66 9.50093 103.342 8.39133 101.833 7.76869L101.83 7.77111Z" fill="#333333"/>
</svg>
