<svg width="143" height="26" viewBox="0 0 143 26" fill="none" xmlns="http://www.w3.org/2000/svg">
<path d="M22.9751 5.79736C17.4367 5.79736 13.415 9.85783 13.415 15.4543C13.415 21.0508 17.2793 25.1427 22.8127 25.1427C28.3462 25.1427 32.5351 21.0677 32.5351 15.4543C32.5351 9.84087 28.5134 5.79736 22.9751 5.79736ZM22.8127 21.0072C19.9515 21.0072 18.103 18.8267 18.103 15.4543C18.103 11.3793 20.6929 9.93536 22.9097 9.93536C25.3518 9.93536 27.8157 11.641 27.8157 15.4543C27.8157 19.2677 25.3033 21.0072 22.8127 21.0072Z" fill="#333333"/>
<path d="M133.634 21.32V3.73349C133.634 2.0279 132.009 0.644531 130.306 0.644531C129.496 0.644531 128.84 1.30109 128.84 2.1127V22.4562C128.84 23.3454 129.37 24.3314 130.124 24.8111C130.434 25.0074 130.834 25.1794 131.209 25.1697C131.129 25.1721 132.568 25.1769 132.934 25.1697C133.273 25.1624 134.305 25.1963 134.676 24.1521C134.926 23.4495 134.824 22.7106 134.388 22.0759C134.192 21.79 133.93 21.5356 133.634 21.3224V21.32Z" fill="#333333"/>
<path d="M141.625 21.32V3.73349C141.625 2.0279 139.999 0.644531 138.296 0.644531C137.487 0.644531 136.83 1.30109 136.83 2.1127V22.4562C136.83 23.3454 137.361 24.3314 138.114 24.8111C138.424 25.0074 138.824 25.1794 139.199 25.1697C139.12 25.1721 140.559 25.1769 140.924 25.1697C141.264 25.1624 142.296 25.1963 142.666 24.1521C142.916 23.4495 142.814 22.7106 142.378 22.0759C142.182 21.79 141.92 21.5356 141.625 21.3224V21.32Z" fill="#333333"/>
<path d="M125.661 20.9805V8.89603C125.661 7.3455 124.404 6.09053 122.856 6.09053C121.833 6.09053 121.005 6.9191 121.005 7.94148C119.948 6.96028 118.105 5.7998 115.289 5.7998C110.141 5.7998 106.405 9.83605 106.405 15.3962C106.405 20.9563 110.197 25.1549 115.224 25.1549C117.446 25.1549 119.524 24.353 121.005 22.9623C121.005 24.0113 121.855 24.8617 122.904 24.8617H123.81C123.895 24.8617 124.571 24.8326 124.917 24.8254C125.261 24.8181 126.308 24.8859 126.686 23.8272C126.94 23.1125 126.836 22.3663 126.393 21.7219C126.199 21.4409 125.947 21.1937 125.661 20.983V20.9805ZM116.065 21.0145C112.857 21.0145 111.125 18.1193 111.125 15.3962C111.125 11.6458 113.686 9.94022 116.065 9.94022C118.444 9.94022 121.002 11.8372 121.002 15.4616C121.002 19.086 118.516 21.0169 116.065 21.0169V21.0145Z" fill="#333333"/>
<path d="M9.79988 20.9707H9.54307C8.21785 20.9707 8.07975 20.5831 8.07975 19.6988V10.1412H10.9579C11.3335 10.1412 11.6848 9.99582 11.9513 9.72932C12.2153 9.46524 12.3631 9.11152 12.3631 8.736V8.68513C12.3631 7.91955 12.0651 7.19758 11.5249 6.65731C10.9846 6.11705 10.2675 5.81906 9.50189 5.81906H8.07975V4.06259C8.07975 2.18498 6.30875 0.65625 4.43114 0.65625C3.64134 0.65625 2.99932 1.29827 2.99932 2.08807V5.81663H1.4609C0.654133 5.81663 0 6.47319 0 7.27753C0 8.85472 1.28162 10.1363 2.8588 10.1363H2.99932V19.6939C2.99932 23.3232 4.90357 25.1644 8.6612 25.1644H11.2099C11.9803 25.1644 12.6054 24.5394 12.6054 23.7689C12.6054 22.2233 11.348 20.9634 9.79988 20.9634V20.9707Z" fill="#333333"/>
<path d="M52.796 3.41845C52.796 1.53116 51.2673 0 49.38 0H49.3291C48.6774 0 48.1492 0.528152 48.1492 1.17986V7.91501C46.8313 6.76664 45.0239 6.01076 43.1851 5.85328C42.9477 5.8339 42.7102 5.81936 42.4728 5.81936C37.3149 5.81936 33.5693 9.84834 33.5693 15.4012C33.5693 20.9541 37.3827 25.1454 42.4413 25.1454C42.6909 25.1454 42.9404 25.1308 43.1851 25.1114C44.3868 25.0145 45.5157 24.6753 46.5066 24.1448L43.3741 21.0122H43.2166C43.2166 21.0122 43.1948 21.0122 43.1851 21.0122C40.8036 20.9952 38.2864 19.0304 38.2864 15.4036C38.2864 11.7768 40.8205 9.97189 43.1851 9.95493C43.1948 9.95493 43.2069 9.95493 43.2166 9.95493C45.3946 9.95493 47.592 11.457 48.0547 14.3304L52.7936 9.57457V3.41845H52.796Z" fill="#333333"/>
<path d="M63.1163 5.79734C59.9231 5.79734 57.3817 7.2534 55.4557 9.2594L48.0543 16.8934L45.978 14.8002C44.8514 13.6736 42.9375 13.8359 41.8109 14.9601C41.2997 15.4712 41.2658 16.3386 41.777 16.8522L48.2021 23.2772L53.7016 17.3973L54.036 17.0387L59.3901 11.6337C60.507 10.5749 61.762 9.93776 63.0509 9.93776C65.4954 9.93776 67.9617 11.6458 67.9617 15.464C67.9617 19.2822 65.4469 21.0241 62.954 21.0241C60.0879 21.0241 58.2369 18.8412 58.2369 15.464C58.2369 15.4373 58.2369 15.4131 58.2369 15.3864L54.2419 19.4154C55.5962 22.9332 58.8063 25.1669 62.9515 25.1669C68.5916 25.1669 72.686 21.0871 72.686 15.464C72.686 9.84086 68.6595 5.79492 63.1139 5.79492L63.1163 5.79734Z" fill="#333333"/>
<path d="M99.7308 6.3717C99.6533 6.3402 99.5758 6.30871 99.4958 6.27963C98.7182 5.98891 97.8872 5.81689 97.0537 5.81689C95.5783 5.81689 94.1538 6.41773 93.0611 7.44011C92.499 7.87136 92.0072 8.37528 91.6172 8.93977C91.6414 8.90586 91.2998 8.51338 91.261 8.46734C91.1254 8.3026 90.9824 8.14512 90.8346 7.99491C90.5366 7.6945 90.2072 7.42073 89.8583 7.17846C88.6445 6.3402 87.1763 5.81689 85.6961 5.81689C84.1867 5.81689 82.75 6.43469 81.6889 7.51037V6.10035H78.2583C77.5606 6.10035 76.9961 6.66484 76.9961 7.36259V23.5948C76.9961 24.4548 77.6938 25.1502 78.5515 25.1502H78.5854C80.3007 25.1502 81.6889 23.7595 81.6889 22.0467V14.4926C81.7107 11.6072 82.9002 10.0179 85.0492 10.0179C87.1981 10.0179 88.3053 11.5805 88.378 14.3109V14.2988C88.3804 14.386 88.3877 14.4708 88.3877 14.558V23.5948C88.3877 24.4548 89.0854 25.1502 89.9455 25.1502C91.6608 25.1502 93.049 23.7595 93.049 22.0467V14.558C93.049 14.3836 93.0538 14.214 93.066 14.0493V14.0614C93.1992 11.4497 94.3742 10.0179 96.4117 10.0179C98.4492 10.0179 99.6049 11.4982 99.7308 14.1002V14.088C99.7405 14.2407 99.7454 14.3982 99.7454 14.558V23.5948C99.7454 24.4548 100.443 25.1502 101.301 25.1502C103.016 25.1502 104.404 23.7595 104.404 22.0467V13.9984C104.404 12.4576 104.101 10.8973 103.353 9.53818C102.561 8.10151 101.243 6.99191 99.7333 6.36927L99.7308 6.3717Z" fill="#333333"/>
</svg>
