<svg width="105" height="20" viewBox="0 0 105 20" fill="none" xmlns="http://www.w3.org/2000/svg">
<path d="M17.9106 5.14062C13.9547 5.14062 11.082 8.04096 11.082 12.0384C11.082 16.0359 13.8422 18.9587 17.7947 18.9587C21.7472 18.9587 24.7392 16.048 24.7392 12.0384C24.7392 8.02885 21.8666 5.14062 17.9106 5.14062ZM17.7947 16.0048C15.7509 16.0048 14.4306 14.4473 14.4306 12.0384C14.4306 9.12772 16.2805 8.09634 17.8639 8.09634C19.6083 8.09634 21.3682 9.31462 21.3682 12.0384C21.3682 14.7623 19.5736 16.0048 17.7947 16.0048Z" fill="#4F5562"/>
<path d="M96.953 16.2291V3.66734C96.953 2.44906 95.7918 1.46094 94.5753 1.46094C93.9973 1.46094 93.5283 1.92991 93.5283 2.50963V17.0407C93.5283 17.6758 93.9073 18.3801 94.4455 18.7228C94.667 18.863 94.9525 18.9858 95.2208 18.9789C95.1637 18.9806 96.1916 18.9841 96.4529 18.9789C96.6952 18.9737 97.4324 18.9979 97.6971 18.2521C97.8754 17.7502 97.8027 17.2224 97.4912 16.769C97.351 16.5648 97.1641 16.3831 96.953 16.2308V16.2291Z" fill="#4F5562"/>
<path d="M102.66 16.2291V3.66734C102.66 2.44906 101.499 1.46094 100.282 1.46094C99.7043 1.46094 99.2354 1.92991 99.2354 2.50963V17.0407C99.2354 17.6758 99.6143 18.3801 100.153 18.7228C100.374 18.863 100.66 18.9858 100.928 18.9789C100.871 18.9806 101.899 18.9841 102.16 18.9789C102.402 18.9737 103.139 18.9979 103.404 18.2521C103.582 17.7502 103.51 17.2224 103.198 16.769C103.058 16.5648 102.871 16.3831 102.66 16.2308V16.2291Z" fill="#4F5562"/>
<path d="M91.258 15.986V7.35417C91.258 6.24664 90.3599 5.35024 89.2541 5.35024C88.5238 5.35024 87.932 5.94207 87.932 6.67235C87.1775 5.97149 85.8605 5.14258 83.8497 5.14258C80.1724 5.14258 77.5039 8.02561 77.5039 11.9971C77.5039 15.9687 80.2122 18.9676 83.803 18.9676C85.3898 18.9676 86.8746 18.3948 87.932 17.4015C87.932 18.1508 88.5394 18.7582 89.2887 18.7582H89.9359C89.9965 18.7582 90.4793 18.7375 90.7267 18.7323C90.9725 18.7271 91.72 18.7755 91.99 18.0193C92.1717 17.5088 92.0973 16.9758 91.7806 16.5155C91.6422 16.3148 91.4622 16.1382 91.258 15.9877V15.986ZM84.4035 16.0102C82.1123 16.0102 80.8749 13.9422 80.8749 11.9971C80.8749 9.3183 82.7041 8.10002 84.4035 8.10002C86.1028 8.10002 87.9302 9.45501 87.9302 12.0439C87.9302 14.6327 86.1547 16.0119 84.4035 16.0119V16.0102Z" fill="#4F5562"/>
<path d="M8.49991 15.9791H8.31648C7.36989 15.9791 7.27125 15.7022 7.27125 15.0706V8.2437H9.3271C9.59533 8.2437 9.84625 8.13987 10.0366 7.94951C10.2252 7.76089 10.3308 7.50823 10.3308 7.24V7.20366C10.3308 6.65682 10.1179 6.14113 9.73204 5.75522C9.34614 5.36932 8.8339 5.15647 8.28706 5.15647H7.27125V3.90185C7.27125 2.5607 6.00625 1.46875 4.6651 1.46875C4.10096 1.46875 3.64237 1.92734 3.64237 2.49148V5.15474H2.5435C1.96724 5.15474 1.5 5.62371 1.5 6.19824C1.5 7.3248 2.41544 8.24024 3.542 8.24024H3.64237V15.0671C3.64237 17.6594 5.00255 18.9746 7.68657 18.9746H9.50707C10.0574 18.9746 10.5038 18.5281 10.5038 17.9778C10.5038 16.8738 9.60571 15.9739 8.49991 15.9739V15.9791Z" fill="#4F5562"/>
<path d="M39.2109 3.44175C39.2109 2.09368 38.1189 1 36.7708 1H36.7345C36.269 1 35.8917 1.37725 35.8917 1.84276V6.65358C34.9504 5.83332 33.6594 5.2934 32.3459 5.18091C32.1763 5.16707 32.0068 5.15669 31.8372 5.15669C28.1529 5.15669 25.4775 8.03452 25.4775 12.0009C25.4775 15.9672 28.2014 18.961 31.8147 18.961C31.9929 18.961 32.1712 18.9506 32.3459 18.9367C33.2043 18.8675 34.0107 18.6252 34.7185 18.2463L32.4809 16.0087H32.3684C32.3684 16.0087 32.3529 16.0087 32.3459 16.0087C30.6448 15.9966 28.8468 14.5932 28.8468 12.0026C28.8468 9.41201 30.657 8.12278 32.3459 8.11067C32.3529 8.11067 32.3615 8.11067 32.3684 8.11067C33.9242 8.11067 35.4937 9.18358 35.8243 11.236L39.2091 7.83898V3.44175H39.2109Z" fill="#4F5562"/>
<path d="M46.5835 5.1404C44.3027 5.1404 42.4874 6.18044 41.1116 7.6133L35.8249 13.0661L34.3418 11.571C33.5372 10.7663 32.1701 10.8822 31.3654 11.6852C31.0002 12.0503 30.976 12.6699 31.3411 13.0367L35.9305 17.626L39.8587 13.4261L40.0975 13.17L43.922 9.3092C44.7197 8.55297 45.6161 8.09784 46.5368 8.09784C48.2828 8.09784 50.0445 9.31785 50.0445 12.0451C50.0445 14.7724 48.2482 16.0167 46.4675 16.0167C44.4203 16.0167 43.0982 14.4575 43.0982 12.0451C43.0982 12.0261 43.0982 12.0088 43.0982 11.9898L40.2446 14.8676C41.212 17.3803 43.5049 18.9758 46.4658 18.9758C50.4944 18.9758 53.419 16.0617 53.419 12.0451C53.419 8.02862 50.5429 5.13867 46.5817 5.13867L46.5835 5.1404Z" fill="#4F5562"/>
<path d="M72.7362 5.55058C72.6808 5.52809 72.6254 5.50559 72.5683 5.48482C72.0128 5.27716 71.4193 5.1543 70.824 5.1543C69.7701 5.1543 68.7525 5.58346 67.9721 6.31374C67.5706 6.62177 67.2193 6.98172 66.9407 7.38493C66.958 7.3607 66.714 7.08036 66.6863 7.04748C66.5894 6.9298 66.4873 6.81732 66.3817 6.71003C66.1689 6.49544 65.9335 6.29989 65.6844 6.12684C64.8174 5.52809 63.7687 5.1543 62.7113 5.1543C61.6332 5.1543 60.607 5.59558 59.8491 6.36392V5.35677H57.3987C56.9003 5.35677 56.4971 5.75998 56.4971 6.25836V17.8528C56.4971 18.4671 56.9955 18.9638 57.6081 18.9638H57.6323C58.8575 18.9638 59.8491 17.9705 59.8491 16.747V11.3513C59.8646 9.29022 60.7143 8.155 62.2493 8.155C63.7842 8.155 64.5751 9.27118 64.627 11.2215V11.2128C64.6287 11.2751 64.6339 11.3357 64.6339 11.398V17.8528C64.6339 18.4671 65.1323 18.9638 65.7466 18.9638C66.9718 18.9638 67.9634 17.9705 67.9634 16.747V11.398C67.9634 11.2734 67.9669 11.1522 67.9755 11.0346V11.0432C68.0707 9.17773 68.91 8.155 70.3654 8.155C71.8207 8.155 72.6462 9.21234 72.7362 11.0709V11.0623C72.7431 11.1713 72.7466 11.2838 72.7466 11.398V17.8528C72.7466 18.4671 73.245 18.9638 73.8576 18.9638C75.0828 18.9638 76.0743 17.9705 76.0743 16.747V10.9982C76.0743 9.89763 75.858 8.78318 75.3233 7.81236C74.7574 6.78617 73.816 5.99359 72.7379 5.54885L72.7362 5.55058Z" fill="#4F5562"/>
</svg>
