<svg width="147" height="28" viewBox="0 0 147 28" fill="none" xmlns="http://www.w3.org/2000/svg">
<path d="M25.0747 7.19727C19.5364 7.19727 15.5146 11.2577 15.5146 16.8542C15.5146 22.4507 19.3789 26.5426 24.9124 26.5426C30.4458 26.5426 34.6347 22.4676 34.6347 16.8542C34.6347 11.2408 30.613 7.19727 25.0747 7.19727ZM24.9124 22.4071C22.0511 22.4071 20.2026 20.2266 20.2026 16.8542C20.2026 12.7792 22.7925 11.3353 25.0093 11.3353C27.4514 11.3353 29.9153 13.0409 29.9153 16.8542C29.9153 20.6676 27.4029 22.4071 24.9124 22.4071Z" fill="white"/>
<path d="M135.734 22.7204V5.13388C135.734 3.42829 134.108 2.04492 132.405 2.04492C131.596 2.04492 130.939 2.70148 130.939 3.51309V23.8566C130.939 24.7458 131.47 25.7318 132.223 26.2115C132.534 26.4077 132.933 26.5798 133.309 26.5701C133.229 26.5725 134.668 26.5773 135.034 26.5701C135.373 26.5628 136.405 26.5967 136.776 25.5525C137.025 24.8499 136.924 24.111 136.487 23.4763C136.291 23.1904 136.03 22.936 135.734 22.7228V22.7204Z" fill="white"/>
<path d="M143.724 22.7204V5.13388C143.724 3.42829 142.099 2.04492 140.395 2.04492C139.586 2.04492 138.93 2.70148 138.93 3.51309V23.8566C138.93 24.7458 139.46 25.7318 140.214 26.2115C140.524 26.4077 140.924 26.5798 141.299 26.5701C141.219 26.5725 142.658 26.5773 143.024 26.5701C143.363 26.5628 144.395 26.5967 144.766 25.5525C145.016 24.8499 144.914 24.111 144.478 23.4763C144.281 23.1904 144.02 22.936 143.724 22.7228V22.7204Z" fill="white"/>
<path d="M127.761 22.3799V10.2954C127.761 8.74491 126.503 7.48994 124.955 7.48994C123.933 7.48994 123.104 8.31851 123.104 9.3409C122.048 8.3597 120.204 7.19922 117.389 7.19922C112.241 7.19922 108.505 11.2355 108.505 16.7956C108.505 22.3557 112.296 26.5543 117.324 26.5543C119.545 26.5543 121.624 25.7524 123.104 24.3617C123.104 25.4108 123.955 26.2611 125.004 26.2611H125.91C125.994 26.2611 126.67 26.2321 127.017 26.2248C127.361 26.2175 128.407 26.2854 128.785 25.2266C129.04 24.5119 128.936 23.7657 128.492 23.1213C128.298 22.8403 128.047 22.5931 127.761 22.3824V22.3799ZM118.164 22.4139C114.957 22.4139 113.224 19.5187 113.224 16.7956C113.224 13.0452 115.785 11.3396 118.164 11.3396C120.543 11.3396 123.102 13.2366 123.102 16.861C123.102 20.4854 120.616 22.4163 118.164 22.4163V22.4139Z" fill="white"/>
<path d="M11.8995 22.3711H11.6427C10.3175 22.3711 10.1794 21.9835 10.1794 21.0992V11.5416H13.0575C13.4331 11.5416 13.7844 11.3962 14.0509 11.1297C14.3149 10.8656 14.4627 10.5119 14.4627 10.1364V10.0855C14.4627 9.31994 14.1647 8.59797 13.6245 8.0577C13.0842 7.51744 12.3671 7.21945 11.6015 7.21945H10.1794V5.46298C10.1794 3.58537 8.40836 2.05664 6.53075 2.05664C5.74095 2.05664 5.09893 2.69866 5.09893 3.48846V7.21702H3.56051C2.75374 7.21702 2.09961 7.87358 2.09961 8.67792C2.09961 10.2551 3.38123 11.5367 4.95841 11.5367H5.09893V21.0943C5.09893 24.7236 7.00318 26.5648 10.7608 26.5648H13.3095C14.0799 26.5648 14.705 25.9398 14.705 25.1693C14.705 23.6236 13.4476 22.3638 11.8995 22.3638V22.3711Z" fill="white"/>
<path d="M54.8956 4.81884C54.8956 2.93155 53.3669 1.40039 51.4796 1.40039H51.4287C50.777 1.40039 50.2488 1.92854 50.2488 2.58025V9.3154C48.9309 8.16703 47.1235 7.41115 45.2847 7.25367C45.0473 7.23429 44.8098 7.21975 44.5724 7.21975C39.4145 7.21975 35.6689 11.2487 35.6689 16.8016C35.6689 22.3545 39.4823 26.5457 44.5409 26.5457C44.7905 26.5457 45.04 26.5312 45.2847 26.5118C46.4864 26.4149 47.6153 26.0757 48.6062 25.5452L45.4737 22.4126H45.3162C45.3162 22.4126 45.2944 22.4126 45.2847 22.4126C42.9032 22.3956 40.386 20.4308 40.386 16.804C40.386 13.1772 42.9201 11.3723 45.2847 11.3553C45.2944 11.3553 45.3065 11.3553 45.3162 11.3553C47.4942 11.3553 49.6916 12.8574 50.1544 15.7307L54.8932 10.975V4.81884H54.8956Z" fill="white"/>
<path d="M65.2159 7.19774C62.0228 7.19774 59.4813 8.65379 57.5553 10.6598L50.1539 18.2938L48.0776 16.2005C46.951 15.074 45.0371 15.2363 43.9105 16.3604C43.3993 16.8716 43.3654 17.739 43.8766 18.2526L50.3017 24.6776L55.8012 18.7977L56.1356 18.4391L61.4898 13.0341C62.6066 11.9753 63.8616 11.3382 65.1505 11.3382C67.595 11.3382 70.0613 13.0462 70.0613 16.8644C70.0613 20.6826 67.5465 22.4245 65.0536 22.4245C62.1875 22.4245 60.3365 20.2416 60.3365 16.8644C60.3365 16.8377 60.3365 16.8135 60.3365 16.7868L56.3415 20.8158C57.6958 24.3336 60.9059 26.5673 65.0512 26.5673C70.6912 26.5673 74.7856 22.4875 74.7856 16.8644C74.7856 11.2412 70.7591 7.19531 65.2135 7.19531L65.2159 7.19774Z" fill="white"/>
<path d="M101.83 7.7716C101.753 7.7401 101.675 7.70861 101.595 7.67954C100.818 7.38881 99.9868 7.2168 99.1534 7.2168C97.6779 7.2168 96.2534 7.81763 95.1607 8.84002C94.5987 9.27126 94.1068 9.77518 93.7168 10.3397C93.741 10.3058 93.3994 9.91328 93.3606 9.86725C93.225 9.7025 93.082 9.54503 92.9342 9.39482C92.6363 9.0944 92.3068 8.82063 91.9579 8.57836C90.7441 7.7401 89.276 7.2168 87.7957 7.2168C86.2863 7.2168 84.8496 7.83459 83.7885 8.91027V7.50025H80.3579C79.6602 7.50025 79.0957 8.06475 79.0957 8.76249V24.9947C79.0957 25.8547 79.7934 26.5501 80.6511 26.5501H80.685C82.4003 26.5501 83.7885 25.1594 83.7885 23.4466V15.8925C83.8103 13.0071 84.9999 11.4178 87.1488 11.4178C89.2978 11.4178 90.4049 12.9804 90.4776 15.7108V15.6987C90.48 15.7859 90.4873 15.8707 90.4873 15.958V24.9947C90.4873 25.8547 91.185 26.5501 92.0451 26.5501C93.7604 26.5501 95.1486 25.1594 95.1486 23.4466V15.958C95.1486 15.7835 95.1535 15.6139 95.1656 15.4492V15.4613C95.2988 12.8496 96.4738 11.4178 98.5113 11.4178C100.549 11.4178 101.704 12.8981 101.83 15.5001V15.4879C101.84 15.6406 101.845 15.7981 101.845 15.958V24.9947C101.845 25.8547 102.543 26.5501 103.4 26.5501C105.116 26.5501 106.504 25.1594 106.504 23.4466V15.3983C106.504 13.8575 106.201 12.2972 105.452 10.9381C104.66 9.50142 103.342 8.39181 101.833 7.76918L101.83 7.7716Z" fill="white"/>
</svg>
