<svg width="147" height="28" viewBox="0 0 147 28" fill="none" xmlns="http://www.w3.org/2000/svg">
<path d="M25.0747 7.19678C19.5364 7.19678 15.5146 11.2572 15.5146 16.8537C15.5146 22.4502 19.3789 26.5422 24.9124 26.5422C30.4458 26.5422 34.6347 22.4671 34.6347 16.8537C34.6347 11.2403 30.613 7.19678 25.0747 7.19678ZM24.9124 22.4066C22.0511 22.4066 20.2026 20.2261 20.2026 16.8537C20.2026 12.7787 22.7925 11.3348 25.0093 11.3348C27.4514 11.3348 29.9153 13.0404 29.9153 16.8537C29.9153 20.6671 27.4029 22.4066 24.9124 22.4066Z" fill="#333333"/>
<path d="M135.734 22.7194V5.13291C135.734 3.42732 134.109 2.04395 132.406 2.04395C131.596 2.04395 130.94 2.7005 130.94 3.51211V23.8556C130.94 24.7448 131.471 25.7308 132.224 26.2105C132.534 26.4068 132.934 26.5788 133.309 26.5691C133.229 26.5715 134.669 26.5764 135.034 26.5691C135.374 26.5618 136.406 26.5957 136.776 25.5515C137.026 24.849 136.924 24.11 136.488 23.4753C136.292 23.1894 136.03 22.935 135.734 22.7218V22.7194Z" fill="#333333"/>
<path d="M143.725 22.7194V5.13291C143.725 3.42732 142.099 2.04395 140.396 2.04395C139.587 2.04395 138.93 2.7005 138.93 3.51211V23.8556C138.93 24.7448 139.461 25.7308 140.214 26.2105C140.524 26.4068 140.924 26.5788 141.3 26.5691C141.22 26.5715 142.659 26.5764 143.025 26.5691C143.364 26.5618 144.396 26.5957 144.767 25.5515C145.016 24.849 144.914 24.11 144.478 23.4753C144.282 23.1894 144.02 22.935 143.725 22.7218V22.7194Z" fill="#333333"/>
<path d="M127.762 22.3799V10.2954C127.762 8.74491 126.504 7.48994 124.956 7.48994C123.934 7.48994 123.105 8.31851 123.105 9.3409C122.049 8.3597 120.205 7.19922 117.39 7.19922C112.242 7.19922 108.506 11.2355 108.506 16.7956C108.506 22.3557 112.297 26.5543 117.325 26.5543C119.546 26.5543 121.625 25.7524 123.105 24.3617C123.105 25.4108 123.956 26.2611 125.005 26.2611H125.911C125.995 26.2611 126.671 26.2321 127.018 26.2248C127.362 26.2175 128.408 26.2854 128.786 25.2266C129.041 24.5119 128.937 23.7657 128.493 23.1213C128.299 22.8403 128.047 22.5931 127.762 22.3824V22.3799ZM118.165 22.4139C114.958 22.4139 113.225 19.5187 113.225 16.7956C113.225 13.0452 115.786 11.3396 118.165 11.3396C120.544 11.3396 123.103 13.2366 123.103 16.861C123.103 20.4854 120.617 22.4163 118.165 22.4163V22.4139Z" fill="#333333"/>
<path d="M11.9 22.3701H11.6432C10.3179 22.3701 10.1799 21.9825 10.1799 21.0982V11.5406H13.058C13.4336 11.5406 13.7849 11.3952 14.0513 11.1287C14.3154 10.8647 14.4632 10.5109 14.4632 10.1354V10.0845C14.4632 9.31896 14.1652 8.59699 13.625 8.05673C13.0847 7.51646 12.3676 7.21847 11.602 7.21847H10.1799V5.462C10.1799 3.5844 8.40885 2.05566 6.53124 2.05566C5.74144 2.05566 5.09942 2.69768 5.09942 3.48749V7.21605H3.56099C2.75423 7.21605 2.1001 7.8726 2.1001 8.67694C2.1001 10.2541 3.38171 11.5357 4.9589 11.5357H5.09942V21.0934C5.09942 24.7226 7.00367 26.5638 10.7613 26.5638H13.31C14.0804 26.5638 14.7055 25.9388 14.7055 25.1684C14.7055 23.6227 13.4481 22.3629 11.9 22.3629V22.3701Z" fill="#333333"/>
<path d="M54.8961 4.81786C54.8961 2.93057 53.3674 1.39941 51.4801 1.39941H51.4292C50.7775 1.39941 50.2493 1.92757 50.2493 2.57928V9.31442C48.9314 8.16606 47.124 7.41017 45.2852 7.25269C45.0478 7.23331 44.8103 7.21877 44.5729 7.21877C39.415 7.21877 35.6694 11.2477 35.6694 16.8006C35.6694 22.3535 39.4828 26.5448 44.5414 26.5448C44.791 26.5448 45.0405 26.5302 45.2852 26.5109C46.4869 26.4139 47.6158 26.0748 48.6067 25.5442L45.4742 22.4116H45.3167C45.3167 22.4116 45.2949 22.4116 45.2852 22.4116C42.9037 22.3947 40.3865 20.4298 40.3865 16.803C40.3865 13.1762 42.9206 11.3713 45.2852 11.3543C45.2949 11.3543 45.307 11.3543 45.3167 11.3543C47.4947 11.3543 49.6921 12.8564 50.1548 15.7298L54.8937 10.974V4.81786H54.8961Z" fill="#333333"/>
<path d="M65.2169 7.19676C62.0237 7.19676 59.4823 8.65281 57.5562 10.6588L50.1549 18.2928L48.0786 16.1996C46.952 15.073 45.0381 15.2353 43.9115 16.3595C43.4003 16.8707 43.3664 17.738 43.8776 18.2516L50.3026 24.6766L55.8022 18.7967L56.1365 18.4382L61.4907 13.0331C62.6076 11.9744 63.8626 11.3372 65.1515 11.3372C67.596 11.3372 70.0623 13.0452 70.0623 16.8634C70.0623 20.6816 67.5475 22.4235 65.0545 22.4235C62.1885 22.4235 60.3375 20.2407 60.3375 16.8634C60.3375 16.8367 60.3375 16.8125 60.3375 16.7859L56.3425 20.8148C57.6968 24.3326 60.9069 26.5664 65.0521 26.5664C70.6922 26.5664 74.7866 22.4865 74.7866 16.8634C74.7866 11.2403 70.76 7.19434 65.2144 7.19434L65.2169 7.19676Z" fill="#333333"/>
<path d="M101.831 7.77111C101.753 7.73961 101.676 7.70812 101.596 7.67905C100.818 7.38832 99.9873 7.21631 99.1538 7.21631C97.6784 7.21631 96.2539 7.81714 95.1612 8.83953C94.5991 9.27077 94.1073 9.7747 93.7173 10.3392C93.7415 10.3053 93.3999 9.91279 93.3611 9.86676C93.2255 9.70201 93.0825 9.54454 92.9347 9.39433C92.6367 9.09391 92.3073 8.82015 91.9584 8.57787C90.7446 7.73961 89.2764 7.21631 87.7962 7.21631C86.2868 7.21631 84.8501 7.8341 83.789 8.90979V7.49977H80.3584C79.6607 7.49977 79.0962 8.06426 79.0962 8.762V24.9942C79.0962 25.8543 79.7939 26.5496 80.6516 26.5496H80.6855C82.4008 26.5496 83.789 25.1589 83.789 23.4461V15.892C83.8108 13.0066 85.0003 11.4173 87.1493 11.4173C89.2982 11.4173 90.4054 12.9799 90.4781 15.7103V15.6982C90.4805 15.7855 90.4878 15.8702 90.4878 15.9575V24.9942C90.4878 25.8543 91.1855 26.5496 92.0456 26.5496C93.7609 26.5496 95.1491 25.1589 95.1491 23.4461V15.9575C95.1491 15.783 95.1539 15.6134 95.1661 15.4487V15.4608C95.2993 12.8491 96.4743 11.4173 98.5118 11.4173C100.549 11.4173 101.705 12.8976 101.831 15.4996V15.4875C101.841 15.6401 101.845 15.7976 101.845 15.9575V24.9942C101.845 25.8543 102.543 26.5496 103.401 26.5496C105.116 26.5496 106.504 25.1589 106.504 23.4461V15.3978C106.504 13.857 106.202 12.2967 105.453 10.9376C104.661 9.50093 103.343 8.39133 101.833 7.76869L101.831 7.77111Z" fill="#333333"/>
</svg>
