<svg width="160" height="160" viewBox="0 0 160 160" fill="none" xmlns="http://www.w3.org/2000/svg">
<g clip-path="url(#clip0_1445_13006)">
<path d="M160 97.6003V113.2C160 114.8 159.918 116.4 159.836 117.92C158.279 145.92 142.295 160 111.967 160H48.0328C45.9836 160 44.0984 159.84 42.2131 159.6C16.1475 157.92 2.21312 144.32 0.409838 118.88C0.163936 116.96 0 115.12 0 113.2V97.6003C0 81.5204 10 67.6805 24.2623 61.6805C29.1803 59.6005 34.4262 58.5605 40 58.5605H120C124.016 58.5605 127.869 59.1205 131.557 60.1605C139.779 62.609 146.979 67.5673 152.099 74.3066C157.219 81.0459 159.988 89.2106 160 97.6003Z" fill="#C6E7FF"/>
<path d="M87.398 4.14506L87.1521 4.70506L63.3816 58.5447H40.0209C34.4471 58.5447 29.2012 59.5847 24.2832 61.6647L38.6275 28.2249L38.9553 27.5049L39.4471 26.2249C39.693 25.6649 39.857 25.1849 40.1029 24.7849C50.8406 0.545085 62.9717 -4.97488 87.398 4.14506Z" fill="#C6E7FF"/>
<path d="M131.57 60.1608C127.881 59.1208 124.029 58.5608 120.012 58.5608H63.373L87.1435 4.72113L87.3894 4.16113C88.537 4.56113 89.7665 5.12113 90.996 5.52113L109.111 12.9611C119.193 17.0411 126.242 21.281 130.586 26.401C131.324 27.361 131.98 28.241 132.635 29.281C133.373 30.401 133.947 31.521 134.275 32.721C134.603 33.441 134.848 34.081 135.012 34.801C137.144 41.6009 135.832 49.8409 131.57 60.1608Z" fill="#61B3FF"/>
<path d="M100.507 118H59.5235C56.1629 118 53.376 115.28 53.376 112C53.376 108.72 56.1629 106 59.5235 106H100.507C103.868 106 106.655 108.72 106.655 112C106.655 115.28 103.868 118 100.507 118Z" fill="#61B3FF"/>
</g>
<defs>
<clipPath id="clip0_1445_13006">
<rect width="160" height="160" fill="white"/>
</clipPath>
</defs>
</svg>
